<?xml version="1.0" encoding="UTF-8" standalone="no"?>
<!DOCTYPE svg PUBLIC "-//W3C//DTD SVG 1.1//EN"
 "http://www.w3.org/Graphics/SVG/1.1/DTD/svg11.dtd">
<!-- Generated by graphviz version 2.38.0 (20140413.2041)
 -->
<!-- Title: Lattice Pages: 1 -->
<svg width="240pt" height="299pt"
 viewBox="0.00 0.00 240.24 299.00" xmlns="http://www.w3.org/2000/svg" xmlns:xlink="http://www.w3.org/1999/xlink">
<g id="graph0" class="graph" transform="scale(1 1) rotate(0) translate(4 295)">
<title>Lattice</title>
<polygon fill="white" stroke="none" points="-4,4 -4,-295 236.242,-295 236.242,4 -4,4"/>
<!-- c0 -->
<g id="node1" class="node"><title>c0</title>
<ellipse fill="lightgrey" stroke="black" cx="110.242" cy="-9" rx="9" ry="9"/>
</g>
<!-- c1 -->
<g id="node2" class="node"><title>c1</title>
<ellipse fill="lightgrey" stroke="black" cx="29.2419" cy="-100" rx="9" ry="9"/>
</g>
<!-- c1&#45;&gt;c0 -->
<g id="edge2" class="edge"><title>c1&#45;&gt;c0</title>
<path fill="none" stroke="black" d="M34.8093,-92.8827C49.5353,-76.7023 89.4059,-32.8939 104.419,-16.3984"/>
</g>
<!-- c1&#45;&gt;c1 -->
<g id="edge1" class="edge"><title>c1&#45;&gt;c1</title>
<path fill="none" stroke="none" d="M36.431,-105.783C45.4742,-110.435 56.2419,-108.508 56.2419,-100 56.2419,-91.4922 45.4742,-89.5646 36.431,-94.2173"/>
<text text-anchor="middle" x="30.4425" y="-76.7646" font-family="Times New Roman,serif" font-size="14.00">man</text>
</g>
<!-- c2 -->
<g id="node3" class="node"><title>c2</title>
<ellipse fill="lightgrey" stroke="black" cx="83.2419" cy="-100" rx="9" ry="9"/>
</g>
<!-- c2&#45;&gt;c0 -->
<g id="edge4" class="edge"><title>c2&#45;&gt;c0</title>
<path fill="none" stroke="black" d="M85.6379,-91.1018C90.7745,-74.17 102.793,-34.555 107.89,-17.7534"/>
</g>
<!-- c2&#45;&gt;c2 -->
<g id="edge3" class="edge"><title>c2&#45;&gt;c2</title>
<path fill="none" stroke="none" d="M90.431,-105.783C99.4742,-110.435 110.242,-108.508 110.242,-100 110.242,-91.4922 99.4742,-89.5646 90.431,-94.2173"/>
<text text-anchor="middle" x="84.4425" y="-76.7646" font-family="Times New Roman,serif" font-size="14.00">woman</text>
</g>
<!-- c3 -->
<g id="node4" class="node"><title>c3</title>
<ellipse fill="lightgrey" stroke="black" cx="137.242" cy="-100" rx="9" ry="9"/>
</g>
<!-- c3&#45;&gt;c0 -->
<g id="edge6" class="edge"><title>c3&#45;&gt;c0</title>
<path fill="none" stroke="black" d="M134.846,-91.1018C129.709,-74.17 117.691,-34.555 112.594,-17.7534"/>
</g>
<!-- c3&#45;&gt;c3 -->
<g id="edge5" class="edge"><title>c3&#45;&gt;c3</title>
<path fill="none" stroke="none" d="M144.431,-105.783C153.474,-110.435 164.242,-108.508 164.242,-100 164.242,-91.4922 153.474,-89.5646 144.431,-94.2173"/>
<text text-anchor="middle" x="138.443" y="-76.7646" font-family="Times New Roman,serif" font-size="14.00">boy</text>
</g>
<!-- c4 -->
<g id="node5" class="node"><title>c4</title>
<ellipse fill="lightgrey" stroke="black" cx="191.242" cy="-100" rx="9" ry="9"/>
</g>
<!-- c4&#45;&gt;c0 -->
<g id="edge8" class="edge"><title>c4&#45;&gt;c0</title>
<path fill="none" stroke="black" d="M185.674,-92.8827C170.948,-76.7023 131.078,-32.8939 116.065,-16.3984"/>
</g>
<!-- c4&#45;&gt;c4 -->
<g id="edge7" class="edge"><title>c4&#45;&gt;c4</title>
<path fill="none" stroke="none" d="M198.431,-105.783C207.474,-110.435 218.242,-108.508 218.242,-100 218.242,-91.4922 207.474,-89.5646 198.431,-94.2173"/>
<text text-anchor="middle" x="192.443" y="-76.7646" font-family="Times New Roman,serif" font-size="14.00">girl</text>
</g>
<!-- c5 -->
<g id="node6" class="node"><title>c5</title>
<ellipse fill="lightgrey" stroke="black" cx="15.2419" cy="-191" rx="9" ry="9"/>
</g>
<!-- c5&#45;&gt;c1 -->
<g id="edge10" class="edge"><title>c5&#45;&gt;c1</title>
<path fill="none" stroke="black" d="M10.4382,-183.009C4.97961,-174.181 -2.69272,-158.512 1.24186,-145 5.59606,-130.047 16.7389,-115.325 23.5827,-107.273"/>
</g>
<!-- c5&#45;&gt;c2 -->
<g id="edge11" class="edge"><title>c5&#45;&gt;c2</title>
<path fill="none" stroke="black" d="M20.3529,-183.311C32.9548,-166.817 65.4075,-124.342 78.0715,-107.767"/>
</g>
<!-- c5&#45;&gt;c5 -->
<g id="edge9" class="edge"><title>c5&#45;&gt;c5</title>
<path fill="none" stroke="none" d="M22.431,-196.783C31.4742,-201.435 42.2419,-199.508 42.2419,-191 42.2419,-182.492 31.4742,-180.565 22.431,-185.217"/>
<text text-anchor="middle" x="16.4425" y="-206.835" font-family="Times New Roman,serif" font-size="14.00">adult</text>
</g>
<!-- c6 -->
<g id="node7" class="node"><title>c6</title>
<ellipse fill="lightgrey" stroke="black" cx="83.2419" cy="-191" rx="9" ry="9"/>
</g>
<!-- c6&#45;&gt;c1 -->
<g id="edge13" class="edge"><title>c6&#45;&gt;c1</title>
<path fill="none" stroke="black" d="M79.0046,-183.016C68.9598,-166.461 43.7837,-124.967 33.6095,-108.198"/>
</g>
<!-- c6&#45;&gt;c3 -->
<g id="edge14" class="edge"><title>c6&#45;&gt;c3</title>
<path fill="none" stroke="black" d="M87.4791,-183.016C97.5239,-166.461 122.7,-124.967 132.874,-108.198"/>
</g>
<!-- c6&#45;&gt;c6 -->
<g id="edge12" class="edge"><title>c6&#45;&gt;c6</title>
<path fill="none" stroke="none" d="M90.431,-196.783C99.4742,-201.435 110.242,-199.508 110.242,-191 110.242,-182.492 99.4742,-180.565 90.431,-185.217"/>
<text text-anchor="middle" x="84.4425" y="-206.835" font-family="Times New Roman,serif" font-size="14.00">male</text>
</g>
<!-- c7 -->
<g id="node8" class="node"><title>c7</title>
<ellipse fill="lightgrey" stroke="black" cx="137.242" cy="-191" rx="9" ry="9"/>
</g>
<!-- c7&#45;&gt;c2 -->
<g id="edge16" class="edge"><title>c7&#45;&gt;c2</title>
<path fill="none" stroke="black" d="M133.005,-183.016C122.96,-166.461 97.7837,-124.967 87.6095,-108.198"/>
</g>
<!-- c7&#45;&gt;c4 -->
<g id="edge17" class="edge"><title>c7&#45;&gt;c4</title>
<path fill="none" stroke="black" d="M141.479,-183.016C151.524,-166.461 176.7,-124.967 186.874,-108.198"/>
</g>
<!-- c7&#45;&gt;c7 -->
<g id="edge15" class="edge"><title>c7&#45;&gt;c7</title>
<path fill="none" stroke="none" d="M144.431,-196.783C153.474,-201.435 164.242,-199.508 164.242,-191 164.242,-182.492 153.474,-180.565 144.431,-185.217"/>
<text text-anchor="middle" x="138.443" y="-206.835" font-family="Times New Roman,serif" font-size="14.00">female</text>
</g>
<!-- c8 -->
<g id="node9" class="node"><title>c8</title>
<ellipse fill="lightgrey" stroke="black" cx="205.242" cy="-191" rx="9" ry="9"/>
</g>
<!-- c8&#45;&gt;c3 -->
<g id="edge19" class="edge"><title>c8&#45;&gt;c3</title>
<path fill="none" stroke="black" d="M200.131,-183.311C187.529,-166.817 155.076,-124.342 142.412,-107.767"/>
</g>
<!-- c8&#45;&gt;c4 -->
<g id="edge20" class="edge"><title>c8&#45;&gt;c4</title>
<path fill="none" stroke="black" d="M210.046,-183.009C215.504,-174.181 223.176,-158.512 219.242,-145 214.888,-130.047 203.745,-115.325 196.901,-107.273"/>
</g>
<!-- c8&#45;&gt;c8 -->
<g id="edge18" class="edge"><title>c8&#45;&gt;c8</title>
<path fill="none" stroke="none" d="M212.431,-196.783C221.474,-201.435 232.242,-199.508 232.242,-191 232.242,-182.492 221.474,-180.565 212.431,-185.217"/>
<text text-anchor="middle" x="206.443" y="-206.835" font-family="Times New Roman,serif" font-size="14.00">child</text>
</g>
<!-- c9 -->
<g id="node10" class="node"><title>c9</title>
<ellipse fill="lightgrey" stroke="black" cx="110.242" cy="-282" rx="9" ry="9"/>
</g>
<!-- c9&#45;&gt;c5 -->
<g id="edge21" class="edge"><title>c9&#45;&gt;c5</title>
<path fill="none" stroke="black" d="M104.009,-275.16C86.8365,-259.073 38.9691,-214.229 21.6226,-197.978"/>
</g>
<!-- c9&#45;&gt;c6 -->
<g id="edge22" class="edge"><title>c9&#45;&gt;c6</title>
<path fill="none" stroke="black" d="M107.846,-273.102C102.709,-256.17 90.6911,-216.555 85.594,-199.753"/>
</g>
<!-- c9&#45;&gt;c7 -->
<g id="edge23" class="edge"><title>c9&#45;&gt;c7</title>
<path fill="none" stroke="black" d="M112.638,-273.102C117.775,-256.17 129.793,-216.555 134.89,-199.753"/>
</g>
<!-- c9&#45;&gt;c8 -->
<g id="edge24" class="edge"><title>c9&#45;&gt;c8</title>
<path fill="none" stroke="black" d="M116.475,-275.16C133.647,-259.073 181.515,-214.229 198.861,-197.978"/>
</g>
</g>
</svg>
