<?xml version="1.0" encoding="UTF-8"?>
<svg width="214px" height="57px" viewBox="0 0 214 57" version="1.1" xmlns="http://www.w3.org/2000/svg" xmlns:xlink="http://www.w3.org/1999/xlink">
    <title>logo</title>
    <defs>
        <path d="M22.7899177,1.18008492 C24.0455553,2.46014487 24.2794872,4.38800095 23.4927336,5.9128243 C23.4847366,5.92794406 23.4767909,5.94339503 23.4687368,5.95880533 L23.4423802,6.00732568 C23.3593433,6.16215501 23.2649292,6.31264365 23.1597707,6.45756553 L33.6051511,17.10611 C33.747308,16.9989004 33.8949254,16.9026499 34.046892,16.8173587 C34.0625611,16.8089911 34.0783728,16.8001005 34.0942301,16.7913262 L34.1398639,16.766822 C35.6352303,15.9646149 37.526299,16.2030968 38.7819366,17.4831567 C40.0401107,18.7658025 40.2724466,20.6988593 39.4799761,22.2251237 C39.2979309,22.5819953 39.059952,22.9171983 38.7659768,23.2168972 C38.1409595,23.8540653 37.3585037,24.2331633 36.5457356,24.3543189 L36.5456786,29.6270753 C37.3641524,29.7455812 38.1528097,30.1254694 38.7819366,30.766833 C40.0401107,32.0494788 40.2724466,33.9825413 39.4799761,35.5088058 C39.2979309,35.8656715 39.059952,36.2008804 38.7659768,36.5005793 C37.3561496,37.9378219 35.1452564,38.0619817 33.5923262,36.8745347 L23.1407727,47.5293664 C24.3055645,49.1125043 24.1837792,51.3664009 22.7739521,52.8036459 C22.4799768,53.103343 22.1511635,53.3459454 21.8007473,53.5314663 C20.3039274,54.3394161 18.4077686,54.1025553 17.1496059,52.8199202 C15.8944528,51.5403542 15.6602188,49.6134953 16.445878,48.0889485 C16.5416885,47.9001607 16.6529004,47.7172535 16.7797529,47.5424408 L6.33437254,36.8938963 C6.16290076,37.0232161 5.98347755,37.1365911 5.79805798,37.2340211 C4.30283525,38.0352055 2.41273894,37.7964156 1.15758525,36.5168496 C-0.100578017,35.2342154 -0.33291974,33.3011819 0.459525884,31.7749175 C0.64159673,31.418011 0.879569895,31.082808 1.17354912,30.7831091 C1.74522279,30.2003186 2.44861219,29.8334292 3.18643901,29.682342 L3.18651026,24.3371654 C2.44285694,24.1881643 1.7334045,23.8201883 1.15758525,23.2331733 C-0.100578017,21.9505334 -0.33291974,20.0174998 0.459525884,18.4912412 C0.64159673,18.1343348 0.879569895,17.7991259 1.17354912,17.499427 C2.5833734,16.0621844 4.79426722,15.9380246 6.34719744,17.1254717 L16.7987509,6.47063987 C15.6339591,4.88749913 15.7557444,2.63360369 17.1655715,1.19636103 C17.4595468,0.896662131 17.7883601,0.654060354 18.1387763,0.468538272 C19.6355677,-0.339415712 21.5317436,-0.102560837 22.7899177,1.18008492 Z M17.9547931,47.9233052 C17.8092391,48.0716904 17.6828026,48.2321794 17.5754953,48.4015707 L17.5265098,48.4830151 C16.8908507,49.5878521 17.0392035,51.0331218 17.9707587,51.9827965 C18.9023139,52.9324718 20.3200127,53.0837123 21.4037681,52.4356843 L21.4836587,52.385749 C21.6498181,52.2763516 21.8072452,52.1474577 21.9527993,51.9990709 C23.059024,50.8713317 23.0608081,49.0447269 21.9567893,47.9192377 C20.8527705,46.7937456 19.0610178,46.7955643 17.9547931,47.9233052 Z M10.477055,27.8332749 L7.14875376,31.2262946 C8.20576501,32.6629446 8.20327983,34.6519537 7.14020953,36.0817992 L17.576356,46.7209302 C18.0943965,46.3206459 18.6872717,46.0678636 19.3000284,45.962525 L19.3004787,40.6626786 C18.5126535,40.5307148 17.756828,40.1552719 17.1496059,39.5362393 C15.8944528,38.2566733 15.6602188,36.3298167 16.445878,34.8052722 C16.5416885,34.6164845 16.6529004,34.4335715 16.7797529,34.2587645 L10.477055,27.8332749 Z M29.4630386,27.8007343 L23.1407727,34.2456844 C24.3055645,35.8288251 24.1837792,38.0827206 22.7739521,39.5199632 C22.4799768,39.8196621 22.1511635,40.0622639 21.8007473,40.247786 C21.3691523,40.4807534 20.9043551,40.6268491 20.4311504,40.6860613 L20.4311504,45.9343426 C21.1077865,46.0161299 21.7680124,46.2754494 22.3392221,46.7122197 L32.7907698,36.057388 C31.7337586,34.6207438 31.7362438,32.6317288 32.7993141,31.2018834 L29.4630386,27.8007343 Z M17.9547931,34.6396232 C17.8092391,34.7880083 17.6828026,34.9484974 17.5754953,35.1178944 L17.5265098,35.1993331 C16.8908507,36.3041735 17.0392035,37.7494409 17.9707587,38.699115 C18.9023139,39.6487891 20.3200127,39.8000332 21.4037681,39.1520046 L21.4836587,39.1020664 C21.6498181,38.9926719 21.8072452,38.8637763 21.9527993,38.7153911 C23.059024,37.5876502 23.0608081,35.7610477 21.9567893,34.6355556 C20.8527705,33.5100635 19.0610178,33.5118823 17.9547931,34.6396232 Z M1.96277358,31.6202334 C1.81721836,31.7686185 1.69078365,31.9291076 1.58347343,32.0985047 L1.53449085,32.1799433 C0.898826626,33.2847838 1.04718166,34.7300512 1.97873745,35.6797253 C2.91029381,36.6293994 4.32798915,36.7806434 5.41174346,36.1326148 L5.49163404,36.0826766 C5.65779916,35.9732821 5.81522055,35.8443865 5.96078032,35.6960014 C7.06699929,34.5682605 7.06878908,32.741658 5.96477029,31.6161658 C4.86075151,30.4906737 3.06899654,30.4924925 1.96277358,31.6202334 Z M34.5277801,31.1510735 L34.4478896,31.2010059 C34.2817244,31.3104063 34.1243031,31.4392961 33.9787433,31.587687 C32.8725243,32.7154221 32.8707345,34.5420304 33.9747533,35.6675225 C35.0787721,36.7930146 36.8705305,36.7911901 37.9767494,35.663455 C38.1223092,35.515064 38.24874,35.3545808 38.356053,35.1851837 L38.4050327,35.1037393 C39.0406975,33.9989046 38.8923448,32.5536372 37.9607896,31.6039573 C37.0292287,30.6542832 35.6115356,30.503045 34.5277801,31.1510735 Z M22.3631676,20.5627524 C20.9606023,21.6464996 19.0095358,21.6490331 17.6003015,20.5714628 L11.2778988,27.0162735 L17.576356,33.4372539 C18.9789213,32.3535067 20.9299878,32.3509732 22.3392221,33.4285435 L28.6610548,26.9831518 L22.3631676,20.5627524 Z M6.33437254,23.6102142 C6.16290076,23.7395341 5.98347755,23.852909 5.79805798,23.9503448 C5.33236587,24.1998731 4.82836721,24.3485255 4.31717748,24.3962731 L4.31717748,29.6184695 C5.03624802,29.6825919 5.74173101,29.9461824 6.34719744,30.4091537 L9.67507118,27.0156924 L6.33437254,23.6102142 Z M33.5923262,23.5908526 L30.2638824,26.9837329 L33.6051511,30.3897921 C33.747308,30.2825824 33.8949254,30.186332 34.046892,30.1010408 C34.0625611,30.0926732 34.0783728,30.0837826 34.0942301,30.0750083 L34.1398639,30.050504 C34.542714,29.834388 34.9742862,29.693801 35.414414,29.6287663 L35.414585,24.3573987 C34.7680333,24.2646754 34.1393566,24.0091387 33.5923262,23.5908526 Z M17.6003015,7.28778658 L7.14875376,17.9426184 C8.20576501,19.3792625 8.20327983,21.3682775 7.14020953,22.798123 L10.476485,26.199272 L16.7987509,19.7543219 C15.6339591,18.1711812 15.7557444,15.9172858 17.1655715,14.4800431 C17.4595468,14.1803442 17.7883601,13.9377424 18.1387763,13.7522203 C18.5068681,13.5535251 18.8991106,13.4180226 19.3001652,13.3457185 L19.3001652,8.03479086 C18.6968476,7.92864459 18.1127503,7.67962767 17.6003015,7.28778658 Z M22.3631676,7.27907616 C21.7866741,7.72452207 21.1175163,7.98731064 20.4314069,8.06750578 L20.4311276,13.3082271 C21.2931605,13.4053143 22.1294466,13.7904497 22.7899177,14.463767 C24.0455553,15.7438269 24.2794872,17.671683 23.4927336,19.1965006 C23.4847366,19.2116261 23.4767909,19.2270771 23.4687368,19.2424874 L23.4423802,19.2910078 C23.3593433,19.4458371 23.2649292,19.5963257 23.1597707,19.7412418 L29.4624686,26.1667314 L32.7907698,22.7737117 C31.7337586,21.3370617 31.7362438,19.3480526 32.7993141,17.9182071 L22.3631676,7.27907616 Z M1.96277358,18.3365514 C1.81721836,18.4849423 1.69078365,18.6454255 1.58347343,18.8148226 L1.53449085,18.8962671 C0.898826626,20.0011017 1.04718166,21.4463691 1.97873745,22.396049 C2.91029381,23.3457231 4.32798915,23.4969613 5.41174346,22.8489328 L5.49163404,22.7990004 C5.65779916,22.6896001 5.81522055,22.5607102 5.96078032,22.4123193 C7.06699929,21.2845842 7.06878908,19.4579759 5.96477029,18.3324838 C4.86075151,17.2069917 3.06899654,17.2088163 1.96277358,18.3365514 Z M34.5277801,17.8673915 L34.4478896,17.9173297 C34.2817244,18.0267242 34.1243031,18.1556198 33.9787433,18.3040049 C32.8725243,19.4317458 32.8707345,21.2583484 33.9747533,22.3838405 C35.0787721,23.5093326 36.8705305,23.5075138 37.9767494,22.3797729 C38.1223092,22.2313878 38.24874,22.0708987 38.356053,21.9015017 L38.4050327,21.820063 C39.0406975,20.7152225 38.8923448,19.2699551 37.9607896,18.3202811 C37.0292287,17.370607 35.6115356,17.2193629 34.5277801,17.8673915 Z M18.5357555,14.8480017 L18.4558649,14.8979399 C18.2897055,15.0073344 18.1322784,15.1362301 17.9867243,15.2846152 C16.8804996,16.4123561 16.8787155,18.2389586 17.9827343,19.3644507 C19.0867531,20.4899428 20.8785058,20.488124 21.9847305,19.3603831 C22.1302845,19.211998 22.256721,19.051509 22.3640283,18.8821119 L22.4130138,18.8006732 C23.0486729,17.6958328 22.9003201,16.2505654 21.9687649,15.3008913 C21.0372097,14.3512172 19.6195109,14.1999732 18.5357555,14.8480017 Z M18.5357555,1.56431965 L18.4558649,1.61425785 C18.2897055,1.72365236 18.1322784,1.852548 17.9867243,2.00093312 C16.8804996,3.12867402 16.8787155,4.95527654 17.9827343,6.08076865 C19.0867531,7.20626076 20.8785058,7.20444197 21.9847305,6.07670108 C22.1302845,5.92831595 22.256721,5.7678327 22.3640283,5.59843564 L22.4130138,5.51699118 C23.0486729,4.41215654 22.9003201,2.96688333 21.9687649,2.01720923 C21.0372097,1.06753513 19.6195109,0.916296895 18.5357555,1.56431965 Z" id="path-1"></path>
        <path d="M22.7899177,1.18008492 C24.0455553,2.46014487 24.2794872,4.38800095 23.4927336,5.9128243 C23.4847366,5.92794406 23.4767909,5.94339503 23.4687368,5.95880533 L23.4423802,6.00732568 C23.3593433,6.16215501 23.2649292,6.31264365 23.1597707,6.45756553 L33.6051511,17.10611 C33.747308,16.9989004 33.8949254,16.9026499 34.046892,16.8173587 C34.0625611,16.8089911 34.0783728,16.8001005 34.0942301,16.7913262 L34.1398639,16.766822 C35.6352303,15.9646149 37.526299,16.2030968 38.7819366,17.4831567 C40.0401107,18.7658025 40.2724466,20.6988593 39.4799761,22.2251237 C39.2979309,22.5819953 39.059952,22.9171983 38.7659768,23.2168972 C38.1409595,23.8540653 37.3585037,24.2331633 36.5457356,24.3543189 L36.5456786,29.6270753 C37.3641524,29.7455812 38.1528097,30.1254694 38.7819366,30.766833 C40.0401107,32.0494788 40.2724466,33.9825413 39.4799761,35.5088058 C39.2979309,35.8656715 39.059952,36.2008804 38.7659768,36.5005793 C37.3561496,37.9378219 35.1452564,38.0619817 33.5923262,36.8745347 L23.1407727,47.5293664 C24.3055645,49.1125043 24.1837792,51.3664009 22.7739521,52.8036459 C22.4799768,53.103343 22.1511635,53.3459454 21.8007473,53.5314663 C20.3039274,54.3394161 18.4077686,54.1025553 17.1496059,52.8199202 C15.8944528,51.5403542 15.6602188,49.6134953 16.445878,48.0889485 C16.5416885,47.9001607 16.6529004,47.7172535 16.7797529,47.5424408 L6.33437254,36.8938963 C6.16290076,37.0232161 5.98347755,37.1365911 5.79805798,37.2340211 C4.30283525,38.0352055 2.41273894,37.7964156 1.15758525,36.5168496 C-0.100578017,35.2342154 -0.33291974,33.3011819 0.459525884,31.7749175 C0.64159673,31.418011 0.879569895,31.082808 1.17354912,30.7831091 C1.74522279,30.2003186 2.44861219,29.8334292 3.18643901,29.682342 L3.18651026,24.3371654 C2.44285694,24.1881643 1.7334045,23.8201883 1.15758525,23.2331733 C-0.100578017,21.9505334 -0.33291974,20.0174998 0.459525884,18.4912412 C0.64159673,18.1343348 0.879569895,17.7991259 1.17354912,17.499427 C2.5833734,16.0621844 4.79426722,15.9380246 6.34719744,17.1254717 L16.7987509,6.47063987 C15.6339591,4.88749913 15.7557444,2.63360369 17.1655715,1.19636103 C17.4595468,0.896662131 17.7883601,0.654060354 18.1387763,0.468538272 C19.6355677,-0.339415712 21.5317436,-0.102560837 22.7899177,1.18008492 Z M17.9547931,47.9233052 C17.8092391,48.0716904 17.6828026,48.2321794 17.5754953,48.4015707 L17.5265098,48.4830151 C16.8908507,49.5878521 17.0392035,51.0331218 17.9707587,51.9827965 C18.9023139,52.9324718 20.3200127,53.0837123 21.4037681,52.4356843 L21.4836587,52.385749 C21.6498181,52.2763516 21.8072452,52.1474577 21.9527993,51.9990709 C23.059024,50.8713317 23.0608081,49.0447269 21.9567893,47.9192377 C20.8527705,46.7937456 19.0610178,46.7955643 17.9547931,47.9233052 Z M10.477055,27.8332749 L7.14875376,31.2262946 C8.20576501,32.6629446 8.20327983,34.6519537 7.14020953,36.0817992 L17.576356,46.7209302 C18.0943965,46.3206459 18.6872717,46.0678636 19.3000284,45.962525 L19.3004787,40.6626786 C18.5126535,40.5307148 17.756828,40.1552719 17.1496059,39.5362393 C15.8944528,38.2566733 15.6602188,36.3298167 16.445878,34.8052722 C16.5416885,34.6164845 16.6529004,34.4335715 16.7797529,34.2587645 L10.477055,27.8332749 Z M29.4630386,27.8007343 L23.1407727,34.2456844 C24.3055645,35.8288251 24.1837792,38.0827206 22.7739521,39.5199632 C22.4799768,39.8196621 22.1511635,40.0622639 21.8007473,40.247786 C21.3691523,40.4807534 20.9043551,40.6268491 20.4311504,40.6860613 L20.4311504,45.9343426 C21.1077865,46.0161299 21.7680124,46.2754494 22.3392221,46.7122197 L32.7907698,36.057388 C31.7337586,34.6207438 31.7362438,32.6317288 32.7993141,31.2018834 L29.4630386,27.8007343 Z M17.9547931,34.6396232 C17.8092391,34.7880083 17.6828026,34.9484974 17.5754953,35.1178944 L17.5265098,35.1993331 C16.8908507,36.3041735 17.0392035,37.7494409 17.9707587,38.699115 C18.9023139,39.6487891 20.3200127,39.8000332 21.4037681,39.1520046 L21.4836587,39.1020664 C21.6498181,38.9926719 21.8072452,38.8637763 21.9527993,38.7153911 C23.059024,37.5876502 23.0608081,35.7610477 21.9567893,34.6355556 C20.8527705,33.5100635 19.0610178,33.5118823 17.9547931,34.6396232 Z M1.96277358,31.6202334 C1.81721836,31.7686185 1.69078365,31.9291076 1.58347343,32.0985047 L1.53449085,32.1799433 C0.898826626,33.2847838 1.04718166,34.7300512 1.97873745,35.6797253 C2.91029381,36.6293994 4.32798915,36.7806434 5.41174346,36.1326148 L5.49163404,36.0826766 C5.65779916,35.9732821 5.81522055,35.8443865 5.96078032,35.6960014 C7.06699929,34.5682605 7.06878908,32.741658 5.96477029,31.6161658 C4.86075151,30.4906737 3.06899654,30.4924925 1.96277358,31.6202334 Z M34.5277801,31.1510735 L34.4478896,31.2010059 C34.2817244,31.3104063 34.1243031,31.4392961 33.9787433,31.587687 C32.8725243,32.7154221 32.8707345,34.5420304 33.9747533,35.6675225 C35.0787721,36.7930146 36.8705305,36.7911901 37.9767494,35.663455 C38.1223092,35.515064 38.24874,35.3545808 38.356053,35.1851837 L38.4050327,35.1037393 C39.0406975,33.9989046 38.8923448,32.5536372 37.9607896,31.6039573 C37.0292287,30.6542832 35.6115356,30.503045 34.5277801,31.1510735 Z M22.3631676,20.5627524 C20.9606023,21.6464996 19.0095358,21.6490331 17.6003015,20.5714628 L11.2778988,27.0162735 L17.576356,33.4372539 C18.9789213,32.3535067 20.9299878,32.3509732 22.3392221,33.4285435 L28.6610548,26.9831518 L22.3631676,20.5627524 Z M6.33437254,23.6102142 C6.16290076,23.7395341 5.98347755,23.852909 5.79805798,23.9503448 C5.33236587,24.1998731 4.82836721,24.3485255 4.31717748,24.3962731 L4.31717748,29.6184695 C5.03624802,29.6825919 5.74173101,29.9461824 6.34719744,30.4091537 L9.67507118,27.0156924 L6.33437254,23.6102142 Z M33.5923262,23.5908526 L30.2638824,26.9837329 L33.6051511,30.3897921 C33.747308,30.2825824 33.8949254,30.186332 34.046892,30.1010408 C34.0625611,30.0926732 34.0783728,30.0837826 34.0942301,30.0750083 L34.1398639,30.050504 C34.542714,29.834388 34.9742862,29.693801 35.414414,29.6287663 L35.414585,24.3573987 C34.7680333,24.2646754 34.1393566,24.0091387 33.5923262,23.5908526 Z M17.6003015,7.28778658 L7.14875376,17.9426184 C8.20576501,19.3792625 8.20327983,21.3682775 7.14020953,22.798123 L10.476485,26.199272 L16.7987509,19.7543219 C15.6339591,18.1711812 15.7557444,15.9172858 17.1655715,14.4800431 C17.4595468,14.1803442 17.7883601,13.9377424 18.1387763,13.7522203 C18.5068681,13.5535251 18.8991106,13.4180226 19.3001652,13.3457185 L19.3001652,8.03479086 C18.6968476,7.92864459 18.1127503,7.67962767 17.6003015,7.28778658 Z M22.3631676,7.27907616 C21.7866741,7.72452207 21.1175163,7.98731064 20.4314069,8.06750578 L20.4311276,13.3082271 C21.2931605,13.4053143 22.1294466,13.7904497 22.7899177,14.463767 C24.0455553,15.7438269 24.2794872,17.671683 23.4927336,19.1965006 C23.4847366,19.2116261 23.4767909,19.2270771 23.4687368,19.2424874 L23.4423802,19.2910078 C23.3593433,19.4458371 23.2649292,19.5963257 23.1597707,19.7412418 L29.4624686,26.1667314 L32.7907698,22.7737117 C31.7337586,21.3370617 31.7362438,19.3480526 32.7993141,17.9182071 L22.3631676,7.27907616 Z M1.96277358,18.3365514 C1.81721836,18.4849423 1.69078365,18.6454255 1.58347343,18.8148226 L1.53449085,18.8962671 C0.898826626,20.0011017 1.04718166,21.4463691 1.97873745,22.396049 C2.91029381,23.3457231 4.32798915,23.4969613 5.41174346,22.8489328 L5.49163404,22.7990004 C5.65779916,22.6896001 5.81522055,22.5607102 5.96078032,22.4123193 C7.06699929,21.2845842 7.06878908,19.4579759 5.96477029,18.3324838 C4.86075151,17.2069917 3.06899654,17.2088163 1.96277358,18.3365514 Z M34.5277801,17.8673915 L34.4478896,17.9173297 C34.2817244,18.0267242 34.1243031,18.1556198 33.9787433,18.3040049 C32.8725243,19.4317458 32.8707345,21.2583484 33.9747533,22.3838405 C35.0787721,23.5093326 36.8705305,23.5075138 37.9767494,22.3797729 C38.1223092,22.2313878 38.24874,22.0708987 38.356053,21.9015017 L38.4050327,21.820063 C39.0406975,20.7152225 38.8923448,19.2699551 37.9607896,18.3202811 C37.0292287,17.370607 35.6115356,17.2193629 34.5277801,17.8673915 Z M18.5357555,14.8480017 L18.4558649,14.8979399 C18.2897055,15.0073344 18.1322784,15.1362301 17.9867243,15.2846152 C16.8804996,16.4123561 16.8787155,18.2389586 17.9827343,19.3644507 C19.0867531,20.4899428 20.8785058,20.488124 21.9847305,19.3603831 C22.1302845,19.211998 22.256721,19.051509 22.3640283,18.8821119 L22.4130138,18.8006732 C23.0486729,17.6958328 22.9003201,16.2505654 21.9687649,15.3008913 C21.0372097,14.3512172 19.6195109,14.1999732 18.5357555,14.8480017 Z M18.5357555,1.56431965 L18.4558649,1.61425785 C18.2897055,1.72365236 18.1322784,1.852548 17.9867243,2.00093312 C16.8804996,3.12867402 16.8787155,4.95527654 17.9827343,6.08076865 C19.0867531,7.20626076 20.8785058,7.20444197 21.9847305,6.07670108 C22.1302845,5.92831595 22.256721,5.7678327 22.3640283,5.59843564 L22.4130138,5.51699118 C23.0486729,4.41215654 22.9003201,2.96688333 21.9687649,2.01720923 C21.0372097,1.06753513 19.6195109,0.916296895 18.5357555,1.56431965 Z" id="path-3"></path>
    </defs>
    <g id="logo" stroke="none" stroke-width="1" fill="none" fill-rule="evenodd">
        <g id="Group" transform="translate(1.000000, 1.000000)">
            <path d="M63.9838175,38.4945471 C66.4410342,38.4945471 68.4952154,37.775146 70.146361,36.3363439 C71.7975067,34.8975419 72.5970772,33.1104325 72.5450726,30.9750158 L72.5450726,30.9750158 L72.4865674,30.8578283 L67.3381134,30.8578283 C67.3381134,31.8474116 67.0325864,32.6384273 66.4215325,33.2308752 C65.8104786,33.8233231 64.997907,34.1195471 63.9838175,34.1195471 C62.4496822,34.1195471 61.3770876,33.5433752 60.7660337,32.3910314 C60.1549798,31.2386877 59.8494529,29.7185054 59.8494529,27.8304846 L59.8494529,27.8304846 L59.8494529,27.2445471 C59.8494529,25.3955887 60.1809821,23.8851721 60.8440406,22.7132971 C61.5070991,21.5414221 62.6446994,20.9554846 64.2568416,20.9554846 C64.7898886,20.9554846 65.2644305,21.0368648 65.6804672,21.1996252 C66.0965039,21.3623856 66.4475348,21.5674637 66.73356,21.8148596 L66.73356,21.8148596 L67.6696426,25.1156408 L72.2915502,25.1156408 L72.2135433,19.4711096 C71.3164642,18.5466304 70.191865,17.8304846 68.8397458,17.3226721 C67.4876265,16.8148596 65.9599918,16.5609533 64.2568416,16.5609533 C61.0195561,16.5609533 58.5265862,17.5635575 56.777932,19.5687658 C55.0292778,21.5739741 54.1549507,24.1325679 54.1549507,27.2445471 L54.1549507,27.2445471 L54.1549507,27.8304846 C54.1549507,30.9554846 55.0065258,33.5140783 56.709676,35.5062658 C58.4128262,37.4984533 60.83754,38.4945471 63.9838175,38.4945471 Z M83.6663575,38.4945471 C86.7606304,38.4945471 89.1885945,37.4951981 90.9502499,35.4965002 C92.7119052,33.4978023 93.5927329,30.9099116 93.5927329,27.7328283 L93.5927329,27.7328283 L93.5927329,27.3226721 C93.5927329,24.1586096 92.7119052,21.5739741 90.9502499,19.5687658 C89.1885945,17.5635575 86.7476292,16.5609533 83.627354,16.5609533 C80.52008,16.5609533 78.0856153,17.5668127 76.3239599,19.5785314 C74.5623045,21.5902502 73.6814768,24.1716304 73.6814768,27.3226721 L73.6814768,27.3226721 L73.6814768,27.7328283 C73.6814768,30.9099116 74.5623045,33.4978023 76.3239599,35.4965002 C78.0856153,37.4951981 80.5330811,38.4945471 83.6663575,38.4945471 Z M83.6663575,34.1195471 C82.1582244,34.1195471 81.0661281,33.5368648 80.3900685,32.3715002 C79.7140089,31.2061356 79.3759791,29.6599116 79.3759791,27.7328283 L79.3759791,27.7328283 L79.3759791,27.3226721 C79.3759791,25.4476721 79.7140089,23.9177241 80.3900685,22.7328283 C81.0661281,21.5479325 82.1452233,20.9554846 83.627354,20.9554846 C85.1094847,20.9554846 86.1950805,21.5479325 86.8841412,22.7328283 C87.573202,23.9177241 87.9177324,25.4476721 87.9177324,27.3226721 L87.9177324,27.3226721 L87.9177324,27.7328283 C87.9177324,29.6468908 87.5764523,31.1898596 86.8938921,32.3617346 C86.2113319,33.5336096 85.135487,34.1195471 83.6663575,34.1195471 Z M105.045547,38.0843908 L105.045547,34.6664221 L102.744344,34.0804846 L102.744344,22.7523596 C103.14738,22.1924637 103.647924,21.759521 104.245977,21.4535314 C104.844029,21.1475419 105.520089,20.9945471 106.274155,20.9945471 C107.431257,20.9945471 108.295834,21.290771 108.867884,21.8832189 C109.439935,22.4756669 109.72596,23.4815262 109.72596,24.9007971 L109.72596,24.9007971 L109.72596,34.0804846 L107.288245,34.6664221 L107.288245,38.0843908 L118.170205,38.0843908 L118.170205,34.6664221 L115.439964,34.0804846 L115.439964,24.8812658 C115.439964,22.0166825 114.841911,19.9138179 113.645806,18.5726721 C112.4497,17.2315262 110.785553,16.5609533 108.653365,16.5609533 C107.379253,16.5609533 106.228651,16.8604325 105.201561,17.4593908 C104.17447,18.0583491 103.309894,18.8981929 102.607832,19.9789221 L102.607832,19.9789221 L102.35431,16.9515783 L94.0270753,16.9515783 L94.0270753,20.3890783 L97.0498418,20.9750158 L97.0498418,34.0804846 L94.3196011,34.6664221 L94.3196011,38.0843908 L105.045547,38.0843908 Z M128.257898,38.4945471 C130.715115,38.4945471 132.769296,37.775146 134.420442,36.3363439 C136.071587,34.8975419 136.871158,33.1104325 136.819153,30.9750158 L136.819153,30.9750158 L136.760648,30.8578283 L131.612194,30.8578283 C131.612194,31.8474116 131.306667,32.6384273 130.695613,33.2308752 C130.084559,33.8233231 129.271988,34.1195471 128.257898,34.1195471 C126.723763,34.1195471 125.651168,33.5433752 125.040114,32.3910314 C124.429061,31.2386877 124.123534,29.7185054 124.123534,27.8304846 L124.123534,27.8304846 L124.123534,27.2445471 C124.123534,25.3955887 124.455063,23.8851721 125.118121,22.7132971 C125.78118,21.5414221 126.91878,20.9554846 128.530922,20.9554846 C129.063969,20.9554846 129.538511,21.0368648 129.954548,21.1996252 C130.370585,21.3623856 130.721616,21.5674637 131.007641,21.8148596 L131.007641,21.8148596 L131.943723,25.1156408 L136.565631,25.1156408 L136.487624,19.4711096 C135.590545,18.5466304 134.465946,17.8304846 133.113827,17.3226721 C131.761707,16.8148596 130.234073,16.5609533 128.530922,16.5609533 C125.293637,16.5609533 122.800667,17.5635575 121.052013,19.5687658 C119.303359,21.5739741 118.429031,24.1325679 118.429031,27.2445471 L118.429031,27.2445471 L118.429031,27.8304846 C118.429031,30.9554846 119.280607,33.5140783 120.983757,35.5062658 C122.686907,37.4984533 125.111621,38.4945471 128.257898,38.4945471 Z M148.057449,38.4945471 C149.760599,38.4945471 151.304485,38.2601721 152.689107,37.7914221 C154.073729,37.3226721 155.201579,36.743245 156.072655,36.0531408 L156.072655,36.0531408 L154.53202,32.5375158 C153.543932,33.0843908 152.633852,33.4847814 151.801779,33.7386877 C150.969705,33.9925939 149.923113,34.1195471 148.662002,34.1195471 C147.244877,34.1195471 146.123528,33.6703283 145.297955,32.7718908 C144.472382,31.8734533 144.007591,30.72762 143.903582,29.3343908 L143.903582,29.3343908 L143.942586,29.2172033 L156.540697,29.2172033 L156.540697,26.1117346 C156.540697,23.1820471 155.754127,20.8578283 154.180989,19.1390783 C152.60785,17.4203283 150.397655,16.5608289 147.550404,16.5608289 C144.651148,16.5479325 142.340194,17.5570471 140.617542,19.5882971 C138.89489,21.6195471 138.033564,24.2041825 138.033564,27.3422033 L138.033564,27.3422033 L138.033564,28.1234533 C138.033564,31.1312658 138.943645,33.6117346 140.763805,35.5648596 C142.583966,37.5179846 145.01518,38.4945471 148.057449,38.4945471 Z M150.963205,25.4476721 L143.981589,25.4476721 L143.923084,25.3500158 C144.066096,24.0349116 144.44313,22.9737137 145.054184,22.1664221 C145.665238,21.3591304 146.497311,20.9554846 147.550404,20.9554846 C148.694505,20.9554846 149.54933,21.3168127 150.11488,22.0394689 C150.68043,22.7621252 150.963205,23.7289221 150.963205,24.9398596 L150.963205,24.9398596 L150.963205,25.4476721 Z M168.832085,46.2093908 L168.832085,42.7718908 L166.082342,42.1859533 L166.082342,36.0726721 C166.693396,36.8669429 167.427961,37.4691564 168.286037,37.8793127 C169.144112,38.2894689 170.125699,38.4945471 171.230796,38.4945471 C173.818024,38.4945471 175.833202,37.5440262 177.276329,35.6429846 C178.719457,33.7419429 179.44102,31.2289221 179.44102,28.1039221 L179.44102,28.1039221 L179.44102,27.6937658 C179.44102,24.3604325 178.719457,21.6716304 177.276329,19.6273596 C175.833202,17.5830887 173.805023,16.5609533 171.191793,16.5609533 C170.034691,16.5609533 169.020601,16.8083491 168.149525,17.3031408 C167.278448,17.7979325 166.530882,18.5010575 165.906827,19.4125158 L165.906827,19.4125158 L165.633803,16.9515783 L157.365073,16.9515783 L157.365073,20.3890783 L160.407342,20.9750158 L160.407342,42.1859533 L157.657599,42.7718908 L157.657599,46.2093908 L168.832085,46.2093908 Z M169.748666,34.1195471 C168.864588,34.1195471 168.120272,33.9632971 167.515719,33.6507971 C166.911165,33.3382971 166.433373,32.8825679 166.082342,32.2836096 L166.082342,32.2836096 L166.082342,23.0257971 C166.433373,22.3747554 166.911165,21.8734533 167.515719,21.5218908 C168.120272,21.1703283 168.851586,20.9945471 169.709662,20.9945471 C171.074783,20.9945471 172.088872,21.6130366 172.75193,22.8500158 C173.414989,24.086995 173.746518,25.7015783 173.746518,27.6937658 L173.746518,27.6937658 L173.746518,28.1039221 C173.746518,29.9528804 173.42474,31.4177241 172.781183,32.4984533 C172.137626,33.5791825 171.126787,34.1195471 169.748666,34.1195471 Z M189.392202,38.4945471 C190.120266,38.4945471 190.796326,38.4457189 191.420381,38.3480627 C192.044436,38.2504064 192.674992,38.1039221 193.312048,37.9086096 L193.312048,37.9086096 L192.824505,33.7875158 C192.460473,33.8656408 192.132194,33.9209794 191.839668,33.9535314 C191.547142,33.9860835 191.205862,34.0023596 190.815828,34.0023596 C190.243777,34.0023596 189.788737,33.8265783 189.450707,33.4750158 C189.112677,33.1234533 188.943663,32.5375158 188.943663,31.7172033 L188.943663,31.7172033 L188.943663,20.9554846 L192.648989,20.9554846 L192.648989,16.9515783 L188.943663,16.9515783 L188.943663,11.7757971 L183.268662,11.7757971 L183.268662,16.9515783 L180.167889,16.9515783 L180.167889,20.9554846 L183.268662,20.9554846 L183.268662,31.7367346 C183.268662,34.0804846 183.798459,35.7927241 184.858052,36.8734533 C185.917646,37.9541825 187.429029,38.4945471 189.392202,38.4945471 Z M203.107216,38.4945471 C205.772451,38.4945471 207.92089,37.8923335 209.552534,36.6879064 C211.184178,35.4834794 212,33.930745 212,32.0297033 C212,30.25887 211.369444,28.868896 210.108333,27.8597814 C208.847222,26.8506669 206.910051,26.0856929 204.296821,25.5648596 C202.619673,25.2393387 201.501574,24.8649898 200.942525,24.4418127 C200.383475,24.0186356 200.103951,23.4880366 200.103951,22.8500158 C200.103951,22.1729325 200.396477,21.6097814 200.981528,21.1605627 C201.56658,20.7113439 202.35965,20.4867346 203.360738,20.4867346 C204.075801,20.4867346 204.729109,20.5909012 205.320661,20.7992346 C205.912213,21.0075679 206.403006,21.2679846 206.793041,21.5804846 L206.793041,21.5804846 L207.397594,24.2172033 L211.219931,24.2172033 L211.161426,18.9632971 C210.329353,18.2731929 209.182001,17.7067866 207.719372,17.2640783 C206.256743,16.82137 204.706357,16.6000158 203.068212,16.6000158 C200.376975,16.6000158 198.303292,17.2412919 196.847164,18.5238439 C195.391035,19.806396 194.662971,21.3330887 194.662971,23.1039221 C194.662971,24.8226721 195.296777,26.1800939 196.564389,27.1761877 C197.832,28.1722814 199.707416,28.9242346 202.190635,29.4320471 C203.828779,29.7836096 204.953379,30.1872554 205.564432,30.6429846 C206.175486,31.0987137 206.481013,31.6390783 206.481013,32.2640783 C206.481013,32.9802241 206.178737,33.5466304 205.574183,33.9632971 C204.96963,34.3799637 204.088802,34.5882971 202.9317,34.5882971 C202.294644,34.5882971 201.68359,34.5199377 201.098539,34.3832189 C200.513487,34.2465002 200.051946,34.0349116 199.713916,33.7484533 L199.713916,33.7484533 L198.933848,30.9945471 L194.955497,30.9945471 L195.014002,35.7406408 C196.067095,36.6260575 197.272951,37.306396 198.631571,37.7816564 C199.990191,38.2569169 201.482072,38.4945471 203.107216,38.4945471 Z" id="concepts" fill="#FFFFFF" fill-rule="nonzero"></path>
            <g id="Logo">
                <path d="M22.7899177,1.18008475 C24.0455553,2.46014469 24.2794872,4.38800076 23.4927336,5.91282409 C23.4847366,5.92794385 23.4767909,5.94339482 23.4687368,5.95880512 L23.4423802,6.00732547 C23.3593433,6.1621548 23.2649292,6.31264344 23.1597707,6.45756531 L33.6051511,17.1061097 C33.747308,16.9989001 33.8949254,16.9026496 34.046892,16.8173584 C34.0625611,16.8089908 34.0783728,16.8001003 34.0942301,16.7913259 C34.109506,16.7829235 34.1246679,16.7748174 34.1398639,16.7668217 C35.6352303,15.9646146 37.526299,16.2030965 38.7819366,17.4831564 C40.0401107,18.7658022 40.2724466,20.6988589 39.4799761,22.2251234 C39.2979309,22.5819949 39.059952,22.917198 38.7659768,23.2168969 C38.1409595,23.854065 37.3585037,24.233163 36.5457356,24.3543186 L36.5456786,29.6270749 C37.3641524,29.7455808 38.1528097,30.125469 38.7819366,30.7668326 C40.0401107,32.0494784 40.2724466,33.9825409 39.4799761,35.5088053 C39.2979309,35.8656711 39.059952,36.2008799 38.7659768,36.5005788 C37.3561496,37.9378215 35.1452564,38.0619813 33.5923262,36.8745342 L23.1407727,47.5293659 C24.3055645,49.1125066 24.1837792,51.3664021 22.7739521,52.8036447 C22.4799768,53.1033436 22.1511635,53.3459454 21.8007473,53.5314675 C20.3039274,54.3394156 18.4077686,54.1025549 17.1496059,52.8199208 C15.8944528,51.5403548 15.6602188,49.6134924 16.445878,48.088948 C16.5416885,47.9001602 16.6529004,47.717253 16.7797529,47.5424403 L6.33437254,36.8938959 C6.16290076,37.0232157 5.98347755,37.1365906 5.79805798,37.2340206 C4.30283525,38.035205 2.41273894,37.7964151 1.15758525,36.5168491 C-0.100578017,35.234215 -0.33291974,33.3011815 0.459525884,31.7749171 C0.64159673,31.4180106 0.879569895,31.0828076 1.17354912,30.7831087 C1.74522279,30.2003182 2.44861219,29.8334288 3.18643901,29.6823417 L3.18651026,24.337165 C2.44285694,24.188164 1.7334045,23.8201879 1.15758525,23.233173 C-0.100578017,21.950533 -0.33291974,20.0174995 0.459525884,18.4912409 C0.64159673,18.1343345 0.879569895,17.7991256 1.17354912,17.4994267 C2.5833734,16.0621841 4.79426722,15.9380243 6.34719744,17.1254714 L16.7987509,6.47063966 C15.6339591,4.88749892 15.7557444,2.6336035 17.1655715,1.19636086 C17.4595468,0.896661959 17.7883601,0.654060185 18.1387763,0.468538278 C19.6355677,-0.339415699 21.5317436,-0.102560826 22.7899177,1.18008475 Z M17.9547931,47.9233047 C17.8092391,48.0716898 17.6828026,48.2321789 17.5754953,48.4015701 L17.5265098,48.4830146 C16.8908507,49.5878492 17.0392035,51.0331224 17.9707587,51.9827965 C18.9023139,52.9324706 20.3200127,53.0837147 21.4037681,52.4356861 L21.4836587,52.3857479 C21.6498181,52.2763534 21.8072452,52.1474578 21.9527993,51.9990726 C23.059024,50.8713317 23.0608081,49.0447292 21.9567893,47.9192371 C20.8527705,46.793745 19.0610178,46.7955638 17.9547931,47.9233047 Z M10.477055,27.8332745 L7.14875376,31.2262942 C8.20576501,32.6629442 8.20327983,34.6519533 7.14020953,36.0817988 L17.576356,46.7209296 C18.0943965,46.3206454 18.6872717,46.0678631 19.3000284,45.9625245 L19.3004787,40.6626781 C18.5126535,40.5307144 17.756828,40.1552714 17.1496059,39.5362389 C15.8944528,38.2566728 15.6602188,36.3298162 16.445878,34.8052718 C16.5416885,34.616484 16.6529004,34.433571 16.7797529,34.2587641 L10.477055,27.8332745 Z M29.4630386,27.8007339 L23.1407727,34.2456839 C24.3055645,35.8288247 24.1837792,38.0827201 22.7739521,39.5199627 C22.4799768,39.8196616 22.1511635,40.0622634 21.8007473,40.2477855 C21.3691523,40.4807529 20.9043551,40.6268486 20.4311504,40.6860609 L20.4311504,45.934342 C21.1077865,46.0161293 21.7680124,46.2754489 22.3392221,46.7122192 L32.7907698,36.0573875 C31.7337586,34.6207434 31.7362438,32.6317284 32.7993141,31.201883 L29.4630386,27.8007339 Z M17.9547931,34.6396227 C17.8092391,34.7880079 17.6828026,34.9484969 17.5754953,35.117894 L17.5265098,35.1993326 C16.8908507,36.3041731 17.0392035,37.7494405 17.9707587,38.6991146 C18.9023139,39.6487886 20.3200127,39.8000327 21.4037681,39.1520041 L21.4836587,39.1020659 C21.6498181,38.9926714 21.8072452,38.8637758 21.9527993,38.7153907 C23.059024,37.5876498 23.0608081,35.7610473 21.9567893,34.6355552 C20.8527705,33.5100631 19.0610178,33.5118819 17.9547931,34.6396227 Z M1.96277358,31.620233 C1.81721836,31.7686181 1.69078365,31.9291072 1.58347343,32.0985042 L1.53449085,32.1799429 C0.898826626,33.2847833 1.04718166,34.7300507 1.97873745,35.6797248 C2.91029381,36.6293989 4.32798915,36.780643 5.41174631,36.1326144 L5.49163518,36.0826762 C5.65779973,35.9732817 5.81522055,35.8443861 5.96078032,35.6960009 C7.06699929,34.56826 7.06878908,32.7416575 5.96477029,31.6161654 C4.86075151,30.4906733 3.06899654,30.4924921 1.96277358,31.620233 Z M34.5277801,31.1510731 L34.4478896,31.2010055 C34.2817244,31.3104058 34.1243031,31.4392957 33.9787433,31.5876866 C32.8725243,32.7154217 32.8707345,34.54203 33.9747533,35.6675221 C35.0787721,36.7930142 36.8705305,36.7911896 37.9767494,35.6634545 C38.1223092,35.5150636 38.24874,35.3545803 38.356053,35.1851833 L38.4050327,35.1037388 C39.0406975,33.9989042 38.8923448,32.5536368 37.9607896,31.6039569 C37.0292287,30.6542828 35.6115356,30.5030446 34.5277801,31.1510731 Z M22.3631676,20.5627521 C20.9606023,21.6464993 19.0095358,21.6490328 17.6003015,20.5714625 L11.2778988,27.0162731 L17.576356,33.4372535 C18.9789213,32.3535063 20.9299878,32.3509728 22.3392221,33.4285431 L28.6610548,26.9831514 L22.3631676,20.5627521 Z M6.33437254,23.6102139 C6.16290076,23.7395337 5.98347755,23.8529086 5.79805798,23.9503445 C5.33236587,24.1998728 4.82836721,24.3485252 4.31717748,24.3962727 L4.31717748,29.6184691 C5.03624802,29.6825915 5.74173101,29.946182 6.34719744,30.4091533 L9.67507118,27.015692 L6.33437254,23.6102139 Z M33.5923262,23.5908522 L30.2638824,26.9837325 L33.6051511,30.3897917 C33.747308,30.282582 33.8949254,30.1863316 34.046892,30.1010404 C34.0625611,30.0926728 34.0783728,30.0837822 34.0942301,30.0750079 C34.109506,30.0665996 34.1246679,30.0584993 34.1398639,30.0505036 C34.542714,29.8343876 34.9742862,29.6938006 35.414414,29.6287659 L35.414585,24.3573983 C34.7680333,24.264675 34.1393566,24.0091384 33.5923262,23.5908522 Z M17.6003015,7.28778636 L7.14875376,17.9426181 C8.20576501,19.3792622 8.20327983,21.3682771 7.14020953,22.7981226 L10.476485,26.1992717 L16.7987509,19.7543216 C15.6339591,18.1711809 15.7557444,15.9172855 17.1655715,14.4800428 C17.4595468,14.1803439 17.7883601,13.9377422 18.1387763,13.7522201 C18.5068681,13.5535249 18.8991106,13.4180223 19.3001652,13.3457183 L19.3001652,8.03479063 C18.6968476,7.92864437 18.1127503,7.67962745 17.6003015,7.28778636 Z M22.3631676,7.27907594 C21.7866741,7.72452185 21.1175163,7.98731041 20.4314069,8.06750555 L20.4311276,13.3082269 C21.2931605,13.4053141 22.1294466,13.7904495 22.7899177,14.4637667 C24.0455553,15.7438267 24.2794872,17.6716827 23.4927336,19.1965002 C23.4847366,19.2116258 23.4767909,19.2270768 23.4687368,19.2424871 L23.4423802,19.2910074 C23.3593433,19.4458368 23.2649292,19.5963254 23.1597707,19.7412415 L29.4624686,26.1667311 L32.7907698,22.7737114 C31.7337586,21.3370614 31.7362438,19.3480523 32.7993141,17.9182068 L22.3631676,7.27907594 Z M1.96277358,18.336551 C1.81721836,18.484942 1.69078365,18.6454252 1.58347343,18.8148223 L1.53449085,18.8962667 C0.898826626,20.0011014 1.04718166,21.4463688 1.97873745,22.3960487 C2.91029381,23.3457228 4.32798915,23.496961 5.41174631,22.8489324 L5.49163518,22.799 C5.65779973,22.6895997 5.81522055,22.5607099 5.96078032,22.412319 C7.06699929,21.2845839 7.06878908,19.4579756 5.96477029,18.3324835 C4.86075151,17.2069914 3.06899654,17.208816 1.96277358,18.336551 Z M34.5277801,17.8673912 L34.4478896,17.9173294 C34.2817244,18.0267239 34.1243031,18.1556195 33.9787433,18.3040046 C32.8725243,19.4317455 32.8707345,21.258348 33.9747533,22.3838401 C35.0787721,23.5093322 36.8705305,23.5075134 37.9767494,22.3797726 C38.1223092,22.2313874 38.24874,22.0708984 38.356053,21.9015013 L38.4050327,21.8200627 C39.0406975,20.7152222 38.8923448,19.2699548 37.9607896,18.3202807 C37.0292287,17.3706067 35.6115356,17.2193626 34.5277801,17.8673912 Z M18.5357555,14.8480014 L18.4558649,14.8979396 C18.2897055,15.0073342 18.1322784,15.1362298 17.9867243,15.2846149 C16.8804996,16.4123558 16.8787155,18.2389583 17.9827343,19.3644504 C19.0867531,20.4899425 20.8785058,20.4881237 21.9847305,19.3603828 C22.1302845,19.2119977 22.256721,19.0515086 22.3640283,18.8821116 L22.4130138,18.8006729 C23.0486729,17.6958325 22.9003201,16.2505651 21.9687649,15.300891 C21.0372097,14.3512169 19.6195109,14.1999729 18.5357555,14.8480014 Z M18.5357555,1.56431948 L18.4558649,1.61425767 C18.2897055,1.72365219 18.1322784,1.85254782 17.9867243,2.00093294 C16.8804996,3.12867383 16.8787155,4.95527634 17.9827343,6.08076844 C19.0867531,7.20626054 20.8785058,7.20444175 21.9847305,6.07670086 C22.1302845,5.92831574 22.256721,5.76783249 22.3640283,5.59843543 L22.4130138,5.51699097 C23.0486729,4.41215634 22.9003201,2.96688314 21.9687649,2.01720905 C21.0372097,1.06753496 19.6195109,0.916296723 18.5357555,1.56431948 Z" id="Stroke-1" stroke="#FFFFFF"></path>
                <g id="Group-8">
                    <g id="Group-5">
                        <mask id="mask-2" fill="white">
                            <use xlink:href="#path-1"></use>
                        </mask>
                        <g id="Clip-4"></g>
                        <path d="M22.7899177,1.18008492 C24.0455553,2.46014487 24.2794872,4.38800095 23.4927336,5.9128243 C23.4847366,5.92794406 23.4767909,5.94339503 23.4687368,5.95880533 L23.4423802,6.00732568 C23.3593433,6.16215501 23.2649292,6.31264365 23.1597707,6.45756553 L33.6051511,17.10611 C33.747308,16.9989004 33.8949254,16.9026499 34.046892,16.8173587 C34.0625611,16.8089911 34.0783728,16.8001005 34.0942301,16.7913262 C34.109506,16.7829238 34.1246679,16.7748177 34.1398639,16.766822 C35.6352303,15.9646149 37.526299,16.2030968 38.7819366,17.4831567 C40.0401107,18.7658025 40.2724466,20.6988593 39.4799761,22.2251237 C39.2979309,22.5819953 39.059952,22.9171983 38.7659768,23.2168972 C38.1409595,23.8540653 37.3585037,24.2331633 36.5457356,24.3543189 L36.5456786,29.6270753 C37.3641524,29.7455812 38.1528097,30.1254694 38.7819366,30.766833 C40.0401107,32.0494788 40.2724466,33.9825413 39.4799761,35.5088058 C39.2979309,35.8656715 39.059952,36.2008804 38.7659768,36.5005793 C37.3561496,37.9378219 35.1452564,38.0619817 33.5923262,36.8745347 L23.1407727,47.5293664 C24.3055645,49.1125072 24.1837792,51.3664026 22.7739521,52.8036453 C22.4799768,53.1033442 22.1511635,53.345946 21.8007473,53.531468 C20.3039274,54.3394162 18.4077686,54.1025555 17.1496059,52.8199214 C15.8944528,51.5403554 15.6602188,49.6134929 16.445878,48.0889485 C16.5416885,47.9001607 16.6529004,47.7172535 16.7797529,47.5424408 L6.33437254,36.8938963 C6.16290076,37.0232161 5.98347755,37.1365911 5.79805798,37.2340211 C4.30283525,38.0352055 2.41273894,37.7964156 1.15758525,36.5168496 C-0.100578017,35.2342154 -0.33291974,33.3011819 0.459525884,31.7749175 C0.64159673,31.418011 0.879569895,31.082808 1.17354912,30.7831091 C1.74522279,30.2003186 2.44861219,29.8334292 3.18643901,29.682342 L3.18651026,24.3371654 C2.44285694,24.1881643 1.7334045,23.8201883 1.15758525,23.2331733 C-0.100578017,21.9505334 -0.33291974,20.0174998 0.459525884,18.4912412 C0.64159673,18.1343348 0.879569895,17.7991259 1.17354912,17.499427 C2.5833734,16.0621844 4.79426722,15.9380246 6.34719744,17.1254717 L16.7987509,6.47063987 C15.6339591,4.88749913 15.7557444,2.63360369 17.1655715,1.19636103 C17.4595468,0.896662131 17.7883601,0.654060354 18.1387763,0.468538446 C19.6355677,-0.339415537 21.5317436,-0.102560663 22.7899177,1.18008492 Z M17.9547931,47.9233052 C17.8092391,48.0716904 17.6828026,48.2321794 17.5754953,48.4015707 L17.5265098,48.4830151 C16.8908507,49.5878498 17.0392035,51.033123 17.9707587,51.9827971 C18.9023139,52.9324712 20.3200127,53.0837152 21.4037681,52.4356867 L21.4836587,52.3857485 C21.6498181,52.276354 21.8072452,52.1474583 21.9527993,51.9990732 C23.059024,50.8713323 23.0608081,49.0447298 21.9567893,47.9192377 C20.8527705,46.7937456 19.0610178,46.7955643 17.9547931,47.9233052 Z M10.477055,27.8332749 L7.14875376,31.2262946 C8.20576501,32.6629446 8.20327983,34.6519537 7.14020953,36.0817992 L17.576356,46.7209302 C18.0943965,46.3206459 18.6872717,46.0678636 19.3000284,45.962525 L19.3004787,40.6626786 C18.5126535,40.5307148 17.756828,40.1552719 17.1496059,39.5362393 C15.8944528,38.2566733 15.6602188,36.3298167 16.445878,34.8052722 C16.5416885,34.6164845 16.6529004,34.4335715 16.7797529,34.2587645 L10.477055,27.8332749 Z M29.4630386,27.8007343 L23.1407727,34.2456844 C24.3055645,35.8288251 24.1837792,38.0827206 22.7739521,39.5199632 C22.4799768,39.8196621 22.1511635,40.0622639 21.8007473,40.247786 C21.3691523,40.4807534 20.9043551,40.6268491 20.4311504,40.6860613 L20.4311504,45.9343426 C21.1077865,46.0161299 21.7680124,46.2754494 22.3392221,46.7122197 L32.7907698,36.057388 C31.7337586,34.6207438 31.7362438,32.6317288 32.7993141,31.2018834 L29.4630386,27.8007343 Z M17.9547931,34.6396232 C17.8092391,34.7880083 17.6828026,34.9484974 17.5754953,35.1178944 L17.5265098,35.1993331 C16.8908507,36.3041735 17.0392035,37.7494409 17.9707587,38.699115 C18.9023139,39.6487891 20.3200127,39.8000332 21.4037681,39.1520046 L21.4836587,39.1020664 C21.6498181,38.9926719 21.8072452,38.8637763 21.9527993,38.7153911 C23.059024,37.5876502 23.0608081,35.7610477 21.9567893,34.6355556 C20.8527705,33.5100635 19.0610178,33.5118823 17.9547931,34.6396232 Z M1.96277358,31.6202334 C1.81721836,31.7686185 1.69078365,31.9291076 1.58347343,32.0985047 L1.53449085,32.1799433 C0.898826626,33.2847838 1.04718166,34.7300512 1.97873745,35.6797253 C2.91029381,36.6293994 4.32798915,36.7806434 5.41174631,36.1326148 L5.49163518,36.0826766 C5.65779973,35.9732821 5.81522055,35.8443865 5.96078032,35.6960014 C7.06699929,34.5682605 7.06878908,32.741658 5.96477029,31.6161658 C4.86075151,30.4906737 3.06899654,30.4924925 1.96277358,31.6202334 Z M34.5277801,31.1510735 L34.4478896,31.2010059 C34.2817244,31.3104063 34.1243031,31.4392961 33.9787433,31.587687 C32.8725243,32.7154221 32.8707345,34.5420304 33.9747533,35.6675225 C35.0787721,36.7930146 36.8705305,36.7911901 37.9767494,35.663455 C38.1223092,35.515064 38.24874,35.3545808 38.356053,35.1851837 L38.4050327,35.1037393 C39.0406975,33.9989046 38.8923448,32.5536372 37.9607896,31.6039573 C37.0292287,30.6542832 35.6115356,30.503045 34.5277801,31.1510735 Z M22.3631676,20.5627524 C20.9606023,21.6464996 19.0095358,21.6490331 17.6003015,20.5714628 L11.2778988,27.0162735 L17.576356,33.4372539 C18.9789213,32.3535067 20.9299878,32.3509732 22.3392221,33.4285435 L28.6610548,26.9831518 L22.3631676,20.5627524 Z M6.33437254,23.6102142 C6.16290076,23.7395341 5.98347755,23.852909 5.79805798,23.9503448 C5.33236587,24.1998731 4.82836721,24.3485255 4.31717748,24.3962731 L4.31717748,29.6184695 C5.03624802,29.6825919 5.74173101,29.9461824 6.34719744,30.4091537 L9.67507118,27.0156924 L6.33437254,23.6102142 Z M33.5923262,23.5908526 L30.2638824,26.9837329 L33.6051511,30.3897921 C33.747308,30.2825824 33.8949254,30.186332 34.046892,30.1010408 C34.0625611,30.0926732 34.0783728,30.0837826 34.0942301,30.0750083 C34.109506,30.0666 34.1246679,30.0584997 34.1398639,30.050504 C34.542714,29.834388 34.9742862,29.693801 35.414414,29.6287663 L35.414585,24.3573987 C34.7680333,24.2646754 34.1393566,24.0091387 33.5923262,23.5908526 Z M17.6003015,7.28778658 L7.14875376,17.9426184 C8.20576501,19.3792625 8.20327983,21.3682775 7.14020953,22.798123 L10.476485,26.199272 L16.7987509,19.7543219 C15.6339591,18.1711812 15.7557444,15.9172858 17.1655715,14.4800431 C17.4595468,14.1803442 17.7883601,13.9377424 18.1387763,13.7522203 C18.5068681,13.5535251 18.8991106,13.4180226 19.3001652,13.3457185 L19.3001652,8.03479086 C18.6968476,7.92864459 18.1127503,7.67962767 17.6003015,7.28778658 Z M22.3631676,7.27907616 C21.7866741,7.72452207 21.1175163,7.98731064 20.4314069,8.06750578 L20.4311276,13.3082271 C21.2931605,13.4053143 22.1294466,13.7904497 22.7899177,14.463767 C24.0455553,15.7438269 24.2794872,17.671683 23.4927336,19.1965006 C23.4847366,19.2116261 23.4767909,19.2270771 23.4687368,19.2424874 L23.4423802,19.2910078 C23.3593433,19.4458371 23.2649292,19.5963257 23.1597707,19.7412418 L29.4624686,26.1667314 L32.7907698,22.7737117 C31.7337586,21.3370617 31.7362438,19.3480526 32.7993141,17.9182071 L22.3631676,7.27907616 Z M1.96277358,18.3365514 C1.81721836,18.4849423 1.69078365,18.6454255 1.58347343,18.8148226 L1.53449085,18.8962671 C0.898826626,20.0011017 1.04718166,21.4463691 1.97873745,22.396049 C2.91029381,23.3457231 4.32798915,23.4969613 5.41174631,22.8489328 L5.49163518,22.7990004 C5.65779973,22.6896001 5.81522055,22.5607102 5.96078032,22.4123193 C7.06699929,21.2845842 7.06878908,19.4579759 5.96477029,18.3324838 C4.86075151,17.2069917 3.06899654,17.2088163 1.96277358,18.3365514 Z M34.5277801,17.8673915 L34.4478896,17.9173297 C34.2817244,18.0267242 34.1243031,18.1556198 33.9787433,18.3040049 C32.8725243,19.4317458 32.8707345,21.2583484 33.9747533,22.3838405 C35.0787721,23.5093326 36.8705305,23.5075138 37.9767494,22.3797729 C38.1223092,22.2313878 38.24874,22.0708987 38.356053,21.9015017 L38.4050327,21.820063 C39.0406975,20.7152225 38.8923448,19.2699551 37.9607896,18.3202811 C37.0292287,17.370607 35.6115356,17.2193629 34.5277801,17.8673915 Z M18.5357555,14.8480017 L18.4558649,14.8979399 C18.2897055,15.0073344 18.1322784,15.1362301 17.9867243,15.2846152 C16.8804996,16.4123561 16.8787155,18.2389586 17.9827343,19.3644507 C19.0867531,20.4899428 20.8785058,20.488124 21.9847305,19.3603831 C22.1302845,19.211998 22.256721,19.051509 22.3640283,18.8821119 L22.4130138,18.8006732 C23.0486729,17.6958328 22.9003201,16.2505654 21.9687649,15.3008913 C21.0372097,14.3512172 19.6195109,14.1999732 18.5357555,14.8480017 Z M18.5357555,1.56431965 L18.4558649,1.61425785 C18.2897055,1.72365236 18.1322784,1.852548 17.9867243,2.00093312 C16.8804996,3.12867402 16.8787155,4.95527654 17.9827343,6.08076865 C19.0867531,7.20626076 20.8785058,7.20444197 21.9847305,6.07670108 C22.1302845,5.92831595 22.256721,5.7678327 22.3640283,5.59843564 L22.4130138,5.51699118 C23.0486729,4.41215654 22.9003201,2.96688333 21.9687649,2.01720923 C21.0372097,1.06753513 19.6195109,0.916296895 18.5357555,1.56431965 Z" id="Stroke-3" stroke="#FFFFFF" mask="url(#mask-2)"></path>
                    </g>
                    <mask id="mask-4" fill="white">
                        <use xlink:href="#path-3"></use>
                    </mask>
                    <g id="Clip-7"></g>
                    <polygon id="Fill-6" fill="#FFFFFF" mask="url(#mask-4)" points="-1.47291084 -1.50157991 41.4124379 -1.50157991 41.4124379 55.5015798 -1.47291084 55.5015798"></polygon>
                </g>
            </g>
        </g>
    </g>
</svg>