<?xml version="1.0" encoding="UTF-8" standalone="no"?>
<!DOCTYPE svg PUBLIC "-//W3C//DTD SVG 1.1//EN"
 "http://www.w3.org/Graphics/SVG/1.1/DTD/svg11.dtd">
<!-- Generated by graphviz version 2.38.0 (20140413.2041)
 -->
<!-- Title: Lattice Pages: 1 -->
<svg width="310pt" height="589pt"
 viewBox="0.00 0.00 310.10 589.00" xmlns="http://www.w3.org/2000/svg" xmlns:xlink="http://www.w3.org/1999/xlink">
<g id="graph0" class="graph" transform="scale(1 1) rotate(0) translate(4 585)">
<title>Lattice</title>
<polygon fill="white" stroke="none" points="-4,4 -4,-585 306.095,-585 306.095,4 -4,4"/>
<!-- c0 -->
<g id="node1" class="node"><title>c0</title>
<ellipse fill="lightgrey" stroke="black" cx="173.095" cy="-9" rx="9" ry="9"/>
</g>
<!-- c1 -->
<g id="node2" class="node"><title>c1</title>
<ellipse fill="lightgrey" stroke="black" cx="57.0951" cy="-100" rx="9" ry="9"/>
</g>
<!-- c1&#45;&gt;c0 -->
<g id="edge3" class="edge"><title>c1&#45;&gt;c0</title>
<path fill="none" stroke="black" d="M64.0041,-93.6992C84.6846,-77.8323 145.927,-30.8448 166.368,-15.1616"/>
</g>
<!-- c1&#45;&gt;c1 -->
<g id="edge1" class="edge"><title>c1&#45;&gt;c1</title>
<path fill="none" stroke="none" d="M65.666,-103.219C74.3876,-105.112 84.0951,-104.039 84.0951,-100 84.0951,-95.9609 74.3876,-94.8881 65.666,-96.7814"/>
<text text-anchor="middle" x="62.9836" y="-78.3232" font-family="Times New Roman,serif" font-size="14.00">King Arthur</text>
</g>
<!-- c1&#45;&gt;c1 -->
<g id="edge2" class="edge"><title>c1&#45;&gt;c1</title>
<path fill="none" stroke="none" d="M65.0534,-104.351C80.7377,-110.731 102.095,-109.281 102.095,-100 102.095,-90.7188 80.7377,-89.2686 65.0534,-95.6494"/>
<text text-anchor="middle" x="60.1441" y="-114.824" font-family="Times New Roman,serif" font-size="14.00">king</text>
</g>
<!-- c2 -->
<g id="node3" class="node"><title>c2</title>
<ellipse fill="lightgrey" stroke="black" cx="257.095" cy="-427" rx="9" ry="9"/>
</g>
<!-- c2&#45;&gt;c0 -->
<g id="edge6" class="edge"><title>c2&#45;&gt;c0</title>
<path fill="none" stroke="black" d="M260.363,-418.542C267.14,-402.378 282.095,-362.766 282.095,-328 282.095,-328 282.095,-328 282.095,-99 282.095,-47.2074 207.344,-20.1609 181.648,-12.3937"/>
</g>
<!-- c2&#45;&gt;c2 -->
<g id="edge4" class="edge"><title>c2&#45;&gt;c2</title>
<path fill="none" stroke="none" d="M265.388,-430.875C274.18,-433.301 284.095,-432.01 284.095,-427 284.095,-421.99 274.18,-420.699 265.388,-423.125"/>
<text text-anchor="middle" x="262.002" y="-404.812" font-family="Times New Roman,serif" font-size="14.00">holy grail</text>
</g>
<!-- c2&#45;&gt;c2 -->
<g id="edge5" class="edge"><title>c2&#45;&gt;c2</title>
<path fill="none" stroke="none" d="M264.619,-432.119C280.34,-440.203 302.095,-438.496 302.095,-427 302.095,-415.504 280.34,-413.797 264.619,-421.881"/>
<text text-anchor="middle" x="258.605" y="-442.161" font-family="Times New Roman,serif" font-size="14.00">mysterious</text>
</g>
<!-- c3 -->
<g id="node4" class="node"><title>c3</title>
<ellipse fill="lightgrey" stroke="black" cx="173.095" cy="-282" rx="9" ry="9"/>
</g>
<!-- c3&#45;&gt;c0 -->
<g id="edge8" class="edge"><title>c3&#45;&gt;c0</title>
<path fill="none" stroke="black" d="M173.095,-272.656C173.095,-256.896 173.095,-221.667 173.095,-192 173.095,-192 173.095,-192 173.095,-99 173.095,-69.3333 173.095,-34.1042 173.095,-18.3438"/>
</g>
<!-- c3&#45;&gt;c3 -->
<g id="edge7" class="edge"><title>c3&#45;&gt;c3</title>
<path fill="none" stroke="none" d="M180.284,-287.783C189.327,-292.435 200.095,-290.508 200.095,-282 200.095,-273.492 189.327,-271.565 180.284,-276.217"/>
<text text-anchor="middle" x="174.296" y="-258.765" font-family="Times New Roman,serif" font-size="14.00">woman</text>
</g>
<!-- c4 -->
<g id="node5" class="node"><title>c4</title>
<ellipse fill="lightgrey" stroke="black" cx="119.095" cy="-282" rx="9" ry="9"/>
</g>
<!-- c4&#45;&gt;c0 -->
<g id="edge10" class="edge"><title>c4&#45;&gt;c0</title>
<path fill="none" stroke="black" d="M121.308,-273.217C125.481,-257.835 134.095,-222.398 134.095,-192 134.095,-192 134.095,-192 134.095,-99 134.095,-65.5978 157.425,-30.6243 167.997,-16.4915"/>
</g>
<!-- c4&#45;&gt;c4 -->
<g id="edge9" class="edge"><title>c4&#45;&gt;c4</title>
<path fill="none" stroke="none" d="M126.284,-287.783C135.327,-292.435 146.095,-290.508 146.095,-282 146.095,-273.492 135.327,-271.565 126.284,-276.217"/>
<text text-anchor="middle" x="120.296" y="-258.765" font-family="Times New Roman,serif" font-size="14.00">boy</text>
</g>
<!-- c5 -->
<g id="node6" class="node"><title>c5</title>
<ellipse fill="lightgrey" stroke="black" cx="227.095" cy="-282" rx="9" ry="9"/>
</g>
<!-- c5&#45;&gt;c0 -->
<g id="edge12" class="edge"><title>c5&#45;&gt;c0</title>
<path fill="none" stroke="black" d="M225.845,-272.679C223.595,-256.956 219.095,-221.786 219.095,-192 219.095,-192 219.095,-192 219.095,-99 219.095,-64.5615 191.578,-30.1547 179.109,-16.3319"/>
</g>
<!-- c5&#45;&gt;c5 -->
<g id="edge11" class="edge"><title>c5&#45;&gt;c5</title>
<path fill="none" stroke="none" d="M234.284,-287.783C243.327,-292.435 254.095,-290.508 254.095,-282 254.095,-273.492 243.327,-271.565 234.284,-276.217"/>
<text text-anchor="middle" x="228.296" y="-258.765" font-family="Times New Roman,serif" font-size="14.00">girl</text>
</g>
<!-- c6 -->
<g id="node7" class="node"><title>c6</title>
<ellipse fill="lightgrey" stroke="black" cx="54.0951" cy="-191" rx="9" ry="9"/>
</g>
<!-- c6&#45;&gt;c1 -->
<g id="edge15" class="edge"><title>c6&#45;&gt;c1</title>
<path fill="none" stroke="black" d="M54.372,-181.787C54.9435,-164.832 56.248,-126.131 56.819,-109.194"/>
</g>
<!-- c6&#45;&gt;c6 -->
<g id="edge13" class="edge"><title>c6&#45;&gt;c6</title>
<path fill="none" stroke="none" d="M62.666,-194.219C71.3876,-196.112 81.0951,-195.039 81.0951,-191 81.0951,-186.961 71.3876,-185.888 62.666,-187.781"/>
<text text-anchor="middle" x="59.9836" y="-169.323" font-family="Times New Roman,serif" font-size="14.00">Sir Robin</text>
</g>
<!-- c6&#45;&gt;c6 -->
<g id="edge14" class="edge"><title>c6&#45;&gt;c6</title>
<path fill="none" stroke="none" d="M62.0534,-195.351C77.7377,-201.731 99.0951,-200.281 99.0951,-191 99.0951,-181.719 77.7377,-180.269 62.0534,-186.649"/>
<text text-anchor="middle" x="57.1441" y="-205.824" font-family="Times New Roman,serif" font-size="14.00">knight</text>
</g>
<!-- c7 -->
<g id="node8" class="node"><title>c7</title>
<ellipse fill="lightgrey" stroke="black" cx="206.095" cy="-373" rx="9" ry="9"/>
</g>
<!-- c7&#45;&gt;c3 -->
<g id="edge17" class="edge"><title>c7&#45;&gt;c3</title>
<path fill="none" stroke="black" d="M203.282,-364.412C197.047,-347.597 182.13,-307.366 175.902,-290.569"/>
</g>
<!-- c7&#45;&gt;c5 -->
<g id="edge18" class="edge"><title>c7&#45;&gt;c5</title>
<path fill="none" stroke="black" d="M208.939,-364.312C212.065,-355.608 217.046,-340.953 220.095,-328 223.102,-315.224 225.153,-300.096 226.223,-291.038"/>
</g>
<!-- c7&#45;&gt;c7 -->
<g id="edge16" class="edge"><title>c7&#45;&gt;c7</title>
<path fill="none" stroke="none" d="M213.284,-378.783C222.327,-383.435 233.095,-381.508 233.095,-373 233.095,-364.492 222.327,-362.565 213.284,-367.217"/>
<text text-anchor="middle" x="207.296" y="-388.835" font-family="Times New Roman,serif" font-size="14.00">female</text>
</g>
<!-- c8 -->
<g id="node9" class="node"><title>c8</title>
<ellipse fill="lightgrey" stroke="black" cx="149.095" cy="-373" rx="9" ry="9"/>
</g>
<!-- c8&#45;&gt;c4 -->
<g id="edge20" class="edge"><title>c8&#45;&gt;c4</title>
<path fill="none" stroke="black" d="M146.433,-364.102C140.725,-347.17 127.372,-307.555 121.709,-290.753"/>
</g>
<!-- c8&#45;&gt;c5 -->
<g id="edge21" class="edge"><title>c8&#45;&gt;c5</title>
<path fill="none" stroke="black" d="M154.705,-365.599C169.096,-349.178 207.201,-305.7 221.536,-289.343"/>
</g>
<!-- c8&#45;&gt;c8 -->
<g id="edge19" class="edge"><title>c8&#45;&gt;c8</title>
<path fill="none" stroke="none" d="M156.284,-378.783C165.327,-383.435 176.095,-381.508 176.095,-373 176.095,-364.492 165.327,-362.565 156.284,-367.217"/>
<text text-anchor="middle" x="150.296" y="-388.835" font-family="Times New Roman,serif" font-size="14.00">child</text>
</g>
<!-- c9 -->
<g id="node10" class="node"><title>c9</title>
<ellipse fill="lightgrey" stroke="black" cx="54.0951" cy="-282" rx="9" ry="9"/>
</g>
<!-- c9&#45;&gt;c6 -->
<g id="edge23" class="edge"><title>c9&#45;&gt;c6</title>
<path fill="none" stroke="black" d="M54.0951,-272.787C54.0951,-255.832 54.0951,-217.131 54.0951,-200.194"/>
</g>
<!-- c9&#45;&gt;c9 -->
<g id="edge22" class="edge"><title>c9&#45;&gt;c9</title>
<path fill="none" stroke="none" d="M61.2843,-287.783C70.3274,-292.435 81.0951,-290.508 81.0951,-282 81.0951,-273.492 70.3274,-271.565 61.2843,-276.217"/>
<text text-anchor="middle" x="55.2958" y="-258.765" font-family="Times New Roman,serif" font-size="14.00">man</text>
</g>
<!-- c10 -->
<g id="node11" class="node"><title>c10</title>
<ellipse fill="lightgrey" stroke="black" cx="92.0951" cy="-373" rx="9" ry="9"/>
</g>
<!-- c10&#45;&gt;c3 -->
<g id="edge25" class="edge"><title>c10&#45;&gt;c3</title>
<path fill="none" stroke="black" d="M97.6626,-365.883C112.389,-349.702 152.259,-305.894 167.272,-289.398"/>
</g>
<!-- c10&#45;&gt;c9 -->
<g id="edge26" class="edge"><title>c10&#45;&gt;c9</title>
<path fill="none" stroke="black" d="M88.8553,-364.412C81.676,-347.597 64.4985,-307.366 57.3268,-290.569"/>
</g>
<!-- c10&#45;&gt;c10 -->
<g id="edge24" class="edge"><title>c10&#45;&gt;c10</title>
<path fill="none" stroke="none" d="M99.2843,-378.783C108.327,-383.435 119.095,-381.508 119.095,-373 119.095,-364.492 108.327,-362.565 99.2843,-367.217"/>
<text text-anchor="middle" x="93.2958" y="-388.835" font-family="Times New Roman,serif" font-size="14.00">adult</text>
</g>
<!-- c11 -->
<g id="node12" class="node"><title>c11</title>
<ellipse fill="lightgrey" stroke="black" cx="16.0951" cy="-373" rx="9" ry="9"/>
</g>
<!-- c11&#45;&gt;c4 -->
<g id="edge28" class="edge"><title>c11&#45;&gt;c4</title>
<path fill="none" stroke="black" d="M22.5383,-366.433C41.0357,-350.449 94.1601,-304.546 112.654,-288.565"/>
</g>
<!-- c11&#45;&gt;c9 -->
<g id="edge29" class="edge"><title>c11&#45;&gt;c9</title>
<path fill="none" stroke="black" d="M11.073,-365.39C4.92559,-356.434 -3.96365,-340.063 2.09515,-327 11.2505,-307.26 34.1083,-293.166 46.2416,-286.799"/>
</g>
<!-- c11&#45;&gt;c11 -->
<g id="edge27" class="edge"><title>c11&#45;&gt;c11</title>
<path fill="none" stroke="none" d="M23.2843,-378.783C32.3274,-383.435 43.0951,-381.508 43.0951,-373 43.0951,-364.492 32.3274,-362.565 23.2843,-367.217"/>
<text text-anchor="middle" x="17.2958" y="-388.835" font-family="Times New Roman,serif" font-size="14.00">male</text>
</g>
<!-- c12 -->
<g id="node13" class="node"><title>c12</title>
<ellipse fill="lightgrey" stroke="black" cx="149.095" cy="-481" rx="9" ry="9"/>
</g>
<!-- c12&#45;&gt;c7 -->
<g id="edge31" class="edge"><title>c12&#45;&gt;c7</title>
<path fill="none" stroke="black" d="M153.013,-472.714C163.426,-453.35 191.706,-400.76 202.15,-381.337"/>
</g>
<!-- c12&#45;&gt;c8 -->
<g id="edge32" class="edge"><title>c12&#45;&gt;c8</title>
<path fill="none" stroke="black" d="M149.095,-471.682C149.095,-451.867 149.095,-402.055 149.095,-382.279"/>
</g>
<!-- c12&#45;&gt;c10 -->
<g id="edge33" class="edge"><title>c12&#45;&gt;c10</title>
<path fill="none" stroke="black" d="M145.177,-472.714C134.764,-453.35 106.485,-400.76 96.0404,-381.337"/>
</g>
<!-- c12&#45;&gt;c11 -->
<g id="edge34" class="edge"><title>c12&#45;&gt;c11</title>
<path fill="none" stroke="black" d="M142.317,-474.598C119.449,-456.372 45.3116,-397.285 22.702,-379.266"/>
</g>
<!-- c12&#45;&gt;c12 -->
<g id="edge30" class="edge"><title>c12&#45;&gt;c12</title>
<path fill="none" stroke="none" d="M156.284,-486.783C165.327,-491.435 176.095,-489.508 176.095,-481 176.095,-472.492 165.327,-470.565 156.284,-475.217"/>
<text text-anchor="middle" x="150.296" y="-496.835" font-family="Times New Roman,serif" font-size="14.00">human</text>
</g>
<!-- c13 -->
<g id="node14" class="node"><title>c13</title>
<ellipse fill="lightgrey" stroke="black" cx="200.095" cy="-572" rx="9" ry="9"/>
</g>
<!-- c13&#45;&gt;c2 -->
<g id="edge35" class="edge"><title>c13&#45;&gt;c2</title>
<path fill="none" stroke="black" d="M203.16,-563.312C213.057,-538.482 244.097,-460.61 254.015,-435.726"/>
</g>
<!-- c13&#45;&gt;c12 -->
<g id="edge36" class="edge"><title>c13&#45;&gt;c12</title>
<path fill="none" stroke="black" d="M195.922,-563.717C186.311,-546.945 162.712,-505.763 153.184,-489.135"/>
</g>
</g>
</svg>
