<?xml version="1.0" encoding="UTF-8" standalone="no"?>
<!DOCTYPE svg PUBLIC "-//W3C//DTD SVG 1.1//EN"
 "http://www.w3.org/Graphics/SVG/1.1/DTD/svg11.dtd">
<!-- Generated by graphviz version 2.38.0 (20140413.2041)
 -->
<!-- Title: Lattice Pages: 1 -->
<svg width="1240pt" height="590pt"
 viewBox="0.00 0.00 1240.48 590.04" xmlns="http://www.w3.org/2000/svg" xmlns:xlink="http://www.w3.org/1999/xlink">
<g id="graph0" class="graph" transform="scale(1 1) rotate(0) translate(4 586.035)">
<title>Lattice</title>
<polygon fill="white" stroke="none" points="-4,4 -4,-586.035 1236.48,-586.035 1236.48,4 -4,4"/>
<!-- c0 -->
<g id="node1" class="node"><title>c0</title>
<ellipse fill="lightgrey" stroke="black" cx="527" cy="-27.0354" rx="9" ry="9"/>
</g>
<!-- c0&#45;&gt;c0 -->
<g id="edge1" class="edge"><title>c0&#45;&gt;c0</title>
<path fill="none" stroke="none" d="M534.189,-32.8181C543.232,-37.4708 554,-35.5432 554,-27.0354 554,-18.5276 543.232,-16.6001 534.189,-21.2528"/>
<text text-anchor="middle" x="528.201" y="-3.8" font-family="Times New Roman,serif" font-size="14.00">8</text>
</g>
<!-- c1 -->
<g id="node2" class="node"><title>c1</title>
<ellipse fill="lightgrey" stroke="black" cx="558" cy="-118.035" rx="9" ry="9"/>
</g>
<!-- c1&#45;&gt;c0 -->
<g id="edge3" class="edge"><title>c1&#45;&gt;c0</title>
<path fill="none" stroke="black" d="M555.249,-109.137C549.351,-92.2054 535.553,-52.5904 529.701,-35.7888"/>
</g>
<!-- c1&#45;&gt;c1 -->
<g id="edge2" class="edge"><title>c1&#45;&gt;c1</title>
<path fill="none" stroke="none" d="M565.189,-123.818C574.232,-128.471 585,-126.543 585,-118.035 585,-109.528 574.232,-107.6 565.189,-112.253"/>
<text text-anchor="middle" x="559.201" y="-94.8" font-family="Times New Roman,serif" font-size="14.00">0</text>
</g>
<!-- c2 -->
<g id="node3" class="node"><title>c2</title>
<ellipse fill="lightgrey" stroke="black" cx="110" cy="-118.035" rx="9" ry="9"/>
</g>
<!-- c2&#45;&gt;c0 -->
<g id="edge5" class="edge"><title>c2&#45;&gt;c0</title>
<path fill="none" stroke="black" d="M118.71,-115.177C172.978,-103.594 464.209,-41.4368 518.338,-29.8841"/>
</g>
<!-- c2&#45;&gt;c2 -->
<g id="edge4" class="edge"><title>c2&#45;&gt;c2</title>
<path fill="none" stroke="none" d="M117.189,-123.818C126.232,-128.471 137,-126.543 137,-118.035 137,-109.528 126.232,-107.6 117.189,-112.253"/>
<text text-anchor="middle" x="111.201" y="-94.8" font-family="Times New Roman,serif" font-size="14.00">2</text>
</g>
<!-- c3 -->
<g id="node4" class="node"><title>c3</title>
<ellipse fill="lightgrey" stroke="black" cx="379" cy="-118.035" rx="9" ry="9"/>
</g>
<!-- c3&#45;&gt;c0 -->
<g id="edge7" class="edge"><title>c3&#45;&gt;c0</title>
<path fill="none" stroke="black" d="M386.543,-112.5C411.99,-97.1969 494.488,-47.5863 519.648,-32.4565"/>
</g>
<!-- c3&#45;&gt;c3 -->
<g id="edge6" class="edge"><title>c3&#45;&gt;c3</title>
<path fill="none" stroke="none" d="M386.189,-123.818C395.232,-128.471 406,-126.543 406,-118.035 406,-109.528 395.232,-107.6 386.189,-112.253"/>
<text text-anchor="middle" x="380.201" y="-94.8" font-family="Times New Roman,serif" font-size="14.00">3</text>
</g>
<!-- c4 -->
<g id="node5" class="node"><title>c4</title>
<ellipse fill="lightgrey" stroke="black" cx="721" cy="-118.035" rx="9" ry="9"/>
</g>
<!-- c4&#45;&gt;c0 -->
<g id="edge9" class="edge"><title>c4&#45;&gt;c0</title>
<path fill="none" stroke="black" d="M713.155,-113.436C681.964,-99.1273 566.902,-46.3412 535.158,-31.778"/>
</g>
<!-- c4&#45;&gt;c4 -->
<g id="edge8" class="edge"><title>c4&#45;&gt;c4</title>
<path fill="none" stroke="none" d="M728.189,-123.818C737.232,-128.471 748,-126.543 748,-118.035 748,-109.528 737.232,-107.6 728.189,-112.253"/>
<text text-anchor="middle" x="722.201" y="-94.8" font-family="Times New Roman,serif" font-size="14.00">5</text>
</g>
<!-- c5 -->
<g id="node6" class="node"><title>c5</title>
<ellipse fill="lightgrey" stroke="black" cx="498" cy="-118.035" rx="9" ry="9"/>
</g>
<!-- c5&#45;&gt;c0 -->
<g id="edge11" class="edge"><title>c5&#45;&gt;c0</title>
<path fill="none" stroke="black" d="M500.574,-109.137C506.091,-92.2054 518.999,-52.5904 524.474,-35.7888"/>
</g>
<!-- c5&#45;&gt;c5 -->
<g id="edge10" class="edge"><title>c5&#45;&gt;c5</title>
<path fill="none" stroke="none" d="M505.189,-123.818C514.232,-128.471 525,-126.543 525,-118.035 525,-109.528 514.232,-107.6 505.189,-112.253"/>
<text text-anchor="middle" x="499.201" y="-94.8" font-family="Times New Roman,serif" font-size="14.00">6</text>
</g>
<!-- c6 -->
<g id="node7" class="node"><title>c6</title>
<ellipse fill="lightgrey" stroke="black" cx="835" cy="-118.035" rx="9" ry="9"/>
</g>
<!-- c6&#45;&gt;c0 -->
<g id="edge13" class="edge"><title>c6&#45;&gt;c0</title>
<path fill="none" stroke="black" d="M826.441,-114.562C782.137,-101.76 579.229,-43.1276 535.373,-30.4549"/>
</g>
<!-- c6&#45;&gt;c6 -->
<g id="edge12" class="edge"><title>c6&#45;&gt;c6</title>
<path fill="none" stroke="none" d="M842.189,-123.818C851.232,-128.471 862,-126.543 862,-118.035 862,-109.528 851.232,-107.6 842.189,-112.253"/>
<text text-anchor="middle" x="836.201" y="-94.8" font-family="Times New Roman,serif" font-size="14.00">9</text>
</g>
<!-- c7 -->
<g id="node8" class="node"><title>c7</title>
<ellipse fill="lightgrey" stroke="black" cx="85" cy="-209.035" rx="9" ry="9"/>
</g>
<!-- c7&#45;&gt;c1 -->
<g id="edge14" class="edge"><title>c7&#45;&gt;c1</title>
<path fill="none" stroke="black" d="M93.7574,-206.534C152.582,-196.435 489.2,-138.48 534,-127.035 539.277,-125.687 545.072,-123.768 549.646,-122.148"/>
</g>
<!-- c7&#45;&gt;c2 -->
<g id="edge15" class="edge"><title>c7&#45;&gt;c2</title>
<path fill="none" stroke="black" d="M87.2186,-200.137C91.9747,-183.205 103.103,-143.59 107.822,-126.789"/>
</g>
<!-- c8 -->
<g id="node9" class="node"><title>c8</title>
<ellipse fill="lightgrey" stroke="black" cx="341" cy="-209.035" rx="9" ry="9"/>
</g>
<!-- c8&#45;&gt;c1 -->
<g id="edge16" class="edge"><title>c8&#45;&gt;c1</title>
<path fill="none" stroke="black" d="M348.981,-204.762C382.931,-190.838 515.184,-136.596 549.715,-122.433"/>
</g>
<!-- c8&#45;&gt;c3 -->
<g id="edge17" class="edge"><title>c8&#45;&gt;c3</title>
<path fill="none" stroke="black" d="M344.24,-200.447C351.419,-183.633 368.597,-143.401 375.768,-126.604"/>
</g>
<!-- c9 -->
<g id="node10" class="node"><title>c9</title>
<ellipse fill="lightgrey" stroke="black" cx="797" cy="-209.035" rx="9" ry="9"/>
</g>
<!-- c9&#45;&gt;c1 -->
<g id="edge18" class="edge"><title>c9&#45;&gt;c1</title>
<path fill="none" stroke="black" d="M788.773,-204.972C752.001,-191.278 602.894,-135.753 566.192,-122.086"/>
</g>
<!-- c9&#45;&gt;c4 -->
<g id="edge19" class="edge"><title>c9&#45;&gt;c4</title>
<path fill="none" stroke="black" d="M791.534,-201.635C777.512,-185.214 740.384,-141.735 726.416,-125.378"/>
</g>
<!-- c10 -->
<g id="node11" class="node"><title>c10</title>
<ellipse fill="lightgrey" stroke="black" cx="541" cy="-209.035" rx="9" ry="9"/>
</g>
<!-- c10&#45;&gt;c1 -->
<g id="edge20" class="edge"><title>c10&#45;&gt;c1</title>
<path fill="none" stroke="black" d="M542.509,-200.137C545.727,-183.291 553.234,-143.988 556.47,-127.044"/>
</g>
<!-- c10&#45;&gt;c5 -->
<g id="edge21" class="edge"><title>c10&#45;&gt;c5</title>
<path fill="none" stroke="black" d="M537.334,-200.447C529.21,-183.633 509.772,-143.401 501.657,-126.604"/>
</g>
<!-- c11 -->
<g id="node12" class="node"><title>c11</title>
<ellipse fill="lightgrey" stroke="black" cx="835" cy="-209.035" rx="9" ry="9"/>
</g>
<!-- c11&#45;&gt;c1 -->
<g id="edge22" class="edge"><title>c11&#45;&gt;c1</title>
<path fill="none" stroke="black" d="M826.879,-204.626C823.266,-203.151 818.945,-201.444 815,-200.035 718.513,-165.588 599.03,-130.8 566.507,-121.464"/>
</g>
<!-- c11&#45;&gt;c6 -->
<g id="edge23" class="edge"><title>c11&#45;&gt;c6</title>
<path fill="none" stroke="black" d="M835,-199.822C835,-182.867 835,-144.167 835,-127.229"/>
</g>
<!-- c12 -->
<g id="node13" class="node"><title>c12</title>
<ellipse fill="lightgrey" stroke="black" cx="151" cy="-209.035" rx="9" ry="9"/>
</g>
<!-- c12&#45;&gt;c2 -->
<g id="edge24" class="edge"><title>c12&#45;&gt;c2</title>
<path fill="none" stroke="black" d="M147.504,-200.447C139.758,-183.633 121.225,-143.401 113.487,-126.604"/>
</g>
<!-- c12&#45;&gt;c3 -->
<g id="edge25" class="edge"><title>c12&#45;&gt;c3</title>
<path fill="none" stroke="black" d="M159.115,-204.868C194.495,-191.057 335.086,-136.177 370.744,-122.258"/>
</g>
<!-- c13 -->
<g id="node14" class="node"><title>c13</title>
<ellipse fill="lightgrey" stroke="black" cx="9" cy="-209.035" rx="9" ry="9"/>
</g>
<!-- c13&#45;&gt;c2 -->
<g id="edge26" class="edge"><title>c13&#45;&gt;c2</title>
<path fill="none" stroke="black" d="M15.318,-202.468C33.4562,-186.485 85.5491,-140.581 103.684,-124.601"/>
</g>
<!-- c13&#45;&gt;c5 -->
<g id="edge27" class="edge"><title>c13&#45;&gt;c5</title>
<path fill="none" stroke="black" d="M17.9049,-206.415C78.4851,-195.389 429.442,-131.513 489.315,-120.616"/>
</g>
<!-- c14 -->
<g id="node15" class="node"><title>c14</title>
<ellipse fill="lightgrey" stroke="black" cx="442" cy="-209.035" rx="9" ry="9"/>
</g>
<!-- c14&#45;&gt;c3 -->
<g id="edge28" class="edge"><title>c14&#45;&gt;c3</title>
<path fill="none" stroke="black" d="M435.959,-202.152C427.844,-194.051 413.256,-178.786 403,-164.035 394.407,-151.677 386.643,-135.888 382.396,-126.675"/>
</g>
<!-- c14&#45;&gt;c4 -->
<g id="edge29" class="edge"><title>c14&#45;&gt;c4</title>
<path fill="none" stroke="black" d="M450.35,-205.372C491.423,-192.27 671.684,-134.767 712.683,-121.689"/>
</g>
<!-- c15 -->
<g id="node16" class="node"><title>c15</title>
<ellipse fill="lightgrey" stroke="black" cx="597" cy="-209.035" rx="9" ry="9"/>
</g>
<!-- c15&#45;&gt;c3 -->
<g id="edge30" class="edge"><title>c15&#45;&gt;c3</title>
<path fill="none" stroke="black" d="M588.983,-204.762C554.876,-190.838 422.013,-136.596 387.323,-122.433"/>
</g>
<!-- c15&#45;&gt;c6 -->
<g id="edge31" class="edge"><title>c15&#45;&gt;c6</title>
<path fill="none" stroke="black" d="M605.192,-204.972C641.811,-191.278 790.294,-135.753 826.842,-122.086"/>
</g>
<!-- c16 -->
<g id="node17" class="node"><title>c16</title>
<ellipse fill="lightgrey" stroke="black" cx="1082" cy="-209.035" rx="9" ry="9"/>
</g>
<!-- c16&#45;&gt;c6 -->
<g id="edge33" class="edge"><title>c16&#45;&gt;c6</title>
<path fill="none" stroke="black" d="M1073.78,-205.074C1036.28,-191.562 881.589,-135.823 843.502,-122.099"/>
</g>
<!-- c16&#45;&gt;c16 -->
<g id="edge32" class="edge"><title>c16&#45;&gt;c16</title>
<path fill="none" stroke="none" d="M1089.19,-214.818C1098.23,-219.471 1109,-217.543 1109,-209.035 1109,-200.528 1098.23,-198.6 1089.19,-203.253"/>
<text text-anchor="middle" x="1083.2" y="-185.8" font-family="Times New Roman,serif" font-size="14.00">4</text>
</g>
<!-- c17 -->
<g id="node18" class="node"><title>c17</title>
<ellipse fill="lightgrey" stroke="black" cx="721" cy="-209.035" rx="9" ry="9"/>
</g>
<!-- c17&#45;&gt;c4 -->
<g id="edge34" class="edge"><title>c17&#45;&gt;c4</title>
<path fill="none" stroke="black" d="M721,-199.822C721,-182.867 721,-144.167 721,-127.229"/>
</g>
<!-- c17&#45;&gt;c5 -->
<g id="edge35" class="edge"><title>c17&#45;&gt;c5</title>
<path fill="none" stroke="black" d="M712.799,-204.762C677.753,-190.775 540.773,-136.106 506.041,-122.244"/>
</g>
<!-- c18 -->
<g id="node19" class="node"><title>c18</title>
<ellipse fill="lightgrey" stroke="black" cx="911" cy="-209.035" rx="9" ry="9"/>
</g>
<!-- c18&#45;&gt;c4 -->
<g id="edge36" class="edge"><title>c18&#45;&gt;c4</title>
<path fill="none" stroke="black" d="M902.836,-204.211C871.583,-189.572 759.756,-137.189 728.922,-122.746"/>
</g>
<!-- c18&#45;&gt;c6 -->
<g id="edge37" class="edge"><title>c18&#45;&gt;c6</title>
<path fill="none" stroke="black" d="M908.034,-200.507C904.112,-191.125 896.567,-174.884 887,-163.035 873.479,-146.289 852.901,-131.115 842.134,-123.742"/>
</g>
<!-- c19 -->
<g id="node20" class="node"><title>c19</title>
<ellipse fill="lightgrey" stroke="black" cx="189" cy="-300.035" rx="9" ry="9"/>
</g>
<!-- c19&#45;&gt;c7 -->
<g id="edge38" class="edge"><title>c19&#45;&gt;c7</title>
<path fill="none" stroke="black" d="M182.494,-293.468C163.817,-277.485 110.177,-231.581 91.5032,-215.601"/>
</g>
<!-- c19&#45;&gt;c8 -->
<g id="edge39" class="edge"><title>c19&#45;&gt;c8</title>
<path fill="none" stroke="black" d="M196.331,-294.743C221.95,-279.743 307.329,-229.751 333.384,-214.495"/>
</g>
<!-- c19&#45;&gt;c12 -->
<g id="edge40" class="edge"><title>c19&#45;&gt;c12</title>
<path fill="none" stroke="black" d="M185.76,-291.447C178.581,-274.633 161.403,-234.401 154.232,-217.604"/>
</g>
<!-- c20 -->
<g id="node21" class="node"><title>c20</title>
<ellipse fill="lightgrey" stroke="black" cx="37" cy="-300.035" rx="9" ry="9"/>
</g>
<!-- c20&#45;&gt;c7 -->
<g id="edge42" class="edge"><title>c20&#45;&gt;c7</title>
<path fill="none" stroke="black" d="M40.8865,-291.697C45.6155,-282.78 53.8544,-267.283 61,-254.035 68.0223,-241.016 76.3016,-225.885 81.0718,-217.188"/>
</g>
<!-- c20&#45;&gt;c10 -->
<g id="edge43" class="edge"><title>c20&#45;&gt;c10</title>
<path fill="none" stroke="black" d="M45.7479,-297.491C106.922,-286.688 470.05,-222.564 532.011,-211.623"/>
</g>
<!-- c20&#45;&gt;c13 -->
<g id="edge44" class="edge"><title>c20&#45;&gt;c13</title>
<path fill="none" stroke="black" d="M34.5065,-291.251C31.6948,-282.461 26.9939,-267.729 23,-255.035 18.9236,-242.08 14.2472,-227.005 11.4629,-218.006"/>
</g>
<!-- c20&#45;&gt;c20 -->
<g id="edge41" class="edge"><title>c20&#45;&gt;c20</title>
<path fill="none" stroke="none" d="M44.1891,-305.818C53.2323,-310.471 64,-308.543 64,-300.035 64,-291.528 53.2323,-289.6 44.1891,-294.253"/>
<text text-anchor="middle" x="38.2007" y="-315.871" font-family="Times New Roman,serif" font-size="14.00">e</text>
</g>
<!-- c21 -->
<g id="node22" class="node"><title>c21</title>
<ellipse fill="lightgrey" stroke="black" cx="379" cy="-300.035" rx="9" ry="9"/>
</g>
<!-- c21&#45;&gt;c8 -->
<g id="edge45" class="edge"><title>c21&#45;&gt;c8</title>
<path fill="none" stroke="black" d="M375.76,-291.447C368.581,-274.633 351.403,-234.401 344.232,-217.604"/>
</g>
<!-- c21&#45;&gt;c9 -->
<g id="edge46" class="edge"><title>c21&#45;&gt;c9</title>
<path fill="none" stroke="black" d="M387.731,-297.177C442.129,-285.594 734.059,-223.437 788.318,-211.884"/>
</g>
<!-- c21&#45;&gt;c14 -->
<g id="edge47" class="edge"><title>c21&#45;&gt;c14</title>
<path fill="none" stroke="black" d="M383.735,-292.346C395.411,-275.852 425.477,-233.377 437.21,-216.803"/>
</g>
<!-- c22 -->
<g id="node23" class="node"><title>c22</title>
<ellipse fill="lightgrey" stroke="black" cx="1215" cy="-300.035" rx="9" ry="9"/>
</g>
<!-- c22&#45;&gt;c11 -->
<g id="edge48" class="edge"><title>c22&#45;&gt;c11</title>
<path fill="none" stroke="black" d="M1206.62,-296.479C1182.76,-289.246 1112.33,-268.244 1053,-254.035 972.27,-234.702 873.378,-216.808 843.772,-211.572"/>
</g>
<!-- c22&#45;&gt;c16 -->
<g id="edge49" class="edge"><title>c22&#45;&gt;c16</title>
<path fill="none" stroke="black" d="M1220.29,-292.615C1227.3,-283.297 1237.79,-265.848 1229,-254.035 1195.59,-209.163 1118.08,-208.301 1091.3,-209.44"/>
</g>
<!-- c23 -->
<g id="node24" class="node"><title>c23</title>
<ellipse fill="lightgrey" stroke="black" cx="835" cy="-300.035" rx="9" ry="9"/>
</g>
<!-- c23&#45;&gt;c9 -->
<g id="edge50" class="edge"><title>c23&#45;&gt;c9</title>
<path fill="none" stroke="black" d="M840.022,-292.426C846.17,-283.47 855.059,-267.099 849,-254.035 839.845,-234.295 816.987,-220.201 804.854,-213.835"/>
</g>
<!-- c23&#45;&gt;c10 -->
<g id="edge51" class="edge"><title>c23&#45;&gt;c10</title>
<path fill="none" stroke="black" d="M826.518,-296.468C783.774,-283.528 592.34,-225.577 549.516,-212.613"/>
</g>
<!-- c23&#45;&gt;c17 -->
<g id="edge52" class="edge"><title>c23&#45;&gt;c17</title>
<path fill="none" stroke="black" d="M828.21,-293.735C807.886,-277.868 747.7,-230.88 727.611,-215.197"/>
</g>
<!-- c24 -->
<g id="node25" class="node"><title>c24</title>
<ellipse fill="lightgrey" stroke="black" cx="1063" cy="-300.035" rx="9" ry="9"/>
</g>
<!-- c24&#45;&gt;c9 -->
<g id="edge53" class="edge"><title>c24&#45;&gt;c9</title>
<path fill="none" stroke="black" d="M1054.44,-296.429C1022.73,-286.732 909.102,-251.582 817,-218.035 813.064,-216.602 808.744,-214.892 805.13,-213.421"/>
</g>
<!-- c24&#45;&gt;c11 -->
<g id="edge54" class="edge"><title>c24&#45;&gt;c11</title>
<path fill="none" stroke="black" d="M1060.97,-290.999C1057.96,-280.771 1051.3,-263.318 1039,-254.035 1022.95,-241.92 881.326,-217.729 843.99,-211.517"/>
</g>
<!-- c24&#45;&gt;c18 -->
<g id="edge55" class="edge"><title>c24&#45;&gt;c18</title>
<path fill="none" stroke="black" d="M1068.34,-292.578C1075.41,-283.213 1085.98,-265.707 1077,-254.035 1057.27,-228.398 951.715,-214.609 920.011,-211.003"/>
</g>
<!-- c25 -->
<g id="node26" class="node"><title>c25</title>
<ellipse fill="lightgrey" stroke="black" cx="113" cy="-300.035" rx="9" ry="9"/>
</g>
<!-- c25&#45;&gt;c12 -->
<g id="edge56" class="edge"><title>c25&#45;&gt;c12</title>
<path fill="none" stroke="black" d="M116.24,-291.447C123.419,-274.633 140.597,-234.401 147.768,-217.604"/>
</g>
<!-- c25&#45;&gt;c14 -->
<g id="edge57" class="edge"><title>c25&#45;&gt;c14</title>
<path fill="none" stroke="black" d="M121.463,-296.746C167.528,-284.285 387.669,-224.733 433.593,-212.31"/>
</g>
<!-- c26 -->
<g id="node27" class="node"><title>c26</title>
<ellipse fill="lightgrey" stroke="black" cx="341" cy="-300.035" rx="9" ry="9"/>
</g>
<!-- c26&#45;&gt;c12 -->
<g id="edge58" class="edge"><title>c26&#45;&gt;c12</title>
<path fill="none" stroke="black" d="M332.836,-295.211C301.583,-280.572 189.756,-228.189 158.922,-213.746"/>
</g>
<!-- c26&#45;&gt;c15 -->
<g id="edge59" class="edge"><title>c26&#45;&gt;c15</title>
<path fill="none" stroke="black" d="M349.138,-295.673C352.755,-294.207 357.074,-292.494 361,-291.035 449.121,-258.312 557.42,-222.865 588.373,-212.824"/>
</g>
<!-- c27 -->
<g id="node28" class="node"><title>c27</title>
<ellipse fill="lightgrey" stroke="black" cx="911" cy="-300.035" rx="9" ry="9"/>
</g>
<!-- c27&#45;&gt;c15 -->
<g id="edge60" class="edge"><title>c27&#45;&gt;c15</title>
<path fill="none" stroke="black" d="M902.601,-296.655C858.128,-284.049 650.466,-225.19 605.572,-212.465"/>
</g>
<!-- c27&#45;&gt;c16 -->
<g id="edge61" class="edge"><title>c27&#45;&gt;c16</title>
<path fill="none" stroke="black" d="M918.792,-294.98C947.279,-280.153 1045.6,-228.98 1074.16,-214.115"/>
</g>
<!-- c28 -->
<g id="node29" class="node"><title>c28</title>
<ellipse fill="lightgrey" stroke="black" cx="569" cy="-300.035" rx="9" ry="9"/>
</g>
<!-- c28&#45;&gt;c14 -->
<g id="edge62" class="edge"><title>c28&#45;&gt;c14</title>
<path fill="none" stroke="black" d="M561.808,-293.995C539.455,-278.33 471.358,-230.609 449.113,-215.02"/>
</g>
<!-- c28&#45;&gt;c17 -->
<g id="edge63" class="edge"><title>c28&#45;&gt;c17</title>
<path fill="none" stroke="black" d="M576.331,-294.743C601.95,-279.743 687.329,-229.751 713.384,-214.495"/>
</g>
<!-- c29 -->
<g id="node30" class="node"><title>c29</title>
<ellipse fill="lightgrey" stroke="black" cx="702" cy="-300.035" rx="9" ry="9"/>
</g>
<!-- c29&#45;&gt;c14 -->
<g id="edge64" class="edge"><title>c29&#45;&gt;c14</title>
<path fill="none" stroke="black" d="M693.644,-296.175C654.443,-282.756 489.049,-226.141 450.195,-212.841"/>
</g>
<!-- c29&#45;&gt;c15 -->
<g id="edge65" class="edge"><title>c29&#45;&gt;c15</title>
<path fill="none" stroke="black" d="M696.51,-292.551C688.657,-283.455 673.553,-266.612 659,-254.035 640.425,-237.983 616.112,-222.03 604.205,-214.505"/>
</g>
<!-- c29&#45;&gt;c18 -->
<g id="edge66" class="edge"><title>c29&#45;&gt;c18</title>
<path fill="none" stroke="black" d="M710.25,-295.833C728.502,-288.72 773.647,-270.972 811,-255.035 845.671,-240.243 886.531,-221.413 903.266,-213.64"/>
</g>
<!-- c30 -->
<g id="node31" class="node"><title>c30</title>
<ellipse fill="lightgrey" stroke="black" cx="189" cy="-391.035" rx="9" ry="9"/>
</g>
<!-- c30&#45;&gt;c19 -->
<g id="edge67" class="edge"><title>c30&#45;&gt;c19</title>
<path fill="none" stroke="black" d="M189,-381.822C189,-364.867 189,-326.167 189,-309.229"/>
</g>
<!-- c30&#45;&gt;c21 -->
<g id="edge68" class="edge"><title>c30&#45;&gt;c21</title>
<path fill="none" stroke="black" d="M197.164,-386.211C228.417,-371.572 340.244,-319.189 371.078,-304.746"/>
</g>
<!-- c30&#45;&gt;c25 -->
<g id="edge69" class="edge"><title>c30&#45;&gt;c25</title>
<path fill="none" stroke="black" d="M180.042,-388.782C161.101,-385.593 117.235,-375.248 99,-346.035 91.2882,-333.681 101.069,-316.751 107.745,-307.582"/>
</g>
<!-- c31 -->
<g id="node32" class="node"><title>c31</title>
<ellipse fill="lightgrey" stroke="black" cx="569" cy="-391.035" rx="9" ry="9"/>
</g>
<!-- c31&#45;&gt;c21 -->
<g id="edge70" class="edge"><title>c31&#45;&gt;c21</title>
<path fill="none" stroke="black" d="M560.836,-386.211C529.583,-371.572 417.756,-319.189 386.922,-304.746"/>
</g>
<!-- c31&#45;&gt;c23 -->
<g id="edge71" class="edge"><title>c31&#45;&gt;c23</title>
<path fill="none" stroke="black" d="M577.078,-386.463C580.432,-385.024 584.379,-383.389 588,-382.035 680.154,-347.59 794.472,-313.072 826.38,-303.583"/>
</g>
<!-- c31&#45;&gt;c28 -->
<g id="edge72" class="edge"><title>c31&#45;&gt;c28</title>
<path fill="none" stroke="black" d="M569,-381.822C569,-364.867 569,-326.167 569,-309.229"/>
</g>
<!-- c32 -->
<g id="node33" class="node"><title>c32</title>
<ellipse fill="lightgrey" stroke="black" cx="606" cy="-300.035" rx="9" ry="9"/>
</g>
<!-- c32&#45;&gt;c8 -->
<g id="edge74" class="edge"><title>c32&#45;&gt;c8</title>
<path fill="none" stroke="black" d="M597.921,-295.465C594.567,-294.027 590.62,-292.391 587,-291.035 495.204,-256.661 381.359,-222.093 349.584,-212.588"/>
</g>
<!-- c32&#45;&gt;c11 -->
<g id="edge75" class="edge"><title>c32&#45;&gt;c11</title>
<path fill="none" stroke="black" d="M614.375,-295.827C642.649,-284.987 737.152,-248.689 815,-218.035 818.897,-216.501 823.212,-214.778 826.834,-213.325"/>
</g>
<!-- c32&#45;&gt;c15 -->
<g id="edge76" class="edge"><title>c32&#45;&gt;c15</title>
<path fill="none" stroke="black" d="M605.169,-290.822C603.455,-273.867 599.541,-235.167 597.829,-218.229"/>
</g>
<!-- c32&#45;&gt;c32 -->
<g id="edge73" class="edge"><title>c32&#45;&gt;c32</title>
<path fill="none" stroke="none" d="M613.189,-305.818C622.232,-310.471 633,-308.543 633,-300.035 633,-291.528 622.232,-289.6 613.189,-294.253"/>
<text text-anchor="middle" x="607.201" y="-276.8" font-family="Times New Roman,serif" font-size="14.00">7</text>
</g>
<!-- c33 -->
<g id="node34" class="node"><title>c33</title>
<ellipse fill="lightgrey" stroke="black" cx="606" cy="-391.035" rx="9" ry="9"/>
</g>
<!-- c33&#45;&gt;c26 -->
<g id="edge77" class="edge"><title>c33&#45;&gt;c26</title>
<path fill="none" stroke="black" d="M597.925,-386.454C594.572,-385.015 590.624,-383.381 587,-382.035 488.045,-345.299 460.282,-344.879 361,-309.035 357.06,-307.613 352.74,-305.904 349.126,-304.431"/>
</g>
<!-- c33&#45;&gt;c27 -->
<g id="edge78" class="edge"><title>c33&#45;&gt;c27</title>
<path fill="none" stroke="black" d="M614.476,-387.562C658.252,-374.788 858.399,-316.385 902.421,-303.539"/>
</g>
<!-- c34 -->
<g id="node35" class="node"><title>c34</title>
<ellipse fill="lightgrey" stroke="black" cx="265" cy="-391.035" rx="9" ry="9"/>
</g>
<!-- c34&#45;&gt;c13 -->
<g id="edge79" class="edge"><title>c34&#45;&gt;c13</title>
<path fill="none" stroke="black" d="M256.178,-388.445C215.964,-381.012 50.6063,-348.386 19,-309.035 -2.74385,-281.964 3.49224,-236.373 7.17545,-218.032"/>
</g>
<!-- c34&#45;&gt;c25 -->
<g id="edge80" class="edge"><title>c34&#45;&gt;c25</title>
<path fill="none" stroke="black" d="M256.149,-389.213C233.686,-386.703 173.658,-377.288 137,-346.035 125.276,-336.04 118.402,-318.843 115.201,-308.852"/>
</g>
<!-- c34&#45;&gt;c28 -->
<g id="edge81" class="edge"><title>c34&#45;&gt;c28</title>
<path fill="none" stroke="black" d="M273.448,-387.562C317.08,-374.788 516.572,-316.385 560.449,-303.539"/>
</g>
<!-- c35 -->
<g id="node36" class="node"><title>c35</title>
<ellipse fill="lightgrey" stroke="black" cx="341" cy="-391.035" rx="9" ry="9"/>
</g>
<!-- c35&#45;&gt;c25 -->
<g id="edge82" class="edge"><title>c35&#45;&gt;c25</title>
<path fill="none" stroke="black" d="M332.885,-386.868C297.505,-373.057 156.914,-318.177 121.256,-304.258"/>
</g>
<!-- c35&#45;&gt;c26 -->
<g id="edge83" class="edge"><title>c35&#45;&gt;c26</title>
<path fill="none" stroke="black" d="M336.599,-382.866C331.74,-374.114 324.866,-358.78 327,-345.035 329.042,-331.886 334.322,-317.289 337.783,-308.651"/>
</g>
<!-- c35&#45;&gt;c29 -->
<g id="edge84" class="edge"><title>c35&#45;&gt;c29</title>
<path fill="none" stroke="black" d="M349.075,-386.49C352.68,-384.99 357.007,-383.301 361,-382.035 490.644,-340.955 653.831,-309.866 693.176,-302.634"/>
</g>
<!-- c36 -->
<g id="node37" class="node"><title>c36</title>
<ellipse fill="lightgrey" stroke="black" cx="1139" cy="-300.035" rx="9" ry="9"/>
</g>
<!-- c36&#45;&gt;c16 -->
<g id="edge85" class="edge"><title>c36&#45;&gt;c16</title>
<path fill="none" stroke="black" d="M1144.08,-292.592C1150.55,-283.545 1160.08,-266.76 1153,-254.035 1139.46,-229.709 1106.29,-217.122 1090.55,-212.349"/>
</g>
<!-- c36&#45;&gt;c17 -->
<g id="edge86" class="edge"><title>c36&#45;&gt;c17</title>
<path fill="none" stroke="black" d="M1130.27,-297.177C1075.87,-285.594 783.941,-223.437 729.682,-211.884"/>
</g>
<!-- c36&#45;&gt;c18 -->
<g id="edge87" class="edge"><title>c36&#45;&gt;c18</title>
<path fill="none" stroke="black" d="M1133.87,-292.411C1125.83,-282.505 1109.28,-263.938 1091,-254.035 1031.32,-221.704 947.737,-212.778 920.198,-210.639"/>
</g>
<!-- c37 -->
<g id="node38" class="node"><title>c37</title>
<ellipse fill="lightgrey" stroke="black" cx="265" cy="-482.035" rx="9" ry="9"/>
</g>
<!-- c37&#45;&gt;c20 -->
<g id="edge89" class="edge"><title>c37&#45;&gt;c20</title>
<path fill="none" stroke="black" d="M258.098,-475.623C247.521,-467.328 226.673,-450.965 209,-437.035 144.422,-386.135 66.3701,-324.309 43.5555,-306.231"/>
</g>
<!-- c37&#45;&gt;c30 -->
<g id="edge90" class="edge"><title>c37&#45;&gt;c30</title>
<path fill="none" stroke="black" d="M257.866,-476.329C247.099,-468.956 226.521,-453.781 213,-437.035 203.433,-425.186 195.888,-408.946 191.966,-399.564"/>
</g>
<!-- c37&#45;&gt;c31 -->
<g id="edge91" class="edge"><title>c37&#45;&gt;c31</title>
<path fill="none" stroke="black" d="M273.448,-478.562C317.08,-465.788 516.572,-407.385 560.449,-394.539"/>
</g>
<!-- c37&#45;&gt;c34 -->
<g id="edge92" class="edge"><title>c37&#45;&gt;c34</title>
<path fill="none" stroke="black" d="M265,-472.822C265,-455.867 265,-417.167 265,-400.229"/>
</g>
<!-- c37&#45;&gt;c37 -->
<g id="edge88" class="edge"><title>c37&#45;&gt;c37</title>
<path fill="none" stroke="none" d="M272.189,-487.818C281.232,-492.471 292,-490.543 292,-482.035 292,-473.528 281.232,-471.6 272.189,-476.253"/>
<text text-anchor="middle" x="266.201" y="-497.871" font-family="Times New Roman,serif" font-size="14.00">c</text>
</g>
<!-- c38 -->
<g id="node39" class="node"><title>c38</title>
<ellipse fill="lightgrey" stroke="black" cx="379" cy="-391.035" rx="9" ry="9"/>
</g>
<!-- c38&#45;&gt;c19 -->
<g id="edge93" class="edge"><title>c38&#45;&gt;c19</title>
<path fill="none" stroke="black" d="M370.836,-386.211C339.583,-371.572 227.756,-319.189 196.922,-304.746"/>
</g>
<!-- c38&#45;&gt;c26 -->
<g id="edge94" class="edge"><title>c38&#45;&gt;c26</title>
<path fill="none" stroke="black" d="M375.76,-382.447C368.581,-365.633 351.403,-325.401 344.232,-308.604"/>
</g>
<!-- c38&#45;&gt;c32 -->
<g id="edge95" class="edge"><title>c38&#45;&gt;c32</title>
<path fill="none" stroke="black" d="M387.355,-386.875C415.555,-376.189 509.779,-340.322 587,-309.035 590.583,-307.584 594.524,-305.933 597.884,-304.51"/>
</g>
<!-- c39 -->
<g id="node40" class="node"><title>c39</title>
<ellipse fill="lightgrey" stroke="black" cx="681" cy="-391.035" rx="9" ry="9"/>
</g>
<!-- c39&#45;&gt;c21 -->
<g id="edge96" class="edge"><title>c39&#45;&gt;c21</title>
<path fill="none" stroke="black" d="M672.608,-387.562C629.262,-374.788 431.084,-316.385 387.495,-303.539"/>
</g>
<!-- c39&#45;&gt;c24 -->
<g id="edge97" class="edge"><title>c39&#45;&gt;c24</title>
<path fill="none" stroke="black" d="M689.696,-388.009C741.004,-376.055 1003.67,-314.858 1054.48,-303.02"/>
</g>
<!-- c39&#45;&gt;c29 -->
<g id="edge98" class="edge"><title>c39&#45;&gt;c29</title>
<path fill="none" stroke="black" d="M682.864,-382.137C686.839,-365.291 696.112,-325.988 700.11,-309.044"/>
</g>
<!-- c39&#45;&gt;c32 -->
<g id="edge99" class="edge"><title>c39&#45;&gt;c32</title>
<path fill="none" stroke="black" d="M675.606,-383.635C661.768,-367.214 625.129,-323.735 611.345,-307.378"/>
</g>
<!-- c40 -->
<g id="node41" class="node"><title>c40</title>
<ellipse fill="lightgrey" stroke="black" cx="1063" cy="-391.035" rx="9" ry="9"/>
</g>
<!-- c40&#45;&gt;c22 -->
<g id="edge101" class="edge"><title>c40&#45;&gt;c22</title>
<path fill="none" stroke="black" d="M1070.33,-385.743C1095.95,-370.743 1181.33,-320.751 1207.38,-305.495"/>
</g>
<!-- c40&#45;&gt;c23 -->
<g id="edge102" class="edge"><title>c40&#45;&gt;c23</title>
<path fill="none" stroke="black" d="M1054.89,-386.868C1019.51,-373.057 878.914,-318.177 843.256,-304.258"/>
</g>
<!-- c40&#45;&gt;c24 -->
<g id="edge103" class="edge"><title>c40&#45;&gt;c24</title>
<path fill="none" stroke="black" d="M1063,-381.822C1063,-364.867 1063,-326.167 1063,-309.229"/>
</g>
<!-- c40&#45;&gt;c36 -->
<g id="edge104" class="edge"><title>c40&#45;&gt;c36</title>
<path fill="none" stroke="black" d="M1070.13,-385.329C1080.9,-377.956 1101.48,-362.781 1115,-346.035 1124.57,-334.186 1132.11,-317.946 1136.03,-308.564"/>
</g>
<!-- c40&#45;&gt;c40 -->
<g id="edge100" class="edge"><title>c40&#45;&gt;c40</title>
<path fill="none" stroke="none" d="M1070.19,-396.818C1079.23,-401.471 1090,-399.543 1090,-391.035 1090,-382.528 1079.23,-380.6 1070.19,-385.253"/>
<text text-anchor="middle" x="1064.2" y="-406.871" font-family="Times New Roman,serif" font-size="14.00">d</text>
</g>
<!-- c41 -->
<g id="node42" class="node"><title>c41</title>
<ellipse fill="lightgrey" stroke="black" cx="779" cy="-391.035" rx="9" ry="9"/>
</g>
<!-- c41&#45;&gt;c27 -->
<g id="edge105" class="edge"><title>c41&#45;&gt;c27</title>
<path fill="none" stroke="black" d="M786.097,-385.25C809.016,-369.797 880.899,-321.331 903.868,-305.844"/>
</g>
<!-- c41&#45;&gt;c28 -->
<g id="edge106" class="edge"><title>c41&#45;&gt;c28</title>
<path fill="none" stroke="black" d="M771.024,-386.655C737.76,-372.557 610.263,-318.523 576.984,-304.419"/>
</g>
<!-- c41&#45;&gt;c29 -->
<g id="edge107" class="edge"><title>c41&#45;&gt;c29</title>
<path fill="none" stroke="black" d="M773.462,-383.635C759.255,-367.214 721.639,-323.735 707.487,-307.378"/>
</g>
<!-- c41&#45;&gt;c36 -->
<g id="edge108" class="edge"><title>c41&#45;&gt;c36</title>
<path fill="none" stroke="black" d="M787.731,-388.076C795.418,-386.38 806.926,-383.912 817,-382.035 915.266,-363.734 943.27,-374.791 1039,-346.035 1075.1,-335.191 1115.18,-314.202 1131.49,-305.248"/>
</g>
<!-- c42 -->
<g id="node43" class="node"><title>c42</title>
<ellipse fill="lightgrey" stroke="black" cx="835" cy="-391.035" rx="9" ry="9"/>
</g>
<!-- c42&#45;&gt;c22 -->
<g id="edge110" class="edge"><title>c42&#45;&gt;c22</title>
<path fill="none" stroke="black" d="M843.814,-388.508C873.561,-383.3 972.921,-365.483 1054,-346.035 1112.98,-331.888 1182.97,-310.847 1206.68,-303.598"/>
</g>
<!-- c42&#45;&gt;c27 -->
<g id="edge111" class="edge"><title>c42&#45;&gt;c27</title>
<path fill="none" stroke="black" d="M843.958,-388.782C862.899,-385.593 906.765,-375.248 925,-346.035 932.712,-333.681 922.931,-316.751 916.255,-307.582"/>
</g>
<!-- c42&#45;&gt;c32 -->
<g id="edge112" class="edge"><title>c42&#45;&gt;c32</title>
<path fill="none" stroke="black" d="M826.85,-386.868C791.314,-373.057 650.107,-318.177 614.292,-304.258"/>
</g>
<!-- c42&#45;&gt;c42 -->
<g id="edge109" class="edge"><title>c42&#45;&gt;c42</title>
<path fill="none" stroke="none" d="M842.189,-396.818C851.232,-401.471 862,-399.543 862,-391.035 862,-382.528 851.232,-380.6 842.189,-385.253"/>
<text text-anchor="middle" x="836.201" y="-367.8" font-family="Times New Roman,serif" font-size="14.00">1</text>
</g>
<!-- c43 -->
<g id="node44" class="node"><title>c43</title>
<ellipse fill="lightgrey" stroke="black" cx="379" cy="-482.035" rx="9" ry="9"/>
</g>
<!-- c43&#45;&gt;c30 -->
<g id="edge114" class="edge"><title>c43&#45;&gt;c30</title>
<path fill="none" stroke="black" d="M370.836,-477.211C339.583,-462.572 227.756,-410.189 196.922,-395.746"/>
</g>
<!-- c43&#45;&gt;c35 -->
<g id="edge115" class="edge"><title>c43&#45;&gt;c35</title>
<path fill="none" stroke="black" d="M375.76,-473.447C368.581,-456.633 351.403,-416.401 344.232,-399.604"/>
</g>
<!-- c43&#45;&gt;c38 -->
<g id="edge116" class="edge"><title>c43&#45;&gt;c38</title>
<path fill="none" stroke="black" d="M379,-472.822C379,-455.867 379,-417.167 379,-400.229"/>
</g>
<!-- c43&#45;&gt;c39 -->
<g id="edge117" class="edge"><title>c43&#45;&gt;c39</title>
<path fill="none" stroke="black" d="M387.392,-478.562C430.738,-465.788 628.916,-407.385 672.505,-394.539"/>
</g>
<!-- c43&#45;&gt;c43 -->
<g id="edge113" class="edge"><title>c43&#45;&gt;c43</title>
<path fill="none" stroke="none" d="M386.189,-487.818C395.232,-492.471 406,-490.543 406,-482.035 406,-473.528 395.232,-471.6 386.189,-476.253"/>
<text text-anchor="middle" x="380.201" y="-497.871" font-family="Times New Roman,serif" font-size="14.00">a</text>
</g>
<!-- c44 -->
<g id="node45" class="node"><title>c44</title>
<ellipse fill="lightgrey" stroke="black" cx="474" cy="-482.035" rx="9" ry="9"/>
</g>
<!-- c44&#45;&gt;c33 -->
<g id="edge119" class="edge"><title>c44&#45;&gt;c33</title>
<path fill="none" stroke="black" d="M481.097,-476.25C504.016,-460.797 575.899,-412.331 598.868,-396.844"/>
</g>
<!-- c44&#45;&gt;c34 -->
<g id="edge120" class="edge"><title>c44&#45;&gt;c34</title>
<path fill="none" stroke="black" d="M466.062,-477.655C432.956,-463.557 306.067,-409.523 272.946,-395.419"/>
</g>
<!-- c44&#45;&gt;c35 -->
<g id="edge121" class="edge"><title>c44&#45;&gt;c35</title>
<path fill="none" stroke="black" d="M466.849,-476.25C443.756,-460.797 371.329,-412.331 348.186,-396.844"/>
</g>
<!-- c44&#45;&gt;c41 -->
<g id="edge122" class="edge"><title>c44&#45;&gt;c41</title>
<path fill="none" stroke="black" d="M482.476,-478.562C526.252,-465.788 726.399,-407.385 770.421,-394.539"/>
</g>
<!-- c44&#45;&gt;c44 -->
<g id="edge118" class="edge"><title>c44&#45;&gt;c44</title>
<path fill="none" stroke="none" d="M481.189,-487.818C490.232,-492.471 501,-490.543 501,-482.035 501,-473.528 490.232,-471.6 481.189,-476.253"/>
<text text-anchor="middle" x="475.201" y="-497.871" font-family="Times New Roman,serif" font-size="14.00">b</text>
</g>
<!-- c45 -->
<g id="node46" class="node"><title>c45</title>
<ellipse fill="lightgrey" stroke="black" cx="588" cy="-482.035" rx="9" ry="9"/>
</g>
<!-- c45&#45;&gt;c33 -->
<g id="edge124" class="edge"><title>c45&#45;&gt;c33</title>
<path fill="none" stroke="black" d="M589.597,-473.137C593.005,-456.291 600.953,-416.988 604.38,-400.044"/>
</g>
<!-- c45&#45;&gt;c38 -->
<g id="edge125" class="edge"><title>c45&#45;&gt;c38</title>
<path fill="none" stroke="black" d="M580.062,-477.655C546.956,-463.557 420.067,-409.523 386.946,-395.419"/>
</g>
<!-- c45&#45;&gt;c42 -->
<g id="edge126" class="edge"><title>c45&#45;&gt;c42</title>
<path fill="none" stroke="black" d="M596.218,-478.074C633.719,-464.562 788.411,-408.823 826.498,-395.099"/>
</g>
<!-- c45&#45;&gt;c45 -->
<g id="edge123" class="edge"><title>c45&#45;&gt;c45</title>
<path fill="none" stroke="none" d="M595.189,-487.818C604.232,-492.471 615,-490.543 615,-482.035 615,-473.528 604.232,-471.6 595.189,-476.253"/>
<text text-anchor="middle" x="589.201" y="-497.871" font-family="Times New Roman,serif" font-size="14.00">f</text>
</g>
<!-- c46 -->
<g id="node47" class="node"><title>c46</title>
<ellipse fill="lightgrey" stroke="black" cx="740" cy="-482.035" rx="9" ry="9"/>
</g>
<!-- c46&#45;&gt;c31 -->
<g id="edge128" class="edge"><title>c46&#45;&gt;c31</title>
<path fill="none" stroke="black" d="M732.208,-476.98C703.721,-462.153 605.399,-410.98 576.838,-396.115"/>
</g>
<!-- c46&#45;&gt;c39 -->
<g id="edge129" class="edge"><title>c46&#45;&gt;c39</title>
<path fill="none" stroke="black" d="M735.37,-474.052C724.396,-457.496 696.888,-416.003 685.772,-399.234"/>
</g>
<!-- c46&#45;&gt;c40 -->
<g id="edge130" class="edge"><title>c46&#45;&gt;c40</title>
<path fill="none" stroke="black" d="M748.639,-478.655C794.488,-466.022 1008.94,-406.931 1054.48,-394.382"/>
</g>
<!-- c46&#45;&gt;c41 -->
<g id="edge131" class="edge"><title>c46&#45;&gt;c41</title>
<path fill="none" stroke="black" d="M743.325,-473.447C750.693,-456.633 768.323,-416.401 775.683,-399.604"/>
</g>
<!-- c46&#45;&gt;c42 -->
<g id="edge132" class="edge"><title>c46&#45;&gt;c42</title>
<path fill="none" stroke="black" d="M747.967,-477.778C762.175,-471.639 792.159,-457.139 811,-437.035 821.414,-425.923 828.668,-409.429 832.307,-399.802"/>
</g>
<!-- c46&#45;&gt;c46 -->
<g id="edge127" class="edge"><title>c46&#45;&gt;c46</title>
<path fill="none" stroke="none" d="M747.189,-487.818C756.232,-492.471 767,-490.543 767,-482.035 767,-473.528 756.232,-471.6 747.189,-476.253"/>
<text text-anchor="middle" x="741.201" y="-497.871" font-family="Times New Roman,serif" font-size="14.00">g</text>
</g>
<!-- c47 -->
<g id="node48" class="node"><title>c47</title>
<ellipse fill="lightgrey" stroke="black" cx="474" cy="-573.035" rx="9" ry="9"/>
</g>
<!-- c47&#45;&gt;c37 -->
<g id="edge133" class="edge"><title>c47&#45;&gt;c37</title>
<path fill="none" stroke="black" d="M466.062,-568.655C432.956,-554.557 306.067,-500.523 272.946,-486.419"/>
</g>
<!-- c47&#45;&gt;c43 -->
<g id="edge134" class="edge"><title>c47&#45;&gt;c43</title>
<path fill="none" stroke="black" d="M467.767,-566.196C450.595,-550.108 402.727,-505.264 385.381,-489.013"/>
</g>
<!-- c47&#45;&gt;c44 -->
<g id="edge135" class="edge"><title>c47&#45;&gt;c44</title>
<path fill="none" stroke="black" d="M474,-563.822C474,-546.867 474,-508.167 474,-491.229"/>
</g>
<!-- c47&#45;&gt;c45 -->
<g id="edge136" class="edge"><title>c47&#45;&gt;c45</title>
<path fill="none" stroke="black" d="M480.79,-566.735C501.114,-550.868 561.3,-503.88 581.389,-488.197"/>
</g>
<!-- c47&#45;&gt;c46 -->
<g id="edge137" class="edge"><title>c47&#45;&gt;c46</title>
<path fill="none" stroke="black" d="M482.253,-569.274C521.801,-556.042 691.666,-499.207 731.58,-485.853"/>
</g>
</g>
</svg>
