<?xml version="1.0" encoding="UTF-8" standalone="no"?>
<!DOCTYPE svg PUBLIC "-//W3C//DTD SVG 1.1//EN"
 "http://www.w3.org/Graphics/SVG/1.1/DTD/svg11.dtd">
<!-- Generated by graphviz version 2.38.0 (20140413.2041)
 -->
<!-- Title: Lattice Pages: 1 -->
<svg width="671pt" height="390pt"
 viewBox="0.00 0.00 671.00 390.00" xmlns="http://www.w3.org/2000/svg" xmlns:xlink="http://www.w3.org/1999/xlink">
<g id="graph0" class="graph" transform="scale(1 1) rotate(0) translate(4 386)">
<title>Lattice</title>
<polygon fill="white" stroke="none" points="-4,4 -4,-386 667,-386 667,4 -4,4"/>
<!-- c0 -->
<g id="node1" class="node"><title>c0</title>
<ellipse fill="lightgrey" stroke="black" cx="350" cy="-9" rx="9" ry="9"/>
</g>
<!-- c1 -->
<g id="node2" class="node"><title>c1</title>
<ellipse fill="lightgrey" stroke="black" cx="66" cy="-100" rx="9" ry="9"/>
</g>
<!-- c1&#45;&gt;c0 -->
<g id="edge2" class="edge"><title>c1&#45;&gt;c0</title>
<path fill="none" stroke="black" d="M74.4996,-96.3364C116.308,-83.2343 299.8,-25.7318 341.534,-12.6532"/>
</g>
<!-- c1&#45;&gt;c1 -->
<g id="edge1" class="edge"><title>c1&#45;&gt;c1</title>
<path fill="none" stroke="none" d="M73.1891,-105.783C82.2323,-110.435 93,-108.508 93,-100 93,-91.4922 82.2323,-89.5646 73.1891,-94.2173"/>
<text text-anchor="middle" x="67.2007" y="-76.7646" font-family="Times New Roman,serif" font-size="14.00">1sg</text>
</g>
<!-- c2 -->
<g id="node3" class="node"><title>c2</title>
<ellipse fill="lightgrey" stroke="black" cx="318" cy="-100" rx="9" ry="9"/>
</g>
<!-- c2&#45;&gt;c0 -->
<g id="edge4" class="edge"><title>c2&#45;&gt;c0</title>
<path fill="none" stroke="black" d="M320.728,-91.4119C326.744,-74.6814 341.095,-34.7674 347.187,-17.8226"/>
</g>
<!-- c2&#45;&gt;c2 -->
<g id="edge3" class="edge"><title>c2&#45;&gt;c2</title>
<path fill="none" stroke="none" d="M325.189,-105.783C334.232,-110.435 345,-108.508 345,-100 345,-91.4922 334.232,-89.5646 325.189,-94.2173"/>
<text text-anchor="middle" x="319.201" y="-76.7646" font-family="Times New Roman,serif" font-size="14.00">1pl</text>
</g>
<!-- c3 -->
<g id="node4" class="node"><title>c3</title>
<ellipse fill="lightgrey" stroke="black" cx="180" cy="-100" rx="9" ry="9"/>
</g>
<!-- c3&#45;&gt;c0 -->
<g id="edge6" class="edge"><title>c3&#45;&gt;c0</title>
<path fill="none" stroke="black" d="M187.746,-94.9446C216.067,-80.118 313.814,-28.9446 342.208,-14.0792"/>
</g>
<!-- c3&#45;&gt;c3 -->
<g id="edge5" class="edge"><title>c3&#45;&gt;c3</title>
<path fill="none" stroke="none" d="M187.189,-105.783C196.232,-110.435 207,-108.508 207,-100 207,-91.4922 196.232,-89.5646 187.189,-94.2173"/>
<text text-anchor="middle" x="181.201" y="-76.7646" font-family="Times New Roman,serif" font-size="14.00">2sg</text>
</g>
<!-- c4 -->
<g id="node5" class="node"><title>c4</title>
<ellipse fill="lightgrey" stroke="black" cx="383" cy="-100" rx="9" ry="9"/>
</g>
<!-- c4&#45;&gt;c0 -->
<g id="edge8" class="edge"><title>c4&#45;&gt;c0</title>
<path fill="none" stroke="black" d="M380.186,-91.4119C373.952,-74.5973 359.034,-34.3656 352.806,-17.5689"/>
</g>
<!-- c4&#45;&gt;c4 -->
<g id="edge7" class="edge"><title>c4&#45;&gt;c4</title>
<path fill="none" stroke="none" d="M390.189,-105.783C399.232,-110.435 410,-108.508 410,-100 410,-91.4922 399.232,-89.5646 390.189,-94.2173"/>
<text text-anchor="middle" x="384.201" y="-76.7646" font-family="Times New Roman,serif" font-size="14.00">2pl</text>
</g>
<!-- c5 -->
<g id="node6" class="node"><title>c5</title>
<ellipse fill="lightgrey" stroke="black" cx="459" cy="-100" rx="9" ry="9"/>
</g>
<!-- c5&#45;&gt;c0 -->
<g id="edge10" class="edge"><title>c5&#45;&gt;c0</title>
<path fill="none" stroke="black" d="M452.508,-93.6992C433.167,-77.9071 376.071,-31.2874 356.596,-15.3856"/>
</g>
<!-- c5&#45;&gt;c5 -->
<g id="edge9" class="edge"><title>c5&#45;&gt;c5</title>
<path fill="none" stroke="none" d="M466.189,-105.783C475.232,-110.435 486,-108.508 486,-100 486,-91.4922 475.232,-89.5646 466.189,-94.2173"/>
<text text-anchor="middle" x="460.201" y="-76.7646" font-family="Times New Roman,serif" font-size="14.00">3sg</text>
</g>
<!-- c6 -->
<g id="node7" class="node"><title>c6</title>
<ellipse fill="lightgrey" stroke="black" cx="560" cy="-100" rx="9" ry="9"/>
</g>
<!-- c6&#45;&gt;c0 -->
<g id="edge12" class="edge"><title>c6&#45;&gt;c0</title>
<path fill="none" stroke="black" d="M552.024,-95.6198C518.76,-81.522 391.263,-27.4878 357.984,-13.3836"/>
</g>
<!-- c6&#45;&gt;c6 -->
<g id="edge11" class="edge"><title>c6&#45;&gt;c6</title>
<path fill="none" stroke="none" d="M567.189,-105.783C576.232,-110.435 587,-108.508 587,-100 587,-91.4922 576.232,-89.5646 567.189,-94.2173"/>
<text text-anchor="middle" x="561.201" y="-76.7646" font-family="Times New Roman,serif" font-size="14.00">3pl</text>
</g>
<!-- c7 -->
<g id="node8" class="node"><title>c7</title>
<ellipse fill="lightgrey" stroke="black" cx="87" cy="-191" rx="9" ry="9"/>
</g>
<!-- c7&#45;&gt;c1 -->
<g id="edge14" class="edge"><title>c7&#45;&gt;c1</title>
<path fill="none" stroke="black" d="M83.597,-182.381C79.8878,-173.739 74.0723,-159.138 71,-146 68.0289,-133.294 66.8086,-118.145 66.3178,-109.064"/>
</g>
<!-- c7&#45;&gt;c2 -->
<g id="edge15" class="edge"><title>c7&#45;&gt;c2</title>
<path fill="none" stroke="black" d="M95.2214,-186.832C131.067,-173.022 273.508,-118.142 309.636,-104.223"/>
</g>
<!-- c7&#45;&gt;c7 -->
<g id="edge13" class="edge"><title>c7&#45;&gt;c7</title>
<path fill="none" stroke="none" d="M94.1891,-196.783C103.232,-201.435 114,-199.508 114,-191 114,-182.492 103.232,-180.565 94.1891,-185.217"/>
<text text-anchor="middle" x="88.2007" y="-206.835" font-family="Times New Roman,serif" font-size="14.00">+1</text>
</g>
<!-- c8 -->
<g id="node9" class="node"><title>c8</title>
<ellipse fill="lightgrey" stroke="black" cx="9" cy="-191" rx="9" ry="9"/>
</g>
<!-- c8&#45;&gt;c1 -->
<g id="edge16" class="edge"><title>c8&#45;&gt;c1</title>
<path fill="none" stroke="black" d="M13.4727,-183.016C24.0755,-166.461 50.6503,-124.967 61.3898,-108.198"/>
</g>
<!-- c8&#45;&gt;c3 -->
<g id="edge17" class="edge"><title>c8&#45;&gt;c3</title>
<path fill="none" stroke="black" d="M16.7919,-185.945C45.2788,-171.118 143.601,-119.945 172.162,-105.079"/>
</g>
<!-- c9 -->
<g id="node10" class="node"><title>c9</title>
<ellipse fill="lightgrey" stroke="black" cx="256" cy="-191" rx="9" ry="9"/>
</g>
<!-- c9&#45;&gt;c1 -->
<g id="edge18" class="edge"><title>c9&#45;&gt;c1</title>
<path fill="none" stroke="black" d="M247.836,-186.176C216.583,-171.536 104.756,-119.154 73.9222,-104.711"/>
</g>
<!-- c9&#45;&gt;c5 -->
<g id="edge19" class="edge"><title>c9&#45;&gt;c5</title>
<path fill="none" stroke="black" d="M264.209,-186.401C296.995,-172.027 418.343,-118.825 450.911,-104.546"/>
</g>
<!-- c10 -->
<g id="node11" class="node"><title>c10</title>
<ellipse fill="lightgrey" stroke="black" cx="323" cy="-191" rx="9" ry="9"/>
</g>
<!-- c10&#45;&gt;c2 -->
<g id="edge20" class="edge"><title>c10&#45;&gt;c2</title>
<path fill="none" stroke="black" d="M322.539,-181.787C321.586,-164.832 319.412,-126.131 318.46,-109.194"/>
</g>
<!-- c10&#45;&gt;c4 -->
<g id="edge21" class="edge"><title>c10&#45;&gt;c4</title>
<path fill="none" stroke="black" d="M327.708,-183.016C338.869,-166.461 366.842,-124.967 378.147,-108.198"/>
</g>
<!-- c11 -->
<g id="node12" class="node"><title>c11</title>
<ellipse fill="lightgrey" stroke="black" cx="427" cy="-191" rx="9" ry="9"/>
</g>
<!-- c11&#45;&gt;c2 -->
<g id="edge22" class="edge"><title>c11&#45;&gt;c2</title>
<path fill="none" stroke="black" d="M420.508,-184.699C401.167,-168.907 344.071,-122.287 324.596,-106.386"/>
</g>
<!-- c11&#45;&gt;c6 -->
<g id="edge23" class="edge"><title>c11&#45;&gt;c6</title>
<path fill="none" stroke="black" d="M434.151,-185.215C457.244,-169.762 529.671,-121.296 552.814,-105.809"/>
</g>
<!-- c12 -->
<g id="node13" class="node"><title>c12</title>
<ellipse fill="lightgrey" stroke="black" cx="181" cy="-191" rx="9" ry="9"/>
</g>
<!-- c12&#45;&gt;c3 -->
<g id="edge25" class="edge"><title>c12&#45;&gt;c3</title>
<path fill="none" stroke="black" d="M180.908,-181.787C180.717,-164.832 180.282,-126.131 180.092,-109.194"/>
</g>
<!-- c12&#45;&gt;c4 -->
<g id="edge26" class="edge"><title>c12&#45;&gt;c4</title>
<path fill="none" stroke="black" d="M189.169,-186.401C221.793,-172.027 342.543,-118.825 374.951,-104.546"/>
</g>
<!-- c12&#45;&gt;c12 -->
<g id="edge24" class="edge"><title>c12&#45;&gt;c12</title>
<path fill="none" stroke="none" d="M188.189,-196.783C197.232,-201.435 208,-199.508 208,-191 208,-182.492 197.232,-180.565 188.189,-185.217"/>
<text text-anchor="middle" x="182.201" y="-206.835" font-family="Times New Roman,serif" font-size="14.00">+2</text>
</g>
<!-- c13 -->
<g id="node14" class="node"><title>c13</title>
<ellipse fill="lightgrey" stroke="black" cx="370" cy="-191" rx="9" ry="9"/>
</g>
<!-- c13&#45;&gt;c3 -->
<g id="edge27" class="edge"><title>c13&#45;&gt;c3</title>
<path fill="none" stroke="black" d="M361.836,-186.176C330.583,-171.536 218.756,-119.154 187.922,-104.711"/>
</g>
<!-- c13&#45;&gt;c5 -->
<g id="edge28" class="edge"><title>c13&#45;&gt;c5</title>
<path fill="none" stroke="black" d="M376.117,-183.883C392.455,-167.545 436.959,-123.041 453.074,-106.926"/>
</g>
<!-- c14 -->
<g id="node15" class="node"><title>c14</title>
<ellipse fill="lightgrey" stroke="black" cx="579" cy="-191" rx="9" ry="9"/>
</g>
<!-- c14&#45;&gt;c4 -->
<g id="edge29" class="edge"><title>c14&#45;&gt;c4</title>
<path fill="none" stroke="black" d="M571.074,-186.401C539.419,-172.027 422.255,-118.825 390.81,-104.546"/>
</g>
<!-- c14&#45;&gt;c6 -->
<g id="edge30" class="edge"><title>c14&#45;&gt;c6</title>
<path fill="none" stroke="black" d="M577.314,-182.102C573.717,-165.255 565.327,-125.953 561.71,-109.008"/>
</g>
<!-- c15 -->
<g id="node16" class="node"><title>c15</title>
<ellipse fill="lightgrey" stroke="black" cx="636" cy="-191" rx="9" ry="9"/>
</g>
<!-- c15&#45;&gt;c5 -->
<g id="edge32" class="edge"><title>c15&#45;&gt;c5</title>
<path fill="none" stroke="black" d="M628.395,-186.176C599.412,-171.603 496.049,-119.629 466.776,-104.91"/>
</g>
<!-- c15&#45;&gt;c6 -->
<g id="edge33" class="edge"><title>c15&#45;&gt;c6</title>
<path fill="none" stroke="black" d="M637.102,-182.002C637.999,-172.435 638.136,-156.298 631,-145 616.287,-121.705 584.304,-108.751 568.79,-103.621"/>
</g>
<!-- c15&#45;&gt;c15 -->
<g id="edge31" class="edge"><title>c15&#45;&gt;c15</title>
<path fill="none" stroke="none" d="M643.189,-196.783C652.232,-201.435 663,-199.508 663,-191 663,-182.492 652.232,-180.565 643.189,-185.217"/>
<text text-anchor="middle" x="637.201" y="-206.835" font-family="Times New Roman,serif" font-size="14.00">+3</text>
</g>
<!-- c16 -->
<g id="node17" class="node"><title>c16</title>
<ellipse fill="lightgrey" stroke="black" cx="218" cy="-282" rx="9" ry="9"/>
</g>
<!-- c16&#45;&gt;c8 -->
<g id="edge35" class="edge"><title>c16&#45;&gt;c8</title>
<path fill="none" stroke="black" d="M210.062,-277.62C176.956,-263.522 50.0668,-209.488 16.9458,-195.384"/>
</g>
<!-- c16&#45;&gt;c9 -->
<g id="edge36" class="edge"><title>c16&#45;&gt;c9</title>
<path fill="none" stroke="black" d="M221.24,-273.412C228.419,-256.597 245.597,-216.366 252.768,-199.569"/>
</g>
<!-- c16&#45;&gt;c13 -->
<g id="edge37" class="edge"><title>c16&#45;&gt;c13</title>
<path fill="none" stroke="black" d="M225.331,-276.707C250.95,-261.707 336.329,-211.715 362.384,-196.459"/>
</g>
<!-- c16&#45;&gt;c16 -->
<g id="edge34" class="edge"><title>c16&#45;&gt;c16</title>
<path fill="none" stroke="none" d="M225.189,-287.783C234.232,-292.435 245,-290.508 245,-282 245,-273.492 234.232,-271.565 225.189,-276.217"/>
<text text-anchor="middle" x="219.201" y="-297.835" font-family="Times New Roman,serif" font-size="14.00">+sg &#45;pl</text>
</g>
<!-- c17 -->
<g id="node18" class="node"><title>c17</title>
<ellipse fill="lightgrey" stroke="black" cx="408" cy="-282" rx="9" ry="9"/>
</g>
<!-- c17&#45;&gt;c10 -->
<g id="edge39" class="edge"><title>c17&#45;&gt;c10</title>
<path fill="none" stroke="black" d="M402.158,-274.883C386.704,-258.702 344.865,-214.894 329.111,-198.398"/>
</g>
<!-- c17&#45;&gt;c11 -->
<g id="edge40" class="edge"><title>c17&#45;&gt;c11</title>
<path fill="none" stroke="black" d="M409.686,-273.102C413.283,-256.255 421.673,-216.953 425.29,-200.008"/>
</g>
<!-- c17&#45;&gt;c14 -->
<g id="edge41" class="edge"><title>c17&#45;&gt;c14</title>
<path fill="none" stroke="black" d="M415.792,-276.945C444.279,-262.118 542.601,-210.945 571.162,-196.079"/>
</g>
<!-- c17&#45;&gt;c17 -->
<g id="edge38" class="edge"><title>c17&#45;&gt;c17</title>
<path fill="none" stroke="none" d="M415.189,-287.783C424.232,-292.435 435,-290.508 435,-282 435,-273.492 424.232,-271.565 415.189,-276.217"/>
<text text-anchor="middle" x="409.201" y="-297.835" font-family="Times New Roman,serif" font-size="14.00">+pl &#45;sg</text>
</g>
<!-- c18 -->
<g id="node19" class="node"><title>c18</title>
<ellipse fill="lightgrey" stroke="black" cx="123" cy="-282" rx="9" ry="9"/>
</g>
<!-- c18&#45;&gt;c7 -->
<g id="edge43" class="edge"><title>c18&#45;&gt;c7</title>
<path fill="none" stroke="black" d="M119.931,-273.412C113.129,-256.597 96.8558,-216.366 90.0616,-199.569"/>
</g>
<!-- c18&#45;&gt;c8 -->
<g id="edge44" class="edge"><title>c18&#45;&gt;c8</title>
<path fill="none" stroke="black" d="M116.21,-275.699C95.8863,-259.832 35.7001,-212.845 15.6114,-197.162"/>
</g>
<!-- c18&#45;&gt;c10 -->
<g id="edge45" class="edge"><title>c18&#45;&gt;c10</title>
<path fill="none" stroke="black" d="M131.088,-277.401C163.389,-263.027 282.944,-209.825 315.031,-195.546"/>
</g>
<!-- c18&#45;&gt;c12 -->
<g id="edge46" class="edge"><title>c18&#45;&gt;c12</title>
<path fill="none" stroke="black" d="M127.551,-274.016C138.34,-257.461 165.381,-215.967 176.309,-199.198"/>
</g>
<!-- c18&#45;&gt;c18 -->
<g id="edge42" class="edge"><title>c18&#45;&gt;c18</title>
<path fill="none" stroke="none" d="M130.189,-287.783C139.232,-292.435 150,-290.508 150,-282 150,-273.492 139.232,-271.565 130.189,-276.217"/>
<text text-anchor="middle" x="124.201" y="-297.835" font-family="Times New Roman,serif" font-size="14.00">&#45;3</text>
</g>
<!-- c19 -->
<g id="node20" class="node"><title>c19</title>
<ellipse fill="lightgrey" stroke="black" cx="332" cy="-282" rx="9" ry="9"/>
</g>
<!-- c19&#45;&gt;c7 -->
<g id="edge48" class="edge"><title>c19&#45;&gt;c7</title>
<path fill="none" stroke="black" d="M323.848,-278.039C286.651,-264.526 133.212,-208.787 95.4335,-195.064"/>
</g>
<!-- c19&#45;&gt;c9 -->
<g id="edge49" class="edge"><title>c19&#45;&gt;c9</title>
<path fill="none" stroke="black" d="M326.534,-274.599C312.512,-258.178 275.384,-214.7 261.416,-198.343"/>
</g>
<!-- c19&#45;&gt;c11 -->
<g id="edge50" class="edge"><title>c19&#45;&gt;c11</title>
<path fill="none" stroke="black" d="M338.233,-275.16C355.405,-259.073 403.273,-214.229 420.619,-197.978"/>
</g>
<!-- c19&#45;&gt;c15 -->
<g id="edge51" class="edge"><title>c19&#45;&gt;c15</title>
<path fill="none" stroke="black" d="M340.448,-278.527C384.08,-265.753 583.572,-207.349 627.449,-194.503"/>
</g>
<!-- c19&#45;&gt;c19 -->
<g id="edge47" class="edge"><title>c19&#45;&gt;c19</title>
<path fill="none" stroke="none" d="M339.189,-287.783C348.232,-292.435 359,-290.508 359,-282 359,-273.492 348.232,-271.565 339.189,-276.217"/>
<text text-anchor="middle" x="333.201" y="-297.835" font-family="Times New Roman,serif" font-size="14.00">&#45;2</text>
</g>
<!-- c20 -->
<g id="node21" class="node"><title>c20</title>
<ellipse fill="lightgrey" stroke="black" cx="541" cy="-282" rx="9" ry="9"/>
</g>
<!-- c20&#45;&gt;c12 -->
<g id="edge53" class="edge"><title>c20&#45;&gt;c12</title>
<path fill="none" stroke="black" d="M532.456,-278.888C483.477,-266.779 238.815,-206.293 189.624,-194.132"/>
</g>
<!-- c20&#45;&gt;c13 -->
<g id="edge54" class="edge"><title>c20&#45;&gt;c13</title>
<path fill="none" stroke="black" d="M534.483,-275.435C523.565,-266.309 500.641,-247.985 479,-236 443.474,-216.326 397.315,-200.651 378.521,-194.647"/>
</g>
<!-- c20&#45;&gt;c14 -->
<g id="edge55" class="edge"><title>c20&#45;&gt;c14</title>
<path fill="none" stroke="black" d="M548.854,-277.201C560.987,-270.834 583.845,-256.74 593,-237 599.059,-223.937 590.17,-207.566 584.022,-198.61"/>
</g>
<!-- c20&#45;&gt;c15 -->
<g id="edge56" class="edge"><title>c20&#45;&gt;c15</title>
<path fill="none" stroke="black" d="M548.652,-277.241C561.756,-270.53 588.836,-255.449 607,-237 618.346,-225.476 627.666,-208.829 632.472,-199.346"/>
</g>
<!-- c20&#45;&gt;c20 -->
<g id="edge52" class="edge"><title>c20&#45;&gt;c20</title>
<path fill="none" stroke="none" d="M548.189,-287.783C557.232,-292.435 568,-290.508 568,-282 568,-273.492 557.232,-271.565 548.189,-276.217"/>
<text text-anchor="middle" x="542.201" y="-297.835" font-family="Times New Roman,serif" font-size="14.00">&#45;1</text>
</g>
<!-- c21 -->
<g id="node22" class="node"><title>c21</title>
<ellipse fill="lightgrey" stroke="black" cx="332" cy="-373" rx="9" ry="9"/>
</g>
<!-- c21&#45;&gt;c16 -->
<g id="edge57" class="edge"><title>c21&#45;&gt;c16</title>
<path fill="none" stroke="black" d="M325.21,-366.699C304.886,-350.832 244.7,-303.845 224.611,-288.162"/>
</g>
<!-- c21&#45;&gt;c17 -->
<g id="edge58" class="edge"><title>c21&#45;&gt;c17</title>
<path fill="none" stroke="black" d="M337.466,-365.599C351.488,-349.178 388.616,-305.7 402.584,-289.343"/>
</g>
<!-- c21&#45;&gt;c18 -->
<g id="edge59" class="edge"><title>c21&#45;&gt;c18</title>
<path fill="none" stroke="black" d="M324.062,-368.62C290.956,-354.522 164.067,-300.488 130.946,-286.384"/>
</g>
<!-- c21&#45;&gt;c19 -->
<g id="edge60" class="edge"><title>c21&#45;&gt;c19</title>
<path fill="none" stroke="black" d="M332,-363.787C332,-346.832 332,-308.131 332,-291.194"/>
</g>
<!-- c21&#45;&gt;c20 -->
<g id="edge61" class="edge"><title>c21&#45;&gt;c20</title>
<path fill="none" stroke="black" d="M339.938,-368.62C373.044,-354.522 499.933,-300.488 533.054,-286.384"/>
</g>
</g>
</svg>
