<?xml version="1.0" encoding="UTF-8" standalone="no"?>
<!DOCTYPE svg PUBLIC "-//W3C//DTD SVG 1.1//EN"
 "http://www.w3.org/Graphics/SVG/1.1/DTD/svg11.dtd">
<!-- Generated by graphviz version 2.38.0 (20140413.2041)
 -->
<!-- Title: Lattice Pages: 1 -->
<svg width="150pt" height="316pt"
 viewBox="0.00 0.00 149.99 316.00" xmlns="http://www.w3.org/2000/svg" xmlns:xlink="http://www.w3.org/1999/xlink">
<g id="graph0" class="graph" transform="scale(1 1) rotate(0) translate(4 312)">
<title>Lattice</title>
<polygon fill="white" stroke="none" points="-4,4 -4,-312 145.99,-312 145.99,4 -4,4"/>
<!-- c0 -->
<g id="node1" class="node"><title>c0</title>
<ellipse fill="lightgrey" stroke="black" cx="59.9902" cy="-9" rx="9" ry="9"/>
</g>
<!-- c1 -->
<g id="node2" class="node"><title>c1</title>
<ellipse fill="lightgrey" stroke="black" cx="96.9902" cy="-100" rx="9" ry="9"/>
</g>
<!-- c1&#45;&gt;c0 -->
<g id="edge3" class="edge"><title>c1&#45;&gt;c0</title>
<path fill="none" stroke="black" d="M93.8356,-91.4119C86.8453,-74.5973 70.1197,-34.3656 63.1368,-17.5689"/>
</g>
<!-- c1&#45;&gt;c1 -->
<g id="edge1" class="edge"><title>c1&#45;&gt;c1</title>
<path fill="none" stroke="none" d="M105.561,-103.219C114.283,-105.112 123.99,-104.039 123.99,-100 123.99,-95.9609 114.283,-94.8881 105.561,-96.7814"/>
<text text-anchor="middle" x="102.879" y="-78.3232" font-family="Times New Roman,serif" font-size="14.00">King Arthur</text>
</g>
<!-- c1&#45;&gt;c1 -->
<g id="edge2" class="edge"><title>c1&#45;&gt;c1</title>
<path fill="none" stroke="none" d="M104.948,-104.351C120.633,-110.731 141.99,-109.281 141.99,-100 141.99,-90.7188 120.633,-89.2686 104.948,-95.6494"/>
<text text-anchor="middle" x="100.039" y="-114.824" font-family="Times New Roman,serif" font-size="14.00">king</text>
</g>
<!-- c2 -->
<g id="node3" class="node"><title>c2</title>
<ellipse fill="lightgrey" stroke="black" cx="28.9902" cy="-154" rx="9" ry="9"/>
</g>
<!-- c2&#45;&gt;c0 -->
<g id="edge6" class="edge"><title>c2&#45;&gt;c0</title>
<path fill="none" stroke="black" d="M30.7457,-144.902C36.2021,-119.732 52.824,-43.0572 58.254,-18.0092"/>
</g>
<!-- c2&#45;&gt;c2 -->
<g id="edge4" class="edge"><title>c2&#45;&gt;c2</title>
<path fill="none" stroke="none" d="M37.2831,-157.875C46.0751,-160.301 55.9902,-159.01 55.9902,-154 55.9902,-148.99 46.0751,-147.699 37.2831,-150.125"/>
<text text-anchor="middle" x="33.897" y="-131.812" font-family="Times New Roman,serif" font-size="14.00">holy grail</text>
</g>
<!-- c2&#45;&gt;c2 -->
<g id="edge5" class="edge"><title>c2&#45;&gt;c2</title>
<path fill="none" stroke="none" d="M36.5142,-159.119C52.2355,-167.203 73.9902,-165.496 73.9902,-154 73.9902,-142.504 52.2355,-140.797 36.5142,-148.881"/>
<text text-anchor="middle" x="30.5" y="-169.161" font-family="Times New Roman,serif" font-size="14.00">mysterious</text>
</g>
<!-- c3 -->
<g id="node4" class="node"><title>c3</title>
<ellipse fill="lightgrey" stroke="black" cx="96.9902" cy="-208" rx="9" ry="9"/>
</g>
<!-- c3&#45;&gt;c1 -->
<g id="edge9" class="edge"><title>c3&#45;&gt;c1</title>
<path fill="none" stroke="black" d="M96.9902,-198.682C96.9902,-178.867 96.9902,-129.055 96.9902,-109.279"/>
</g>
<!-- c3&#45;&gt;c3 -->
<g id="edge7" class="edge"><title>c3&#45;&gt;c3</title>
<path fill="none" stroke="none" d="M105.561,-211.219C114.283,-213.112 123.99,-212.039 123.99,-208 123.99,-203.961 114.283,-202.888 105.561,-204.781"/>
<text text-anchor="middle" x="102.879" y="-186.323" font-family="Times New Roman,serif" font-size="14.00">Sir Robin</text>
</g>
<!-- c3&#45;&gt;c3 -->
<g id="edge8" class="edge"><title>c3&#45;&gt;c3</title>
<path fill="none" stroke="none" d="M104.948,-212.351C120.633,-218.731 141.99,-217.281 141.99,-208 141.99,-198.719 120.633,-197.269 104.948,-203.649"/>
<text text-anchor="middle" x="100.039" y="-222.824" font-family="Times New Roman,serif" font-size="14.00">human knight</text>
</g>
<!-- c4 -->
<g id="node5" class="node"><title>c4</title>
<ellipse fill="lightgrey" stroke="black" cx="66.9902" cy="-299" rx="9" ry="9"/>
</g>
<!-- c4&#45;&gt;c2 -->
<g id="edge10" class="edge"><title>c4&#45;&gt;c2</title>
<path fill="none" stroke="black" d="M64.8383,-289.902C58.1499,-264.732 37.7746,-188.057 31.1185,-163.009"/>
</g>
<!-- c4&#45;&gt;c3 -->
<g id="edge11" class="edge"><title>c4&#45;&gt;c3</title>
<path fill="none" stroke="black" d="M69.6525,-290.102C75.3599,-273.17 88.7132,-233.555 94.3767,-216.753"/>
</g>
</g>
</svg>
