<?xml version="1.0" encoding="UTF-8" standalone="no"?>
<!DOCTYPE svg PUBLIC "-//W3C//DTD SVG 1.1//EN"
 "http://www.w3.org/Graphics/SVG/1.1/DTD/svg11.dtd">
<!-- Generated by graphviz version 2.38.0 (20140413.2041)
 -->
<!-- Title: Lattice Pages: 1 -->
<svg width="437pt" height="533pt"
 viewBox="0.00 0.00 437.30 533.04" xmlns="http://www.w3.org/2000/svg" xmlns:xlink="http://www.w3.org/1999/xlink">
<g id="graph0" class="graph" transform="scale(1 1) rotate(0) translate(4 529.035)">
<title>Lattice</title>
<polygon fill="white" stroke="none" points="-4,4 -4,-529.035 433.299,-529.035 433.299,4 -4,4"/>
<!-- c0 -->
<g id="node1" class="node"><title>c0</title>
<ellipse fill="lightgrey" stroke="black" cx="244.299" cy="-9" rx="9" ry="9"/>
</g>
<!-- c1 -->
<g id="node2" class="node"><title>c1</title>
<ellipse fill="lightgrey" stroke="black" cx="146.299" cy="-100" rx="9" ry="9"/>
</g>
<!-- c1&#45;&gt;c0 -->
<g id="edge2" class="edge"><title>c1&#45;&gt;c0</title>
<path fill="none" stroke="black" d="M152.729,-93.1605C170.444,-77.0729 219.823,-32.2287 237.717,-15.9777"/>
</g>
<!-- c1&#45;&gt;c1 -->
<g id="edge1" class="edge"><title>c1&#45;&gt;c1</title>
<path fill="none" stroke="none" d="M153.488,-105.783C162.532,-110.435 173.299,-108.508 173.299,-100 173.299,-91.4922 162.532,-89.5646 153.488,-94.2173"/>
<text text-anchor="middle" x="147.5" y="-76.7646" font-family="Times New Roman,serif" font-size="14.00">frog</text>
</g>
<!-- c2 -->
<g id="node3" class="node"><title>c2</title>
<ellipse fill="lightgrey" stroke="black" cx="212.299" cy="-100" rx="9" ry="9"/>
</g>
<!-- c2&#45;&gt;c0 -->
<g id="edge5" class="edge"><title>c2&#45;&gt;c0</title>
<path fill="none" stroke="black" d="M215.028,-91.4119C221.043,-74.6814 235.394,-34.7674 241.487,-17.8226"/>
</g>
<!-- c2&#45;&gt;c2 -->
<g id="edge3" class="edge"><title>c2&#45;&gt;c2</title>
<path fill="none" stroke="none" d="M220.87,-103.219C229.592,-105.112 239.299,-104.039 239.299,-100 239.299,-95.9609 229.592,-94.8881 220.87,-96.7814"/>
<text text-anchor="middle" x="218.188" y="-78.3232" font-family="Times New Roman,serif" font-size="14.00">dog</text>
</g>
<!-- c2&#45;&gt;c2 -->
<g id="edge4" class="edge"><title>c2&#45;&gt;c2</title>
<path fill="none" stroke="none" d="M220.258,-104.351C235.942,-110.731 257.299,-109.281 257.299,-100 257.299,-90.7188 235.942,-89.2686 220.258,-95.6494"/>
<text text-anchor="middle" x="215.348" y="-114.824" font-family="Times New Roman,serif" font-size="14.00">breast feeds</text>
</g>
<!-- c3 -->
<g id="node4" class="node"><title>c3</title>
<ellipse fill="lightgrey" stroke="black" cx="286.299" cy="-100" rx="9" ry="9"/>
</g>
<!-- c3&#45;&gt;c0 -->
<g id="edge7" class="edge"><title>c3&#45;&gt;c0</title>
<path fill="none" stroke="black" d="M282.718,-91.4119C274.783,-74.5973 255.798,-34.3656 247.871,-17.5689"/>
</g>
<!-- c3&#45;&gt;c3 -->
<g id="edge6" class="edge"><title>c3&#45;&gt;c3</title>
<path fill="none" stroke="none" d="M293.488,-105.783C302.532,-110.435 313.299,-108.508 313.299,-100 313.299,-91.4922 302.532,-89.5646 293.488,-94.2173"/>
<text text-anchor="middle" x="287.5" y="-76.7646" font-family="Times New Roman,serif" font-size="14.00">reed</text>
</g>
<!-- c4 -->
<g id="node5" class="node"><title>c4</title>
<ellipse fill="lightgrey" stroke="black" cx="384.299" cy="-154" rx="9" ry="9"/>
</g>
<!-- c4&#45;&gt;c0 -->
<g id="edge10" class="edge"><title>c4&#45;&gt;c0</title>
<path fill="none" stroke="black" d="M378.284,-146.855C355.255,-123.333 272.856,-39.1687 250.137,-15.9625"/>
</g>
<!-- c4&#45;&gt;c4 -->
<g id="edge8" class="edge"><title>c4&#45;&gt;c4</title>
<path fill="none" stroke="none" d="M392.592,-157.875C401.384,-160.301 411.299,-159.01 411.299,-154 411.299,-148.99 401.384,-147.699 392.592,-150.125"/>
<text text-anchor="middle" x="389.206" y="-131.812" font-family="Times New Roman,serif" font-size="14.00">bean</text>
</g>
<!-- c4&#45;&gt;c4 -->
<g id="edge9" class="edge"><title>c4&#45;&gt;c4</title>
<path fill="none" stroke="none" d="M391.823,-159.119C407.545,-167.203 429.299,-165.496 429.299,-154 429.299,-142.504 407.545,-140.797 391.823,-148.881"/>
<text text-anchor="middle" x="385.809" y="-169.161" font-family="Times New Roman,serif" font-size="14.00">dicotyledon</text>
</g>
<!-- c5 -->
<g id="node6" class="node"><title>c5</title>
<ellipse fill="lightgrey" stroke="black" cx="79.2993" cy="-208" rx="9" ry="9"/>
</g>
<!-- c5&#45;&gt;c1 -->
<g id="edge12" class="edge"><title>c5&#45;&gt;c1</title>
<path fill="none" stroke="black" d="M83.6954,-200.045C95.8063,-180.885 129.565,-127.475 141.799,-108.12"/>
</g>
<!-- c5&#45;&gt;c5 -->
<g id="edge11" class="edge"><title>c5&#45;&gt;c5</title>
<path fill="none" stroke="none" d="M85.6714,-214.556C94.8692,-220.943 106.299,-218.758 106.299,-208 106.299,-197.242 94.8692,-195.057 85.6714,-201.444"/>
<text text-anchor="middle" x="78.0505" y="-184.825" font-family="Times New Roman,serif" font-size="14.00">bream</text>
</g>
<!-- c6 -->
<g id="node7" class="node"><title>c6</title>
<ellipse fill="lightgrey" stroke="black" cx="192.299" cy="-208" rx="9" ry="9"/>
</g>
<!-- c6&#45;&gt;c1 -->
<g id="edge13" class="edge"><title>c6&#45;&gt;c1</title>
<path fill="none" stroke="black" d="M188.991,-199.377C180.504,-179.819 158.032,-128.036 149.578,-108.554"/>
</g>
<!-- c6&#45;&gt;c2 -->
<g id="edge14" class="edge"><title>c6&#45;&gt;c2</title>
<path fill="none" stroke="black" d="M193.803,-199.033C197.509,-179.389 207.054,-128.801 210.779,-109.06"/>
</g>
<!-- c7 -->
<g id="node8" class="node"><title>c7</title>
<ellipse fill="lightgrey" stroke="black" cx="168.299" cy="-262" rx="9" ry="9"/>
</g>
<!-- c7&#45;&gt;c1 -->
<g id="edge15" class="edge"><title>c7&#45;&gt;c1</title>
<path fill="none" stroke="black" d="M167.178,-252.846C163.395,-225.335 151.132,-136.148 147.392,-108.948"/>
</g>
<!-- c7&#45;&gt;c3 -->
<g id="edge16" class="edge"><title>c7&#45;&gt;c3</title>
<path fill="none" stroke="black" d="M174.365,-255.335C182.871,-247.243 198.611,-231.721 210.299,-217 241.14,-178.158 271.558,-126.715 282.264,-108.101"/>
</g>
<!-- c8 -->
<g id="node9" class="node"><title>c8</title>
<ellipse fill="lightgrey" stroke="black" cx="286.299" cy="-208" rx="9" ry="9"/>
</g>
<!-- c8&#45;&gt;c3 -->
<g id="edge18" class="edge"><title>c8&#45;&gt;c3</title>
<path fill="none" stroke="black" d="M286.299,-198.682C286.299,-178.867 286.299,-129.055 286.299,-109.279"/>
</g>
<!-- c8&#45;&gt;c8 -->
<g id="edge17" class="edge"><title>c8&#45;&gt;c8</title>
<path fill="none" stroke="none" d="M292.671,-214.556C301.869,-220.943 313.299,-218.758 313.299,-208 313.299,-197.242 301.869,-195.057 292.671,-201.444"/>
<text text-anchor="middle" x="285.051" y="-184.825" font-family="Times New Roman,serif" font-size="14.00">water weeds</text>
</g>
<!-- c9 -->
<g id="node10" class="node"><title>c9</title>
<ellipse fill="lightgrey" stroke="black" cx="340.299" cy="-208" rx="9" ry="9"/>
</g>
<!-- c9&#45;&gt;c3 -->
<g id="edge20" class="edge"><title>c9&#45;&gt;c3</title>
<path fill="none" stroke="black" d="M336.588,-199.714C326.723,-180.35 299.932,-127.76 290.037,-108.337"/>
</g>
<!-- c9&#45;&gt;c9 -->
<g id="edge19" class="edge"><title>c9&#45;&gt;c9</title>
<path fill="none" stroke="none" d="M346.671,-214.556C355.869,-220.943 367.299,-218.758 367.299,-208 367.299,-197.242 355.869,-195.057 346.671,-201.444"/>
<text text-anchor="middle" x="339.051" y="-184.825" font-family="Times New Roman,serif" font-size="14.00">corn</text>
</g>
<!-- c10 -->
<g id="node11" class="node"><title>c10</title>
<ellipse fill="lightgrey" stroke="black" cx="25.2993" cy="-316" rx="9" ry="9"/>
</g>
<!-- c10&#45;&gt;c5 -->
<g id="edge22" class="edge"><title>c10&#45;&gt;c5</title>
<path fill="none" stroke="black" d="M29.011,-307.714C38.8759,-288.35 65.6671,-235.76 75.5617,-216.337"/>
</g>
<!-- c10&#45;&gt;c10 -->
<g id="edge21" class="edge"><title>c10&#45;&gt;c10</title>
<path fill="none" stroke="none" d="M32.4884,-321.783C41.5316,-326.435 52.2993,-324.508 52.2993,-316 52.2993,-307.492 41.5316,-305.565 32.4884,-310.217"/>
<text text-anchor="middle" x="26.5" y="-292.765" font-family="Times New Roman,serif" font-size="14.00">fish leech</text>
</g>
<!-- c11 -->
<g id="node12" class="node"><title>c11</title>
<ellipse fill="lightgrey" stroke="black" cx="79.2993" cy="-316" rx="9" ry="9"/>
</g>
<!-- c11&#45;&gt;c5 -->
<g id="edge24" class="edge"><title>c11&#45;&gt;c5</title>
<path fill="none" stroke="black" d="M79.2993,-306.682C79.2993,-286.867 79.2993,-237.055 79.2993,-217.279"/>
</g>
<!-- c11&#45;&gt;c6 -->
<g id="edge25" class="edge"><title>c11&#45;&gt;c6</title>
<path fill="none" stroke="black" d="M85.3747,-309.301C104.995,-290.896 166.531,-233.172 186.194,-214.727"/>
</g>
<!-- c11&#45;&gt;c11 -->
<g id="edge23" class="edge"><title>c11&#45;&gt;c11</title>
<path fill="none" stroke="none" d="M86.4884,-321.783C95.5316,-326.435 106.299,-324.508 106.299,-316 106.299,-307.492 95.5316,-305.565 86.4884,-310.217"/>
<text text-anchor="middle" x="80.5" y="-331.835" font-family="Times New Roman,serif" font-size="14.00">has limbs</text>
</g>
<!-- c12 -->
<g id="node13" class="node"><title>c12</title>
<ellipse fill="lightgrey" stroke="black" cx="308.299" cy="-316" rx="9" ry="9"/>
</g>
<!-- c12&#45;&gt;c8 -->
<g id="edge27" class="edge"><title>c12&#45;&gt;c8</title>
<path fill="none" stroke="black" d="M306.646,-307.033C302.569,-287.389 292.069,-236.801 287.972,-217.06"/>
</g>
<!-- c12&#45;&gt;c9 -->
<g id="edge28" class="edge"><title>c12&#45;&gt;c9</title>
<path fill="none" stroke="black" d="M310.705,-307.033C316.664,-287.292 332.057,-236.304 337.953,-216.772"/>
</g>
<!-- c12&#45;&gt;c12 -->
<g id="edge26" class="edge"><title>c12&#45;&gt;c12</title>
<path fill="none" stroke="none" d="M315.488,-321.783C324.532,-326.435 335.299,-324.508 335.299,-316 335.299,-307.492 324.532,-305.565 315.488,-310.217"/>
<text text-anchor="middle" x="309.5" y="-331.835" font-family="Times New Roman,serif" font-size="14.00">monocotyledon</text>
</g>
<!-- c13 -->
<g id="node14" class="node"><title>c13</title>
<ellipse fill="lightgrey" stroke="black" cx="362.299" cy="-316" rx="9" ry="9"/>
</g>
<!-- c13&#45;&gt;c4 -->
<g id="edge29" class="edge"><title>c13&#45;&gt;c4</title>
<path fill="none" stroke="black" d="M363.498,-306.874C365.966,-290.092 371.762,-250.379 376.299,-217 378.931,-197.642 381.817,-174.855 383.298,-163.03"/>
</g>
<!-- c13&#45;&gt;c9 -->
<g id="edge30" class="edge"><title>c13&#45;&gt;c9</title>
<path fill="none" stroke="black" d="M360.646,-307.033C356.569,-287.389 346.069,-236.801 341.972,-217.06"/>
</g>
<!-- c14 -->
<g id="node15" class="node"><title>c14</title>
<ellipse fill="lightgrey" stroke="black" cx="58.2993" cy="-407" rx="9" ry="9"/>
</g>
<!-- c14&#45;&gt;c10 -->
<g id="edge32" class="edge"><title>c14&#45;&gt;c10</title>
<path fill="none" stroke="black" d="M55.4858,-398.412C49.2511,-381.597 34.3338,-341.366 28.1058,-324.569"/>
</g>
<!-- c14&#45;&gt;c11 -->
<g id="edge33" class="edge"><title>c14&#45;&gt;c11</title>
<path fill="none" stroke="black" d="M60.1629,-398.102C64.138,-381.255 73.4116,-341.953 77.4097,-325.008"/>
</g>
<!-- c14&#45;&gt;c14 -->
<g id="edge31" class="edge"><title>c14&#45;&gt;c14</title>
<path fill="none" stroke="none" d="M65.4884,-412.783C74.5316,-417.435 85.2993,-415.508 85.2993,-407 85.2993,-398.492 74.5316,-396.565 65.4884,-401.217"/>
<text text-anchor="middle" x="59.5" y="-422.835" font-family="Times New Roman,serif" font-size="14.00">can move</text>
</g>
<!-- c15 -->
<g id="node16" class="node"><title>c15</title>
<ellipse fill="lightgrey" stroke="black" cx="324.299" cy="-407" rx="9" ry="9"/>
</g>
<!-- c15&#45;&gt;c12 -->
<g id="edge35" class="edge"><title>c15&#45;&gt;c12</title>
<path fill="none" stroke="black" d="M322.879,-398.102C319.851,-381.255 312.785,-341.953 309.739,-325.008"/>
</g>
<!-- c15&#45;&gt;c13 -->
<g id="edge36" class="edge"><title>c15&#45;&gt;c13</title>
<path fill="none" stroke="black" d="M327.539,-398.412C334.718,-381.597 351.896,-341.366 359.068,-324.569"/>
</g>
<!-- c15&#45;&gt;c15 -->
<g id="edge34" class="edge"><title>c15&#45;&gt;c15</title>
<path fill="none" stroke="none" d="M331.488,-412.783C340.532,-417.435 351.299,-415.508 351.299,-407 351.299,-398.492 340.532,-396.565 331.488,-401.217"/>
<text text-anchor="middle" x="325.5" y="-422.835" font-family="Times New Roman,serif" font-size="14.00">needs chlorophyll</text>
</g>
<!-- c16 -->
<g id="node17" class="node"><title>c16</title>
<ellipse fill="lightgrey" stroke="black" cx="149.299" cy="-407" rx="9" ry="9"/>
</g>
<!-- c16&#45;&gt;c7 -->
<g id="edge38" class="edge"><title>c16&#45;&gt;c7</title>
<path fill="none" stroke="black" d="M149.666,-397.999C150.518,-381.104 152.981,-340.58 158.299,-307 160.309,-294.311 163.848,-279.822 166.132,-271.047"/>
</g>
<!-- c16&#45;&gt;c8 -->
<g id="edge39" class="edge"><title>c16&#45;&gt;c8</title>
<path fill="none" stroke="black" d="M154.175,-398.989C175.53,-368.282 260.671,-245.852 281.623,-215.724"/>
</g>
<!-- c16&#45;&gt;c10 -->
<g id="edge40" class="edge"><title>c16&#45;&gt;c10</title>
<path fill="none" stroke="black" d="M142.277,-400.96C120.452,-385.295 53.9643,-337.574 32.2444,-321.985"/>
</g>
<!-- c16&#45;&gt;c16 -->
<g id="edge37" class="edge"><title>c16&#45;&gt;c16</title>
<path fill="none" stroke="none" d="M156.488,-412.783C165.532,-417.435 176.299,-415.508 176.299,-407 176.299,-398.492 165.532,-396.565 156.488,-401.217"/>
<text text-anchor="middle" x="150.5" y="-422.835" font-family="Times New Roman,serif" font-size="14.00">lives in water</text>
</g>
<!-- c17 -->
<g id="node18" class="node"><title>c17</title>
<ellipse fill="lightgrey" stroke="black" cx="218.299" cy="-407" rx="9" ry="9"/>
</g>
<!-- c17&#45;&gt;c6 -->
<g id="edge42" class="edge"><title>c17&#45;&gt;c6</title>
<path fill="none" stroke="black" d="M220.505,-398.05C222.729,-389.071 225.654,-374.013 224.299,-361 218.462,-304.941 200.827,-239.105 194.549,-216.82"/>
</g>
<!-- c17&#45;&gt;c7 -->
<g id="edge43" class="edge"><title>c17&#45;&gt;c7</title>
<path fill="none" stroke="black" d="M215.611,-398.312C206.929,-373.482 179.701,-295.61 171.001,-270.726"/>
</g>
<!-- c17&#45;&gt;c13 -->
<g id="edge44" class="edge"><title>c17&#45;&gt;c13</title>
<path fill="none" stroke="black" d="M225.638,-401.464C250.283,-386.232 329.924,-337.009 354.802,-321.633"/>
</g>
<!-- c17&#45;&gt;c17 -->
<g id="edge41" class="edge"><title>c17&#45;&gt;c17</title>
<path fill="none" stroke="none" d="M225.488,-412.783C234.532,-417.435 245.299,-415.508 245.299,-407 245.299,-398.492 234.532,-396.565 225.488,-401.217"/>
<text text-anchor="middle" x="219.5" y="-422.835" font-family="Times New Roman,serif" font-size="14.00">lives on land</text>
</g>
<!-- c18 -->
<g id="node19" class="node"><title>c18</title>
<ellipse fill="lightgrey" stroke="black" cx="183.299" cy="-498" rx="9" ry="9"/>
</g>
<!-- c18&#45;&gt;c14 -->
<g id="edge46" class="edge"><title>c18&#45;&gt;c14</title>
<path fill="none" stroke="black" d="M176.221,-491.96C154.219,-476.295 87.1955,-428.574 65.3004,-412.985"/>
</g>
<!-- c18&#45;&gt;c15 -->
<g id="edge47" class="edge"><title>c18&#45;&gt;c15</title>
<path fill="none" stroke="black" d="M190.485,-492.464C214.617,-477.232 292.599,-428.009 316.959,-412.633"/>
</g>
<!-- c18&#45;&gt;c16 -->
<g id="edge48" class="edge"><title>c18&#45;&gt;c16</title>
<path fill="none" stroke="black" d="M180.401,-489.412C173.977,-472.597 158.608,-432.366 152.191,-415.569"/>
</g>
<!-- c18&#45;&gt;c17 -->
<g id="edge49" class="edge"><title>c18&#45;&gt;c17</title>
<path fill="none" stroke="black" d="M186.283,-489.412C192.896,-472.597 208.717,-432.366 215.323,-415.569"/>
</g>
<!-- c18&#45;&gt;c18 -->
<g id="edge45" class="edge"><title>c18&#45;&gt;c18</title>
<path fill="none" stroke="none" d="M190.488,-503.783C199.532,-508.435 210.299,-506.508 210.299,-498 210.299,-489.492 199.532,-487.565 190.488,-492.217"/>
<text text-anchor="middle" x="184.5" y="-513.835" font-family="Times New Roman,serif" font-size="14.00">needs water to live</text>
</g>
</g>
</svg>
