<?xml version="1.0" encoding="UTF-8" standalone="no"?>
<!DOCTYPE svg PUBLIC "-//W3C//DTD SVG 1.1//EN"
 "http://www.w3.org/Graphics/SVG/1.1/DTD/svg11.dtd">
<!-- Generated by graphviz version 2.38.0 (20140413.2041)
 -->
<!-- Title: Lattice Pages: 1 -->
<svg width="172pt" height="172pt"
 viewBox="0.00 0.00 171.64 172.00" xmlns="http://www.w3.org/2000/svg" xmlns:xlink="http://www.w3.org/1999/xlink">
<g id="graph0" class="graph" transform="scale(1 1) rotate(0) translate(4 168)">
<title>Lattice</title>
<polygon fill="white" stroke="none" points="-4,4 -4,-168 167.644,-168 167.644,4 -4,4"/>
<!-- c0 -->
<g id="node1" class="node"><title>c0</title>
<ellipse fill="lightgrey" stroke="black" cx="70.6441" cy="-7" rx="7" ry="7"/>
</g>
<!-- c1 -->
<g id="node2" class="node"><title>c1</title>
<ellipse fill="lightgrey" stroke="black" cx="20.6441" cy="-57" rx="7" ry="7"/>
</g>
<!-- c1&#45;&gt;c0 -->
<g id="edge2" class="edge"><title>c1&#45;&gt;c0</title>
<path fill="none" stroke="black" d="M25.2583,-51.5703C34.7352,-42.4725 56.3049,-21.7656 65.8951,-12.559"/>
</g>
<!-- c1&#45;&gt;c1 -->
<g id="edge1" class="edge"><title>c1&#45;&gt;c1</title>
<path fill="none" stroke="none" d="M25.5525,-62.3375C34.2142,-69.1307 45.6441,-67.3516 45.6441,-57 45.6441,-46.6484 34.2142,-44.8693 25.5525,-51.6625"/>
<text text-anchor="middle" x="20" y="-40.8457" font-family="Times New Roman,serif" font-size="10.00">Object1</text>
</g>
<!-- c2 -->
<g id="node3" class="node"><title>c2</title>
<ellipse fill="lightgrey" stroke="black" cx="70.6441" cy="-57" rx="7" ry="7"/>
</g>
<!-- c2&#45;&gt;c0 -->
<g id="edge4" class="edge"><title>c2&#45;&gt;c0</title>
<path fill="none" stroke="black" d="M70.6441,-49.7248C70.6441,-40.4749 70.6441,-23.2881 70.6441,-14.1249"/>
</g>
<!-- c2&#45;&gt;c2 -->
<g id="edge3" class="edge"><title>c2&#45;&gt;c2</title>
<path fill="none" stroke="none" d="M75.5525,-62.3375C84.2142,-69.1307 95.6441,-67.3516 95.6441,-57 95.6441,-46.6484 84.2142,-44.8693 75.5525,-51.6625"/>
<text text-anchor="middle" x="70" y="-40.8457" font-family="Times New Roman,serif" font-size="10.00">Object3</text>
</g>
<!-- c3 -->
<g id="node4" class="node"><title>c3</title>
<ellipse fill="lightgrey" stroke="black" cx="120.644" cy="-57" rx="7" ry="7"/>
</g>
<!-- c3&#45;&gt;c0 -->
<g id="edge6" class="edge"><title>c3&#45;&gt;c0</title>
<path fill="none" stroke="black" d="M116.03,-51.5703C106.553,-42.4725 84.9832,-21.7656 75.393,-12.559"/>
</g>
<!-- c3&#45;&gt;c3 -->
<g id="edge5" class="edge"><title>c3&#45;&gt;c3</title>
<path fill="none" stroke="none" d="M125.553,-62.3375C134.214,-69.1307 145.644,-67.3516 145.644,-57 145.644,-46.6484 134.214,-44.8693 125.553,-51.6625"/>
<text text-anchor="middle" x="120" y="-40.8457" font-family="Times New Roman,serif" font-size="10.00">Object5</text>
</g>
<!-- c4 -->
<g id="node5" class="node"><title>c4</title>
<ellipse fill="lightgrey" stroke="black" cx="20.6441" cy="-107" rx="7" ry="7"/>
</g>
<!-- c4&#45;&gt;c1 -->
<g id="edge8" class="edge"><title>c4&#45;&gt;c1</title>
<path fill="none" stroke="black" d="M20.6441,-99.7248C20.6441,-90.4749 20.6441,-73.2881 20.6441,-64.1249"/>
</g>
<!-- c4&#45;&gt;c2 -->
<g id="edge9" class="edge"><title>c4&#45;&gt;c2</title>
<path fill="none" stroke="black" d="M25.2583,-101.57C34.7352,-92.4725 56.3049,-71.7656 65.8951,-62.559"/>
</g>
<!-- c4&#45;&gt;c4 -->
<g id="edge7" class="edge"><title>c4&#45;&gt;c4</title>
<path fill="none" stroke="none" d="M25.5525,-112.338C34.2142,-119.131 45.6441,-117.352 45.6441,-107 45.6441,-96.6484 34.2142,-94.8693 25.5525,-101.662"/>
<text text-anchor="middle" x="20" y="-118.154" font-family="Times New Roman,serif" font-size="10.00">property3</text>
</g>
<!-- c5 -->
<g id="node6" class="node"><title>c5</title>
<ellipse fill="lightgrey" stroke="black" cx="70.6441" cy="-107" rx="7" ry="7"/>
</g>
<!-- c5&#45;&gt;c1 -->
<g id="edge11" class="edge"><title>c5&#45;&gt;c1</title>
<path fill="none" stroke="black" d="M66.0298,-101.57C56.5529,-92.4725 34.9832,-71.7656 25.393,-62.559"/>
</g>
<!-- c5&#45;&gt;c3 -->
<g id="edge12" class="edge"><title>c5&#45;&gt;c3</title>
<path fill="none" stroke="black" d="M75.2583,-101.57C84.7352,-92.4725 106.305,-71.7656 115.895,-62.559"/>
</g>
<!-- c5&#45;&gt;c5 -->
<g id="edge10" class="edge"><title>c5&#45;&gt;c5</title>
<path fill="none" stroke="none" d="M75.5525,-112.338C84.2142,-119.131 95.6441,-117.352 95.6441,-107 95.6441,-96.6484 84.2142,-94.8693 75.5525,-101.662"/>
<text text-anchor="middle" x="70" y="-118.154" font-family="Times New Roman,serif" font-size="10.00">property1</text>
</g>
<!-- c6 -->
<g id="node7" class="node"><title>c6</title>
<ellipse fill="lightgrey" stroke="black" cx="120.644" cy="-107" rx="7" ry="7"/>
</g>
<!-- c6&#45;&gt;c2 -->
<g id="edge15" class="edge"><title>c6&#45;&gt;c2</title>
<path fill="none" stroke="black" d="M116.03,-101.57C106.553,-92.4725 84.9832,-71.7656 75.393,-62.559"/>
</g>
<!-- c6&#45;&gt;c3 -->
<g id="edge16" class="edge"><title>c6&#45;&gt;c3</title>
<path fill="none" stroke="black" d="M120.644,-99.7248C120.644,-90.4749 120.644,-73.2881 120.644,-64.1249"/>
</g>
<!-- c6&#45;&gt;c6 -->
<g id="edge13" class="edge"><title>c6&#45;&gt;c6</title>
<path fill="none" stroke="none" d="M127.047,-110.204C135.472,-112.951 145.644,-111.883 145.644,-107 145.644,-102.117 135.472,-101.049 127.047,-103.796"/>
<text text-anchor="middle" x="124.384" y="-91.6569" font-family="Times New Roman,serif" font-size="10.00">Object2 Object4</text>
</g>
<!-- c6&#45;&gt;c6 -->
<g id="edge14" class="edge"><title>c6&#45;&gt;c6</title>
<path fill="none" stroke="none" d="M126.607,-111.102C141.696,-119.305 163.644,-117.938 163.644,-107 163.644,-96.0625 141.696,-94.6953 126.607,-102.898"/>
<text text-anchor="middle" x="122.412" y="-117.679" font-family="Times New Roman,serif" font-size="10.00">property2</text>
</g>
<!-- c7 -->
<g id="node8" class="node"><title>c7</title>
<ellipse fill="lightgrey" stroke="black" cx="70.6441" cy="-157" rx="7" ry="7"/>
</g>
<!-- c7&#45;&gt;c4 -->
<g id="edge17" class="edge"><title>c7&#45;&gt;c4</title>
<path fill="none" stroke="black" d="M66.0298,-151.57C56.5529,-142.473 34.9832,-121.766 25.393,-112.559"/>
</g>
<!-- c7&#45;&gt;c5 -->
<g id="edge18" class="edge"><title>c7&#45;&gt;c5</title>
<path fill="none" stroke="black" d="M70.6441,-149.725C70.6441,-140.475 70.6441,-123.288 70.6441,-114.125"/>
</g>
<!-- c7&#45;&gt;c6 -->
<g id="edge19" class="edge"><title>c7&#45;&gt;c6</title>
<path fill="none" stroke="black" d="M75.2583,-151.57C84.7352,-142.473 106.305,-121.766 115.895,-112.559"/>
</g>
</g>
</svg>
