<?xml version="1.0" encoding="UTF-8" standalone="no"?>
<!DOCTYPE svg PUBLIC "-//W3C//DTD SVG 1.1//EN"
 "http://www.w3.org/Graphics/SVG/1.1/DTD/svg11.dtd">
<!-- Generated by graphviz version 2.38.0 (20140413.2041)
 -->
<!-- Title: Lattice Pages: 1 -->
<svg width="163pt" height="172pt"
 viewBox="0.00 0.00 162.64 172.00" xmlns="http://www.w3.org/2000/svg" xmlns:xlink="http://www.w3.org/1999/xlink">
<g id="graph0" class="graph" transform="scale(1 1) rotate(0) translate(4 168)">
<title>Lattice</title>
<polygon fill="white" stroke="none" points="-4,4 -4,-168 158.644,-168 158.644,4 -4,4"/>
<!-- c0 -->
<g id="node1" class="node"><title>c0</title>
<ellipse fill="lightgrey" stroke="black" cx="61.6441" cy="-7" rx="7" ry="7"/>
</g>
<!-- c1 -->
<g id="node2" class="node"><title>c1</title>
<ellipse fill="lightgrey" stroke="black" cx="11.6441" cy="-57" rx="7" ry="7"/>
</g>
<!-- c1&#45;&gt;c0 -->
<g id="edge2" class="edge"><title>c1&#45;&gt;c0</title>
<path fill="none" stroke="black" d="M16.2583,-51.5703C25.7352,-42.4725 47.3049,-21.7656 56.8951,-12.559"/>
</g>
<!-- c1&#45;&gt;c1 -->
<g id="edge1" class="edge"><title>c1&#45;&gt;c1</title>
<path fill="none" stroke="none" d="M16.5525,-62.3375C25.2142,-69.1307 36.6441,-67.3516 36.6441,-57 36.6441,-46.6484 25.2142,-44.8693 16.5525,-51.6625"/>
<text text-anchor="middle" x="11" y="-42.3457" font-family="Times New Roman,serif" font-size="5.00">Object1</text>
</g>
<!-- c2 -->
<g id="node3" class="node"><title>c2</title>
<ellipse fill="lightgrey" stroke="black" cx="61.6441" cy="-57" rx="7" ry="7"/>
</g>
<!-- c2&#45;&gt;c0 -->
<g id="edge4" class="edge"><title>c2&#45;&gt;c0</title>
<path fill="none" stroke="black" d="M61.6441,-49.7248C61.6441,-40.4749 61.6441,-23.2881 61.6441,-14.1249"/>
</g>
<!-- c2&#45;&gt;c2 -->
<g id="edge3" class="edge"><title>c2&#45;&gt;c2</title>
<path fill="none" stroke="none" d="M66.5525,-62.3375C75.2142,-69.1307 86.6441,-67.3516 86.6441,-57 86.6441,-46.6484 75.2142,-44.8693 66.5525,-51.6625"/>
<text text-anchor="middle" x="61" y="-42.3457" font-family="Times New Roman,serif" font-size="5.00">Object3</text>
</g>
<!-- c3 -->
<g id="node4" class="node"><title>c3</title>
<ellipse fill="lightgrey" stroke="black" cx="111.644" cy="-57" rx="7" ry="7"/>
</g>
<!-- c3&#45;&gt;c0 -->
<g id="edge6" class="edge"><title>c3&#45;&gt;c0</title>
<path fill="none" stroke="black" d="M107.03,-51.5703C97.5529,-42.4725 75.9832,-21.7656 66.393,-12.559"/>
</g>
<!-- c3&#45;&gt;c3 -->
<g id="edge5" class="edge"><title>c3&#45;&gt;c3</title>
<path fill="none" stroke="none" d="M116.553,-62.3375C125.214,-69.1307 136.644,-67.3516 136.644,-57 136.644,-46.6484 125.214,-44.8693 116.553,-51.6625"/>
<text text-anchor="middle" x="111" y="-42.3457" font-family="Times New Roman,serif" font-size="5.00">Object5</text>
</g>
<!-- c4 -->
<g id="node5" class="node"><title>c4</title>
<ellipse fill="lightgrey" stroke="black" cx="11.6441" cy="-107" rx="7" ry="7"/>
</g>
<!-- c4&#45;&gt;c1 -->
<g id="edge8" class="edge"><title>c4&#45;&gt;c1</title>
<path fill="none" stroke="black" d="M11.6441,-99.7248C11.6441,-90.4749 11.6441,-73.2881 11.6441,-64.1249"/>
</g>
<!-- c4&#45;&gt;c2 -->
<g id="edge9" class="edge"><title>c4&#45;&gt;c2</title>
<path fill="none" stroke="black" d="M16.2583,-101.57C25.7352,-92.4725 47.3049,-71.7656 56.8951,-62.559"/>
</g>
<!-- c4&#45;&gt;c4 -->
<g id="edge7" class="edge"><title>c4&#45;&gt;c4</title>
<path fill="none" stroke="none" d="M16.5525,-112.338C25.2142,-119.131 36.6441,-117.352 36.6441,-107 36.6441,-96.6484 25.2142,-94.8693 16.5525,-101.662"/>
<text text-anchor="middle" x="11" y="-119.654" font-family="Times New Roman,serif" font-size="5.00">property3</text>
</g>
<!-- c5 -->
<g id="node6" class="node"><title>c5</title>
<ellipse fill="lightgrey" stroke="black" cx="61.6441" cy="-107" rx="7" ry="7"/>
</g>
<!-- c5&#45;&gt;c1 -->
<g id="edge11" class="edge"><title>c5&#45;&gt;c1</title>
<path fill="none" stroke="black" d="M57.0298,-101.57C47.5529,-92.4725 25.9832,-71.7656 16.393,-62.559"/>
</g>
<!-- c5&#45;&gt;c3 -->
<g id="edge12" class="edge"><title>c5&#45;&gt;c3</title>
<path fill="none" stroke="black" d="M66.2583,-101.57C75.7352,-92.4725 97.3049,-71.7656 106.895,-62.559"/>
</g>
<!-- c5&#45;&gt;c5 -->
<g id="edge10" class="edge"><title>c5&#45;&gt;c5</title>
<path fill="none" stroke="none" d="M66.5525,-112.338C75.2142,-119.131 86.6441,-117.352 86.6441,-107 86.6441,-96.6484 75.2142,-94.8693 66.5525,-101.662"/>
<text text-anchor="middle" x="61" y="-119.654" font-family="Times New Roman,serif" font-size="5.00">property1</text>
</g>
<!-- c6 -->
<g id="node7" class="node"><title>c6</title>
<ellipse fill="lightgrey" stroke="black" cx="111.644" cy="-107" rx="7" ry="7"/>
</g>
<!-- c6&#45;&gt;c2 -->
<g id="edge15" class="edge"><title>c6&#45;&gt;c2</title>
<path fill="none" stroke="black" d="M107.03,-101.57C97.5529,-92.4725 75.9832,-71.7656 66.393,-62.559"/>
</g>
<!-- c6&#45;&gt;c3 -->
<g id="edge16" class="edge"><title>c6&#45;&gt;c3</title>
<path fill="none" stroke="black" d="M111.644,-99.7248C111.644,-90.4749 111.644,-73.2881 111.644,-64.1249"/>
</g>
<!-- c6&#45;&gt;c6 -->
<g id="edge13" class="edge"><title>c6&#45;&gt;c6</title>
<path fill="none" stroke="none" d="M118.047,-110.204C126.472,-112.951 136.644,-111.883 136.644,-107 136.644,-102.117 126.472,-101.049 118.047,-103.796"/>
<text text-anchor="middle" x="115.384" y="-93.1569" font-family="Times New Roman,serif" font-size="5.00">Object2 Object4</text>
</g>
<!-- c6&#45;&gt;c6 -->
<g id="edge14" class="edge"><title>c6&#45;&gt;c6</title>
<path fill="none" stroke="none" d="M117.607,-111.102C132.696,-119.305 154.644,-117.938 154.644,-107 154.644,-96.0625 132.696,-94.6953 117.607,-102.898"/>
<text text-anchor="middle" x="113.412" y="-119.179" font-family="Times New Roman,serif" font-size="5.00">property2</text>
</g>
<!-- c7 -->
<g id="node8" class="node"><title>c7</title>
<ellipse fill="lightgrey" stroke="black" cx="61.6441" cy="-157" rx="7" ry="7"/>
</g>
<!-- c7&#45;&gt;c4 -->
<g id="edge17" class="edge"><title>c7&#45;&gt;c4</title>
<path fill="none" stroke="black" d="M57.0298,-151.57C47.5529,-142.473 25.9832,-121.766 16.393,-112.559"/>
</g>
<!-- c7&#45;&gt;c5 -->
<g id="edge18" class="edge"><title>c7&#45;&gt;c5</title>
<path fill="none" stroke="black" d="M61.6441,-149.725C61.6441,-140.475 61.6441,-123.288 61.6441,-114.125"/>
</g>
<!-- c7&#45;&gt;c6 -->
<g id="edge19" class="edge"><title>c7&#45;&gt;c6</title>
<path fill="none" stroke="black" d="M66.2583,-151.57C75.7352,-142.473 97.3049,-121.766 106.895,-112.559"/>
</g>
</g>
</svg>
