<?xml version="1.0" encoding="UTF-8" standalone="no"?>
<!DOCTYPE svg PUBLIC "-//W3C//DTD SVG 1.1//EN"
 "http://www.w3.org/Graphics/SVG/1.1/DTD/svg11.dtd">
<!-- Generated by graphviz version 2.38.0 (20140413.2041)
 -->
<!-- Title: Lattice Pages: 1 -->
<svg width="189pt" height="299pt"
 viewBox="0.00 0.00 189.00 299.00" xmlns="http://www.w3.org/2000/svg" xmlns:xlink="http://www.w3.org/1999/xlink">
<g id="graph0" class="graph" transform="scale(1 1) rotate(0) translate(4 295)">
<title>Lattice</title>
<polygon fill="white" stroke="none" points="-4,4 -4,-295 185,-295 185,4 -4,4"/>
<!-- c0 -->
<g id="node1" class="node"><title>c0</title>
<ellipse fill="lightgrey" stroke="black" cx="89.2993" cy="-9" rx="9" ry="9"/>
</g>
<!-- c1 -->
<g id="node2" class="node"><title>c1</title>
<ellipse fill="lightgrey" stroke="black" cx="89.2993" cy="-100" rx="9" ry="9"/>
</g>
<!-- c1&#45;&gt;c0 -->
<g id="edge2" class="edge"><title>c1&#45;&gt;c0</title>
<path fill="none" stroke="black" d="M89.2993,-90.7866C89.2993,-73.8318 89.2993,-35.1314 89.2993,-18.1935"/>
</g>
<!-- c1&#45;&gt;c1 -->
<g id="edge1" class="edge"><title>c1&#45;&gt;c1</title>
<path fill="none" stroke="none" d="M96.4884,-105.783C105.532,-110.435 116.299,-108.508 116.299,-100 116.299,-91.4922 105.532,-89.5646 96.4884,-94.2173"/>
<text text-anchor="middle" x="90.5" y="-76.7646" font-family="Times New Roman,serif" font-size="14.00">Object1</text>
</g>
<!-- c2 -->
<g id="node3" class="node"><title>c2</title>
<ellipse fill="lightgrey" stroke="black" cx="35.2993" cy="-100" rx="9" ry="9"/>
</g>
<!-- c2&#45;&gt;c0 -->
<g id="edge4" class="edge"><title>c2&#45;&gt;c0</title>
<path fill="none" stroke="black" d="M39.5366,-92.0163C49.5814,-75.4611 74.7575,-33.9671 84.9317,-17.1985"/>
</g>
<!-- c2&#45;&gt;c2 -->
<g id="edge3" class="edge"><title>c2&#45;&gt;c2</title>
<path fill="none" stroke="none" d="M42.4884,-105.783C51.5316,-110.435 62.2993,-108.508 62.2993,-100 62.2993,-91.4922 51.5316,-89.5646 42.4884,-94.2173"/>
<text text-anchor="middle" x="36.5" y="-76.7646" font-family="Times New Roman,serif" font-size="14.00">Object3</text>
</g>
<!-- c3 -->
<g id="node4" class="node"><title>c3</title>
<ellipse fill="lightgrey" stroke="black" cx="143.299" cy="-100" rx="9" ry="9"/>
</g>
<!-- c3&#45;&gt;c0 -->
<g id="edge6" class="edge"><title>c3&#45;&gt;c0</title>
<path fill="none" stroke="black" d="M139.062,-92.0163C129.017,-75.4611 103.841,-33.9671 93.6669,-17.1985"/>
</g>
<!-- c3&#45;&gt;c3 -->
<g id="edge5" class="edge"><title>c3&#45;&gt;c3</title>
<path fill="none" stroke="none" d="M150.488,-105.783C159.532,-110.435 170.299,-108.508 170.299,-100 170.299,-91.4922 159.532,-89.5646 150.488,-94.2173"/>
<text text-anchor="middle" x="144.5" y="-76.7646" font-family="Times New Roman,serif" font-size="14.00">Object5</text>
</g>
<!-- c4 -->
<g id="node5" class="node"><title>c4</title>
<ellipse fill="lightgrey" stroke="black" cx="26.2993" cy="-191" rx="9" ry="9"/>
</g>
<!-- c4&#45;&gt;c1 -->
<g id="edge8" class="edge"><title>c4&#45;&gt;c1</title>
<path fill="none" stroke="black" d="M31.0346,-183.311C42.7099,-166.817 72.7764,-124.342 84.5091,-107.767"/>
</g>
<!-- c4&#45;&gt;c2 -->
<g id="edge9" class="edge"><title>c4&#45;&gt;c2</title>
<path fill="none" stroke="black" d="M23.2471,-182.349C20.0647,-173.39 15.8557,-158.105 18.2993,-145 20.8212,-131.475 27.3544,-116.752 31.548,-108.229"/>
</g>
<!-- c4&#45;&gt;c4 -->
<g id="edge7" class="edge"><title>c4&#45;&gt;c4</title>
<path fill="none" stroke="none" d="M33.4884,-196.783C42.5316,-201.435 53.2993,-199.508 53.2993,-191 53.2993,-182.492 42.5316,-180.565 33.4884,-185.217"/>
<text text-anchor="middle" x="27.5" y="-206.835" font-family="Times New Roman,serif" font-size="14.00">property3</text>
</g>
<!-- c5 -->
<g id="node6" class="node"><title>c5</title>
<ellipse fill="lightgrey" stroke="black" cx="152.299" cy="-191" rx="9" ry="9"/>
</g>
<!-- c5&#45;&gt;c1 -->
<g id="edge11" class="edge"><title>c5&#45;&gt;c1</title>
<path fill="none" stroke="black" d="M147.564,-183.311C135.889,-166.817 105.822,-124.342 94.0895,-107.767"/>
</g>
<!-- c5&#45;&gt;c3 -->
<g id="edge12" class="edge"><title>c5&#45;&gt;c3</title>
<path fill="none" stroke="black" d="M155.352,-182.349C158.534,-173.39 162.743,-158.105 160.299,-145 157.777,-131.475 151.244,-116.752 147.051,-108.229"/>
</g>
<!-- c5&#45;&gt;c5 -->
<g id="edge10" class="edge"><title>c5&#45;&gt;c5</title>
<path fill="none" stroke="none" d="M159.488,-196.783C168.532,-201.435 179.299,-199.508 179.299,-191 179.299,-182.492 168.532,-180.565 159.488,-185.217"/>
<text text-anchor="middle" x="153.5" y="-206.835" font-family="Times New Roman,serif" font-size="14.00">property1</text>
</g>
<!-- c6 -->
<g id="node7" class="node"><title>c6</title>
<ellipse fill="lightgrey" stroke="black" cx="80.2993" cy="-191" rx="9" ry="9"/>
</g>
<!-- c6&#45;&gt;c2 -->
<g id="edge15" class="edge"><title>c6&#45;&gt;c2</title>
<path fill="none" stroke="black" d="M76.6168,-182.717C68.2204,-166.111 47.7252,-125.576 39.1603,-108.636"/>
</g>
<!-- c6&#45;&gt;c3 -->
<g id="edge16" class="edge"><title>c6&#45;&gt;c3</title>
<path fill="none" stroke="black" d="M85.0346,-183.311C96.7099,-166.817 126.776,-124.342 138.509,-107.767"/>
</g>
<!-- c6&#45;&gt;c6 -->
<g id="edge13" class="edge"><title>c6&#45;&gt;c6</title>
<path fill="none" stroke="none" d="M88.8702,-194.219C97.5918,-196.112 107.299,-195.039 107.299,-191 107.299,-186.961 97.5918,-185.888 88.8702,-187.781"/>
<text text-anchor="middle" x="86.1877" y="-169.323" font-family="Times New Roman,serif" font-size="14.00">Object2 Object4</text>
</g>
<!-- c6&#45;&gt;c6 -->
<g id="edge14" class="edge"><title>c6&#45;&gt;c6</title>
<path fill="none" stroke="none" d="M88.2575,-195.351C103.942,-201.731 125.299,-200.281 125.299,-191 125.299,-181.719 103.942,-180.269 88.2575,-186.649"/>
<text text-anchor="middle" x="83.3483" y="-205.824" font-family="Times New Roman,serif" font-size="14.00">property2</text>
</g>
<!-- c7 -->
<g id="node8" class="node"><title>c7</title>
<ellipse fill="lightgrey" stroke="black" cx="80.2993" cy="-282" rx="9" ry="9"/>
</g>
<!-- c7&#45;&gt;c4 -->
<g id="edge17" class="edge"><title>c7&#45;&gt;c4</title>
<path fill="none" stroke="black" d="M76.062,-274.016C66.0173,-257.461 40.8412,-215.967 30.6669,-199.198"/>
</g>
<!-- c7&#45;&gt;c5 -->
<g id="edge18" class="edge"><title>c7&#45;&gt;c5</title>
<path fill="none" stroke="black" d="M85.4774,-274.599C98.633,-258.338 133.254,-215.542 146.777,-198.827"/>
</g>
<!-- c7&#45;&gt;c6 -->
<g id="edge19" class="edge"><title>c7&#45;&gt;c6</title>
<path fill="none" stroke="black" d="M80.2993,-272.787C80.2993,-255.832 80.2993,-217.131 80.2993,-200.194"/>
</g>
</g>
</svg>
