<?xml version="1.0" encoding="UTF-8" standalone="no"?>
<!DOCTYPE svg PUBLIC "-//W3C//DTD SVG 1.1//EN"
 "http://www.w3.org/Graphics/SVG/1.1/DTD/svg11.dtd">
<!-- Generated by graphviz version 2.38.0 (20140413.2041)
 -->
<!-- Title: Lattice Pages: 1 -->
<svg width="170pt" height="283pt"
 viewBox="0.00 0.00 170.27 283.00" xmlns="http://www.w3.org/2000/svg" xmlns:xlink="http://www.w3.org/1999/xlink">
<g id="graph0" class="graph" transform="scale(1 1) rotate(0) translate(4 279)">
<title>Lattice</title>
<polygon fill="white" stroke="none" points="-4,4 -4,-279 166.265,-279 166.265,4 -4,4"/>
<!-- c0 -->
<g id="node1" class="node"><title>c0</title>
<ellipse fill="lightgrey" stroke="black" cx="78.265" cy="-7" rx="7" ry="7"/>
</g>
<!-- c1 -->
<g id="node2" class="node"><title>c1</title>
<ellipse fill="lightgrey" stroke="black" cx="78.265" cy="-94" rx="7" ry="7"/>
</g>
<!-- c1&#45;&gt;c0 -->
<g id="edge2" class="edge"><title>c1&#45;&gt;c0</title>
<path fill="none" stroke="black" d="M78.265,-86.887C78.265,-71.2039 78.265,-29.6797 78.265,-14.0576"/>
</g>
<!-- c1&#45;&gt;c1 -->
<g id="edge1" class="edge"><title>c1&#45;&gt;c1</title>
<path fill="none" stroke="none" d="M83.6666,-98.7988C92.2624,-104.131 103.265,-102.531 103.265,-94 103.265,-85.4688 92.2624,-83.8691 83.6666,-89.2012"/>
<text text-anchor="middle" x="79" y="-77.8568" font-family="Times New Roman,serif" font-size="10.00">Object1</text>
</g>
<!-- c2 -->
<g id="node3" class="node"><title>c2</title>
<ellipse fill="lightgrey" stroke="black" cx="28.265" cy="-94" rx="7" ry="7"/>
</g>
<!-- c2&#45;&gt;c0 -->
<g id="edge4" class="edge"><title>c2&#45;&gt;c0</title>
<path fill="none" stroke="black" d="M31.5456,-87.4229C40.5836,-72.0584 65.777,-29.2297 74.9067,-13.7091"/>
</g>
<!-- c2&#45;&gt;c2 -->
<g id="edge3" class="edge"><title>c2&#45;&gt;c2</title>
<path fill="none" stroke="none" d="M33.6666,-98.7988C42.2624,-104.131 53.265,-102.531 53.265,-94 53.265,-85.4688 42.2624,-83.8691 33.6666,-89.2012"/>
<text text-anchor="middle" x="29" y="-77.8568" font-family="Times New Roman,serif" font-size="10.00">Object3</text>
</g>
<!-- c3 -->
<g id="node4" class="node"><title>c3</title>
<ellipse fill="lightgrey" stroke="black" cx="128.265" cy="-94" rx="7" ry="7"/>
</g>
<!-- c3&#45;&gt;c0 -->
<g id="edge6" class="edge"><title>c3&#45;&gt;c0</title>
<path fill="none" stroke="black" d="M124.984,-87.4229C115.946,-72.0584 90.753,-29.2297 81.6233,-13.7091"/>
</g>
<!-- c3&#45;&gt;c3 -->
<g id="edge5" class="edge"><title>c3&#45;&gt;c3</title>
<path fill="none" stroke="none" d="M133.667,-98.7988C142.262,-104.131 153.265,-102.531 153.265,-94 153.265,-85.4688 142.262,-83.8691 133.667,-89.2012"/>
<text text-anchor="middle" x="129" y="-77.8568" font-family="Times New Roman,serif" font-size="10.00">Object5</text>
</g>
<!-- c4 -->
<g id="node5" class="node"><title>c4</title>
<ellipse fill="lightgrey" stroke="black" cx="19.265" cy="-181" rx="7" ry="7"/>
</g>
<!-- c4&#45;&gt;c1 -->
<g id="edge8" class="edge"><title>c4&#45;&gt;c1</title>
<path fill="none" stroke="black" d="M22.779,-174.937C33.1983,-159.927 63.8607,-115.752 74.5435,-100.361"/>
</g>
<!-- c4&#45;&gt;c2 -->
<g id="edge9" class="edge"><title>c4&#45;&gt;c2</title>
<path fill="none" stroke="black" d="M16.0242,-174.74C11.4566,-166.67 4.02412,-150.729 7.265,-137 10.6364,-122.718 19.6489,-107.756 24.7029,-100.131"/>
</g>
<!-- c4&#45;&gt;c4 -->
<g id="edge7" class="edge"><title>c4&#45;&gt;c4</title>
<path fill="none" stroke="none" d="M24.6666,-185.799C33.2624,-191.131 44.265,-189.531 44.265,-181 44.265,-172.469 33.2624,-170.869 24.6666,-176.201"/>
<text text-anchor="middle" x="20" y="-192.143" font-family="Times New Roman,serif" font-size="10.00">property3</text>
</g>
<!-- c5 -->
<g id="node6" class="node"><title>c5</title>
<ellipse fill="lightgrey" stroke="black" cx="137.265" cy="-181" rx="7" ry="7"/>
</g>
<!-- c5&#45;&gt;c1 -->
<g id="edge11" class="edge"><title>c5&#45;&gt;c1</title>
<path fill="none" stroke="black" d="M133.751,-174.937C123.332,-159.927 92.6693,-115.752 81.9865,-100.361"/>
</g>
<!-- c5&#45;&gt;c3 -->
<g id="edge12" class="edge"><title>c5&#45;&gt;c3</title>
<path fill="none" stroke="black" d="M140.506,-174.74C145.073,-166.67 152.506,-150.729 149.265,-137 145.894,-122.718 136.881,-107.756 131.827,-100.131"/>
</g>
<!-- c5&#45;&gt;c5 -->
<g id="edge10" class="edge"><title>c5&#45;&gt;c5</title>
<path fill="none" stroke="none" d="M142.667,-185.799C151.262,-191.131 162.265,-189.531 162.265,-181 162.265,-172.469 151.262,-170.869 142.667,-176.201"/>
<text text-anchor="middle" x="138" y="-192.143" font-family="Times New Roman,serif" font-size="10.00">property1</text>
</g>
<!-- c6 -->
<g id="node7" class="node"><title>c6</title>
<ellipse fill="lightgrey" stroke="black" cx="69.265" cy="-181" rx="7" ry="7"/>
</g>
<!-- c6&#45;&gt;c2 -->
<g id="edge15" class="edge"><title>c6&#45;&gt;c2</title>
<path fill="none" stroke="black" d="M66.5749,-174.423C59.1637,-159.058 38.5052,-116.23 31.0188,-100.709"/>
</g>
<!-- c6&#45;&gt;c3 -->
<g id="edge16" class="edge"><title>c6&#45;&gt;c3</title>
<path fill="none" stroke="black" d="M72.779,-174.937C83.1983,-159.927 113.861,-115.752 124.544,-100.361"/>
</g>
<!-- c6&#45;&gt;c6 -->
<g id="edge13" class="edge"><title>c6&#45;&gt;c6</title>
<path fill="none" stroke="none" d="M75.9216,-183.76C84.2949,-185.981 94.265,-185.061 94.265,-181 94.265,-176.939 84.2949,-176.019 75.9216,-178.24"/>
<text text-anchor="middle" x="73.7316" y="-165.983" font-family="Times New Roman,serif" font-size="10.00">Object2 Object4</text>
</g>
<!-- c6&#45;&gt;c6 -->
<g id="edge14" class="edge"><title>c6&#45;&gt;c6</title>
<path fill="none" stroke="none" d="M75.6337,-184.628C90.7073,-191.315 112.265,-190.105 112.265,-181 112.265,-171.895 90.7073,-170.685 75.6337,-177.372"/>
<text text-anchor="middle" x="72.1033" y="-191.484" font-family="Times New Roman,serif" font-size="10.00">property2</text>
</g>
<!-- c7 -->
<g id="node8" class="node"><title>c7</title>
<ellipse fill="lightgrey" stroke="black" cx="69.265" cy="-268" rx="7" ry="7"/>
</g>
<!-- c7&#45;&gt;c4 -->
<g id="edge17" class="edge"><title>c7&#45;&gt;c4</title>
<path fill="none" stroke="black" d="M65.9844,-261.423C56.9464,-246.058 31.753,-203.23 22.6233,-187.709"/>
</g>
<!-- c7&#45;&gt;c5 -->
<g id="edge18" class="edge"><title>c7&#45;&gt;c5</title>
<path fill="none" stroke="black" d="M73.3151,-261.937C85.4381,-246.784 121.339,-201.908 133.321,-186.93"/>
</g>
<!-- c7&#45;&gt;c6 -->
<g id="edge19" class="edge"><title>c7&#45;&gt;c6</title>
<path fill="none" stroke="black" d="M69.265,-260.887C69.265,-245.204 69.265,-203.68 69.265,-188.058"/>
</g>
</g>
</svg>
