<?xml version="1.0" encoding="UTF-8" standalone="no"?>
<!DOCTYPE svg PUBLIC "-//W3C//DTD SVG 1.1//EN"
 "http://www.w3.org/Graphics/SVG/1.1/DTD/svg11.dtd">
<!-- Generated by graphviz version 2.30.1 (20130214.1330)
 -->
<!-- Title: Lattice Pages: 1 -->
<svg width="297pt" height="630pt"
 viewBox="0.00 0.00 296.92 629.93" xmlns="http://www.w3.org/2000/svg" xmlns:xlink="http://www.w3.org/1999/xlink">
<g id="graph0" class="graph" transform="scale(1 1) rotate(0) translate(4 625.935)">
<title>Lattice</title>
<polygon fill="white" stroke="white" points="-4,5 -4,-625.935 293.919,-625.935 293.919,5 -4,5"/>
<!-- c0 -->
<g id="node1" class="node"><title>c0</title>
<ellipse fill="lightgrey" stroke="black" cx="103.149" cy="-26.9673" rx="9" ry="9"/>
</g>
<!-- c0&#45;&gt;c0 -->
<g id="edge1" class="edge"><title>c0&#45;&gt;c0</title>
<path fill="none" stroke="none" d="M110.064,-32.8633C119.163,-37.917 130.149,-35.9517 130.149,-26.9673 130.149,-17.9829 119.163,-16.0176 110.064,-21.0713"/>
<text text-anchor="middle" x="103.675" y="-3.8" font-family="Times New Roman,serif" font-size="14.00">R = X = {}</text>
</g>
<!-- c1 -->
<g id="node2" class="node"><title>c1</title>
<ellipse fill="lightgrey" stroke="black" cx="52.1489" cy="-302.967" rx="9" ry="9"/>
</g>
<!-- c1&#45;&gt;c1 -->
<g id="edge2" class="edge"><title>c1&#45;&gt;c1</title>
<path fill="none" stroke="none" d="M59.0645,-308.863C68.1625,-313.917 79.1489,-311.952 79.1489,-302.967 79.1489,-293.983 68.1625,-292.018 59.0645,-297.071"/>
<text text-anchor="middle" x="52.6755" y="-279.8" font-family="Times New Roman,serif" font-size="14.00">equivalence</text>
</g>
<!-- c1&#45;&gt;c0 -->
<g id="edge3" class="edge"><title>c1&#45;&gt;c0</title>
<path fill="none" stroke="black" d="M53.0864,-293.542C54.7739,-277.626 58.1489,-242.034 58.1489,-211.967 58.1489,-211.967 58.1489,-211.967 58.1489,-117.967 58.1489,-83.3781 85.0681,-48.4556 97.2659,-34.4068"/>
</g>
<!-- c2 -->
<g id="node3" class="node"><title>c2</title>
<ellipse fill="lightgrey" stroke="black" cx="103.149" cy="-118.967" rx="9" ry="9"/>
</g>
<!-- c2&#45;&gt;c2 -->
<g id="edge4" class="edge"><title>c2&#45;&gt;c2</title>
<path fill="none" stroke="none" d="M111.72,-122.332C120.441,-124.312 130.149,-123.19 130.149,-118.967 130.149,-114.745 120.441,-113.623 111.72,-115.602"/>
<text text-anchor="middle" x="108.919" y="-97.1661" font-family="Times New Roman,serif" font-size="14.00">total order</text>
</g>
<!-- c2&#45;&gt;c2 -->
<g id="edge5" class="edge"><title>c2&#45;&gt;c2</title>
<path fill="none" stroke="none" d="M111.107,-123.516C126.791,-130.187 148.149,-128.67 148.149,-118.967 148.149,-109.264 126.791,-107.748 111.107,-114.419"/>
<text text-anchor="middle" x="106" y="-133.919" font-family="Times New Roman,serif" font-size="14.00">total</text>
</g>
<!-- c2&#45;&gt;c0 -->
<g id="edge6" class="edge"><title>c2&#45;&gt;c0</title>
<path fill="none" stroke="black" d="M103.149,-109.662C103.149,-92.4292 103.149,-52.9832 103.149,-35.9938"/>
</g>
<!-- c3 -->
<g id="node4" class="node"><title>c3</title>
<ellipse fill="lightgrey" stroke="black" cx="177.149" cy="-118.967" rx="9" ry="9"/>
</g>
<!-- c3&#45;&gt;c3 -->
<g id="edge7" class="edge"><title>c3&#45;&gt;c3</title>
<path fill="none" stroke="none" d="M185.72,-122.332C194.441,-124.312 204.149,-123.19 204.149,-118.967 204.149,-114.745 194.441,-113.623 185.72,-115.602"/>
<text text-anchor="middle" x="182.919" y="-97.1661" font-family="Times New Roman,serif" font-size="14.00">strict total order</text>
</g>
<!-- c3&#45;&gt;c3 -->
<g id="edge8" class="edge"><title>c3&#45;&gt;c3</title>
<path fill="none" stroke="none" d="M185.107,-123.516C200.791,-130.187 222.149,-128.67 222.149,-118.967 222.149,-109.264 200.791,-107.748 185.107,-114.419"/>
<text text-anchor="middle" x="180" y="-133.919" font-family="Times New Roman,serif" font-size="14.00">trichotomous</text>
</g>
<!-- c3&#45;&gt;c0 -->
<g id="edge9" class="edge"><title>c3&#45;&gt;c0</title>
<path fill="none" stroke="black" d="M171.827,-111.495C158.173,-94.8891 122.023,-50.9223 108.423,-34.3812"/>
</g>
<!-- c4 -->
<g id="node5" class="node"><title>c4</title>
<ellipse fill="lightgrey" stroke="black" cx="26.1489" cy="-394.967" rx="9" ry="9"/>
</g>
<!-- c4&#45;&gt;c4 -->
<g id="edge10" class="edge"><title>c4&#45;&gt;c4</title>
<path fill="none" stroke="none" d="M34.7197,-398.332C43.4413,-400.312 53.1489,-399.19 53.1489,-394.967 53.1489,-390.745 43.4413,-389.623 34.7197,-391.602"/>
<text text-anchor="middle" x="31.9195" y="-373.166" font-family="Times New Roman,serif" font-size="14.00">tolerance</text>
</g>
<!-- c4&#45;&gt;c4 -->
<g id="edge11" class="edge"><title>c4&#45;&gt;c4</title>
<path fill="none" stroke="none" d="M34.1071,-399.516C49.7914,-406.187 71.1489,-404.67 71.1489,-394.967 71.1489,-385.264 49.7914,-383.748 34.1071,-390.419"/>
<text text-anchor="middle" x="29" y="-409.919" font-family="Times New Roman,serif" font-size="14.00">symmetric</text>
</g>
<!-- c4&#45;&gt;c1 -->
<g id="edge12" class="edge"><title>c4&#45;&gt;c1</title>
<path fill="none" stroke="black" d="M28.4562,-385.98C33.4026,-368.858 44.9755,-328.798 49.8838,-311.808"/>
</g>
<!-- c5 -->
<g id="node6" class="node"><title>c5</title>
<ellipse fill="lightgrey" stroke="black" cx="106.149" cy="-302.967" rx="9" ry="9"/>
</g>
<!-- c5&#45;&gt;c5 -->
<g id="edge13" class="edge"><title>c5&#45;&gt;c5</title>
<path fill="none" stroke="none" d="M113.064,-308.863C122.163,-313.917 133.149,-311.952 133.149,-302.967 133.149,-293.983 122.163,-292.018 113.064,-297.071"/>
<text text-anchor="middle" x="106.675" y="-279.8" font-family="Times New Roman,serif" font-size="14.00">partial order</text>
</g>
<!-- c5&#45;&gt;c2 -->
<g id="edge14" class="edge"><title>c5&#45;&gt;c2</title>
<path fill="none" stroke="black" d="M106.012,-293.674C105.512,-263.355 103.787,-158.708 103.286,-128.309"/>
</g>
<!-- c6 -->
<g id="node7" class="node"><title>c6</title>
<ellipse fill="lightgrey" stroke="black" cx="157.149" cy="-210.967" rx="9" ry="9"/>
</g>
<!-- c6&#45;&gt;c6 -->
<g id="edge15" class="edge"><title>c6&#45;&gt;c6</title>
<path fill="none" stroke="none" d="M164.064,-216.863C173.163,-221.917 184.149,-219.952 184.149,-210.967 184.149,-201.983 173.163,-200.018 164.064,-205.071"/>
<text text-anchor="middle" x="157.675" y="-226.735" font-family="Times New Roman,serif" font-size="14.00">connected</text>
</g>
<!-- c6&#45;&gt;c2 -->
<g id="edge16" class="edge"><title>c6&#45;&gt;c2</title>
<path fill="none" stroke="black" d="M152.912,-202.905C142.867,-186.164 117.691,-144.204 107.516,-127.247"/>
</g>
<!-- c6&#45;&gt;c3 -->
<g id="edge17" class="edge"><title>c6&#45;&gt;c3</title>
<path fill="none" stroke="black" d="M158.924,-201.98C162.729,-184.858 171.631,-144.798 175.407,-127.808"/>
</g>
<!-- c7 -->
<g id="node8" class="node"><title>c7</title>
<ellipse fill="lightgrey" stroke="black" cx="215.149" cy="-210.967" rx="9" ry="9"/>
</g>
<!-- c7&#45;&gt;c7 -->
<g id="edge18" class="edge"><title>c7&#45;&gt;c7</title>
<path fill="none" stroke="none" d="M222.064,-216.863C231.163,-221.917 242.149,-219.952 242.149,-210.967 242.149,-201.983 231.163,-200.018 222.064,-205.071"/>
<text text-anchor="middle" x="215.675" y="-187.8" font-family="Times New Roman,serif" font-size="14.00">strict weak order</text>
</g>
<!-- c7&#45;&gt;c3 -->
<g id="edge19" class="edge"><title>c7&#45;&gt;c3</title>
<path fill="none" stroke="black" d="M211.909,-202.294C204.73,-185.29 187.552,-144.607 180.381,-127.621"/>
</g>
<!-- c8 -->
<g id="node9" class="node"><title>c8</title>
<ellipse fill="lightgrey" stroke="black" cx="176.149" cy="-302.967" rx="9" ry="9"/>
</g>
<!-- c8&#45;&gt;c8 -->
<g id="edge20" class="edge"><title>c8&#45;&gt;c8</title>
<path fill="none" stroke="none" d="M183.064,-308.863C192.163,-313.917 203.149,-311.952 203.149,-302.967 203.149,-293.983 192.163,-292.018 183.064,-297.071"/>
<text text-anchor="middle" x="176.675" y="-318.735" font-family="Times New Roman,serif" font-size="14.00">neg. trans.</text>
</g>
<!-- c8&#45;&gt;c6 -->
<g id="edge21" class="edge"><title>c8&#45;&gt;c6</title>
<path fill="none" stroke="black" d="M174.463,-293.98C170.866,-276.944 162.476,-237.2 158.859,-220.066"/>
</g>
<!-- c8&#45;&gt;c7 -->
<g id="edge22" class="edge"><title>c8&#45;&gt;c7</title>
<path fill="none" stroke="black" d="M179.474,-294.294C186.842,-277.29 204.472,-236.607 211.832,-219.621"/>
</g>
<!-- c9 -->
<g id="node10" class="node"><title>c9</title>
<ellipse fill="lightgrey" stroke="black" cx="233.149" cy="-302.967" rx="9" ry="9"/>
</g>
<!-- c9&#45;&gt;c9 -->
<g id="edge23" class="edge"><title>c9&#45;&gt;c9</title>
<path fill="none" stroke="none" d="M241.72,-306.332C250.441,-308.312 260.149,-307.19 260.149,-302.967 260.149,-298.745 250.441,-297.623 241.72,-299.602"/>
<text text-anchor="middle" x="238.919" y="-281.166" font-family="Times New Roman,serif" font-size="14.00">strict partial order</text>
</g>
<!-- c9&#45;&gt;c9 -->
<g id="edge24" class="edge"><title>c9&#45;&gt;c9</title>
<path fill="none" stroke="none" d="M241.107,-307.516C256.791,-314.187 278.149,-312.67 278.149,-302.967 278.149,-293.264 256.791,-291.748 241.107,-298.419"/>
<text text-anchor="middle" x="236" y="-317.919" font-family="Times New Roman,serif" font-size="14.00">asymmetric</text>
</g>
<!-- c9&#45;&gt;c7 -->
<g id="edge25" class="edge"><title>c9&#45;&gt;c7</title>
<path fill="none" stroke="black" d="M231.551,-293.98C228.144,-276.944 220.195,-237.2 216.769,-220.066"/>
</g>
<!-- c10 -->
<g id="node11" class="node"><title>c10</title>
<ellipse fill="lightgrey" stroke="black" cx="232.149" cy="-448.967" rx="9" ry="9"/>
</g>
<!-- c10&#45;&gt;c10 -->
<g id="edge26" class="edge"><title>c10&#45;&gt;c10</title>
<path fill="none" stroke="none" d="M240.442,-452.842C249.234,-455.269 259.149,-453.977 259.149,-448.967 259.149,-443.958 249.234,-442.666 240.442,-445.093"/>
<text text-anchor="middle" x="237.056" y="-426.78" font-family="Times New Roman,serif" font-size="14.00">irrefl.</text>
</g>
<!-- c10&#45;&gt;c10 -->
<g id="edge27" class="edge"><title>c10&#45;&gt;c10</title>
<path fill="none" stroke="none" d="M239.673,-454.087C255.394,-462.17 277.149,-460.463 277.149,-448.967 277.149,-437.471 255.394,-435.765 239.673,-443.848"/>
<text text-anchor="middle" x="233.659" y="-464.128" font-family="Times New Roman,serif" font-size="14.00">irreflexive</text>
</g>
<!-- c10&#45;&gt;c9 -->
<g id="edge28" class="edge"><title>c10&#45;&gt;c9</title>
<path fill="none" stroke="black" d="M232.205,-439.813C232.381,-414.467 232.918,-337.256 233.093,-312.033"/>
</g>
<!-- c11 -->
<g id="node12" class="node"><title>c11</title>
<ellipse fill="lightgrey" stroke="black" cx="100.149" cy="-394.967" rx="9" ry="9"/>
</g>
<!-- c11&#45;&gt;c11 -->
<g id="edge29" class="edge"><title>c11&#45;&gt;c11</title>
<path fill="none" stroke="none" d="M107.064,-400.863C116.163,-405.917 127.149,-403.952 127.149,-394.967 127.149,-385.983 116.163,-384.018 107.064,-389.071"/>
<text text-anchor="middle" x="100.675" y="-371.8" font-family="Times New Roman,serif" font-size="14.00">preorder</text>
</g>
<!-- c11&#45;&gt;c1 -->
<g id="edge30" class="edge"><title>c11&#45;&gt;c1</title>
<path fill="none" stroke="black" d="M96.2208,-386.602C87.1752,-369.642 64.9646,-327.997 55.997,-311.183"/>
</g>
<!-- c11&#45;&gt;c5 -->
<g id="edge31" class="edge"><title>c11&#45;&gt;c5</title>
<path fill="none" stroke="black" d="M100.681,-385.98C101.817,-368.944 104.467,-329.2 105.609,-312.066"/>
</g>
<!-- c12 -->
<g id="node13" class="node"><title>c12</title>
<ellipse fill="lightgrey" stroke="black" cx="100.149" cy="-502.967" rx="9" ry="9"/>
</g>
<!-- c12&#45;&gt;c12 -->
<g id="edge32" class="edge"><title>c12&#45;&gt;c12</title>
<path fill="none" stroke="none" d="M107.064,-508.863C116.163,-513.917 127.149,-511.952 127.149,-502.967 127.149,-493.983 116.163,-492.018 107.064,-497.071"/>
<text text-anchor="middle" x="100.675" y="-518.735" font-family="Times New Roman,serif" font-size="14.00">reflexive</text>
</g>
<!-- c12&#45;&gt;c4 -->
<g id="edge33" class="edge"><title>c12&#45;&gt;c4</title>
<path fill="none" stroke="black" d="M95.2935,-495.012C81.853,-475.76 44.2721,-421.928 30.9259,-402.81"/>
</g>
<!-- c12&#45;&gt;c11 -->
<g id="edge34" class="edge"><title>c12&#45;&gt;c11</title>
<path fill="none" stroke="black" d="M100.149,-493.65C100.149,-473.835 100.149,-424.022 100.149,-404.246"/>
</g>
<!-- c13 -->
<g id="node14" class="node"><title>c13</title>
<ellipse fill="lightgrey" stroke="black" cx="176.149" cy="-394.967" rx="9" ry="9"/>
</g>
<!-- c13&#45;&gt;c13 -->
<g id="edge35" class="edge"><title>c13&#45;&gt;c13</title>
<path fill="none" stroke="none" d="M183.064,-400.863C192.163,-405.917 203.149,-403.952 203.149,-394.967 203.149,-385.983 192.163,-384.018 183.064,-389.071"/>
<text text-anchor="middle" x="176.675" y="-410.735" font-family="Times New Roman,serif" font-size="14.00">antisymmetric</text>
</g>
<!-- c13&#45;&gt;c5 -->
<g id="edge36" class="edge"><title>c13&#45;&gt;c5</title>
<path fill="none" stroke="black" d="M171.115,-387.495C158.324,-371.05 124.665,-327.773 111.518,-310.871"/>
</g>
<!-- c13&#45;&gt;c8 -->
<g id="edge37" class="edge"><title>c13&#45;&gt;c8</title>
<path fill="none" stroke="black" d="M176.149,-385.662C176.149,-368.429 176.149,-328.983 176.149,-311.994"/>
</g>
<!-- c13&#45;&gt;c9 -->
<g id="edge38" class="edge"><title>c13&#45;&gt;c9</title>
<path fill="none" stroke="black" d="M180.622,-386.905C191.224,-370.164 217.799,-328.204 228.539,-311.247"/>
</g>
<!-- c14 -->
<g id="node15" class="node"><title>c14</title>
<ellipse fill="lightgrey" stroke="black" cx="165.149" cy="-502.967" rx="9" ry="9"/>
</g>
<!-- c14&#45;&gt;c14 -->
<g id="edge39" class="edge"><title>c14&#45;&gt;c14</title>
<path fill="none" stroke="none" d="M172.064,-508.863C181.163,-513.917 192.149,-511.952 192.149,-502.967 192.149,-493.983 181.163,-492.018 172.064,-497.071"/>
<text text-anchor="middle" x="165.675" y="-518.735" font-family="Times New Roman,serif" font-size="14.00">transitive</text>
</g>
<!-- c14&#45;&gt;c11 -->
<g id="edge40" class="edge"><title>c14&#45;&gt;c11</title>
<path fill="none" stroke="black" d="M160.884,-495.012C149.135,-475.852 116.383,-422.442 104.515,-403.087"/>
</g>
<!-- c14&#45;&gt;c13 -->
<g id="edge41" class="edge"><title>c14&#45;&gt;c13</title>
<path fill="none" stroke="black" d="M165.976,-494C168.014,-474.356 173.264,-423.768 175.312,-404.027"/>
</g>
<!-- c15 -->
<g id="node16" class="node"><title>c15</title>
<ellipse fill="lightgrey" stroke="black" cx="165.149" cy="-594.967" rx="9" ry="9"/>
</g>
<!-- c15&#45;&gt;c15 -->
<g id="edge42" class="edge"><title>c15&#45;&gt;c15</title>
<path fill="none" stroke="none" d="M172.064,-600.863C181.163,-605.917 192.149,-603.952 192.149,-594.967 192.149,-585.983 181.163,-584.018 172.064,-589.071"/>
<text text-anchor="middle" x="165.675" y="-610.735" font-family="Times New Roman,serif" font-size="14.00">relation</text>
</g>
<!-- c15&#45;&gt;c10 -->
<g id="edge43" class="edge"><title>c15&#45;&gt;c10</title>
<path fill="none" stroke="black" d="M168.564,-586.628C180.03,-561.984 217.086,-482.342 228.661,-457.464"/>
</g>
<!-- c15&#45;&gt;c12 -->
<g id="edge44" class="edge"><title>c15&#45;&gt;c12</title>
<path fill="none" stroke="black" d="M160.263,-587.203C148.217,-570.524 117.196,-527.572 105.091,-510.81"/>
</g>
<!-- c15&#45;&gt;c14 -->
<g id="edge45" class="edge"><title>c15&#45;&gt;c14</title>
<path fill="none" stroke="black" d="M165.149,-585.662C165.149,-568.429 165.149,-528.983 165.149,-511.994"/>
</g>
</g>
</svg>
