<?xml version="1.0" encoding="UTF-8" standalone="no"?>
<!DOCTYPE svg PUBLIC "-//W3C//DTD SVG 1.1//EN"
 "http://www.w3.org/Graphics/SVG/1.1/DTD/svg11.dtd">
<!-- Generated by graphviz version 2.38.0 (20140413.2041)
 -->
<!-- Title: Lattice Pages: 1 -->
<svg width="297pt" height="625pt"
 viewBox="0.00 0.00 296.84 625.07" xmlns="http://www.w3.org/2000/svg" xmlns:xlink="http://www.w3.org/1999/xlink">
<g id="graph0" class="graph" transform="scale(1 1) rotate(0) translate(4 621.071)">
<title>Lattice</title>
<polygon fill="white" stroke="none" points="-4,4 -4,-621.071 292.839,-621.071 292.839,4 -4,4"/>
<!-- c0 -->
<g id="node1" class="node"><title>c0</title>
<ellipse fill="lightgrey" stroke="black" cx="102.951" cy="-27.0354" rx="9" ry="9"/>
</g>
<!-- c0&#45;&gt;c0 -->
<g id="edge1" class="edge"><title>c0&#45;&gt;c0</title>
<path fill="none" stroke="none" d="M110.14,-32.8181C119.183,-37.4708 129.951,-35.5432 129.951,-27.0354 129.951,-18.5276 119.183,-16.6001 110.14,-21.2528"/>
<text text-anchor="middle" x="104.152" y="-3.8" font-family="Times New Roman,serif" font-size="14.00">R = X = {}</text>
</g>
<!-- c1 -->
<g id="node2" class="node"><title>c1</title>
<ellipse fill="lightgrey" stroke="black" cx="51.9511" cy="-300.035" rx="9" ry="9"/>
</g>
<!-- c1&#45;&gt;c0 -->
<g id="edge3" class="edge"><title>c1&#45;&gt;c0</title>
<path fill="none" stroke="black" d="M52.8886,-290.704C54.5761,-274.965 57.9511,-239.769 57.9511,-210.035 57.9511,-210.035 57.9511,-210.035 57.9511,-117.035 57.9511,-82.7534 84.8703,-48.2611 97.0681,-34.3915"/>
</g>
<!-- c1&#45;&gt;c1 -->
<g id="edge2" class="edge"><title>c1&#45;&gt;c1</title>
<path fill="none" stroke="none" d="M59.1402,-305.818C68.1834,-310.471 78.9511,-308.543 78.9511,-300.035 78.9511,-291.528 68.1834,-289.6 59.1402,-294.253"/>
<text text-anchor="middle" x="53.1517" y="-276.8" font-family="Times New Roman,serif" font-size="14.00">equivalence</text>
</g>
<!-- c2 -->
<g id="node3" class="node"><title>c2</title>
<ellipse fill="lightgrey" stroke="black" cx="102.951" cy="-118.035" rx="9" ry="9"/>
</g>
<!-- c2&#45;&gt;c0 -->
<g id="edge6" class="edge"><title>c2&#45;&gt;c0</title>
<path fill="none" stroke="black" d="M102.951,-108.822C102.951,-91.8672 102.951,-53.1668 102.951,-36.2289"/>
</g>
<!-- c2&#45;&gt;c2 -->
<g id="edge4" class="edge"><title>c2&#45;&gt;c2</title>
<path fill="none" stroke="none" d="M111.522,-121.254C120.244,-123.147 129.951,-122.074 129.951,-118.035 129.951,-113.996 120.244,-112.923 111.522,-114.817"/>
<text text-anchor="middle" x="108.839" y="-96.3586" font-family="Times New Roman,serif" font-size="14.00">total order</text>
</g>
<!-- c2&#45;&gt;c2 -->
<g id="edge5" class="edge"><title>c2&#45;&gt;c2</title>
<path fill="none" stroke="none" d="M110.909,-122.386C126.594,-128.767 147.951,-127.317 147.951,-118.035 147.951,-108.754 126.594,-107.304 110.909,-113.685"/>
<text text-anchor="middle" x="106" y="-132.86" font-family="Times New Roman,serif" font-size="14.00">total</text>
</g>
<!-- c3 -->
<g id="node4" class="node"><title>c3</title>
<ellipse fill="lightgrey" stroke="black" cx="176.951" cy="-118.035" rx="9" ry="9"/>
</g>
<!-- c3&#45;&gt;c0 -->
<g id="edge9" class="edge"><title>c3&#45;&gt;c0</title>
<path fill="none" stroke="black" d="M171.629,-110.635C157.976,-94.2136 121.825,-50.7354 108.225,-34.3781"/>
</g>
<!-- c3&#45;&gt;c3 -->
<g id="edge7" class="edge"><title>c3&#45;&gt;c3</title>
<path fill="none" stroke="none" d="M185.522,-121.254C194.244,-123.147 203.951,-122.074 203.951,-118.035 203.951,-113.996 194.244,-112.923 185.522,-114.817"/>
<text text-anchor="middle" x="182.839" y="-96.3586" font-family="Times New Roman,serif" font-size="14.00">strict total order</text>
</g>
<!-- c3&#45;&gt;c3 -->
<g id="edge8" class="edge"><title>c3&#45;&gt;c3</title>
<path fill="none" stroke="none" d="M184.909,-122.386C200.594,-128.767 221.951,-127.317 221.951,-118.035 221.951,-108.754 200.594,-107.304 184.909,-113.685"/>
<text text-anchor="middle" x="180" y="-132.86" font-family="Times New Roman,serif" font-size="14.00">trichotomous</text>
</g>
<!-- c4 -->
<g id="node5" class="node"><title>c4</title>
<ellipse fill="lightgrey" stroke="black" cx="25.9511" cy="-391.035" rx="9" ry="9"/>
</g>
<!-- c4&#45;&gt;c1 -->
<g id="edge12" class="edge"><title>c4&#45;&gt;c1</title>
<path fill="none" stroke="black" d="M28.2584,-382.137C33.2048,-365.205 44.7777,-325.59 49.686,-308.789"/>
</g>
<!-- c4&#45;&gt;c4 -->
<g id="edge10" class="edge"><title>c4&#45;&gt;c4</title>
<path fill="none" stroke="none" d="M34.522,-394.254C43.2436,-396.147 52.9511,-395.074 52.9511,-391.035 52.9511,-386.996 43.2436,-385.923 34.522,-387.817"/>
<text text-anchor="middle" x="31.8395" y="-369.359" font-family="Times New Roman,serif" font-size="14.00">tolerance</text>
</g>
<!-- c4&#45;&gt;c4 -->
<g id="edge11" class="edge"><title>c4&#45;&gt;c4</title>
<path fill="none" stroke="none" d="M33.9093,-395.386C49.5937,-401.767 70.9511,-400.317 70.9511,-391.035 70.9511,-381.754 49.5937,-380.304 33.9093,-386.685"/>
<text text-anchor="middle" x="29" y="-405.86" font-family="Times New Roman,serif" font-size="14.00">symmetric</text>
</g>
<!-- c5 -->
<g id="node6" class="node"><title>c5</title>
<ellipse fill="lightgrey" stroke="black" cx="105.951" cy="-300.035" rx="9" ry="9"/>
</g>
<!-- c5&#45;&gt;c2 -->
<g id="edge14" class="edge"><title>c5&#45;&gt;c2</title>
<path fill="none" stroke="black" d="M105.814,-290.833C105.315,-260.847 103.59,-157.35 103.089,-127.286"/>
</g>
<!-- c5&#45;&gt;c5 -->
<g id="edge13" class="edge"><title>c5&#45;&gt;c5</title>
<path fill="none" stroke="none" d="M113.14,-305.818C122.183,-310.471 132.951,-308.543 132.951,-300.035 132.951,-291.528 122.183,-289.6 113.14,-294.253"/>
<text text-anchor="middle" x="107.152" y="-276.8" font-family="Times New Roman,serif" font-size="14.00">partial order</text>
</g>
<!-- c6 -->
<g id="node7" class="node"><title>c6</title>
<ellipse fill="lightgrey" stroke="black" cx="156.951" cy="-209.035" rx="9" ry="9"/>
</g>
<!-- c6&#45;&gt;c2 -->
<g id="edge16" class="edge"><title>c6&#45;&gt;c2</title>
<path fill="none" stroke="black" d="M152.714,-201.052C142.669,-184.496 117.493,-143.003 107.319,-126.234"/>
</g>
<!-- c6&#45;&gt;c3 -->
<g id="edge17" class="edge"><title>c6&#45;&gt;c3</title>
<path fill="none" stroke="black" d="M158.726,-200.137C162.512,-183.291 171.344,-143.988 175.151,-127.044"/>
</g>
<!-- c6&#45;&gt;c6 -->
<g id="edge15" class="edge"><title>c6&#45;&gt;c6</title>
<path fill="none" stroke="none" d="M164.14,-214.818C173.183,-219.471 183.951,-217.543 183.951,-209.035 183.951,-200.528 173.183,-198.6 164.14,-203.253"/>
<text text-anchor="middle" x="158.152" y="-224.871" font-family="Times New Roman,serif" font-size="14.00">connected</text>
</g>
<!-- c7 -->
<g id="node8" class="node"><title>c7</title>
<ellipse fill="lightgrey" stroke="black" cx="214.951" cy="-209.035" rx="9" ry="9"/>
</g>
<!-- c7&#45;&gt;c3 -->
<g id="edge19" class="edge"><title>c7&#45;&gt;c3</title>
<path fill="none" stroke="black" d="M211.711,-200.447C204.532,-183.633 187.354,-143.401 180.183,-126.604"/>
</g>
<!-- c7&#45;&gt;c7 -->
<g id="edge18" class="edge"><title>c7&#45;&gt;c7</title>
<path fill="none" stroke="none" d="M222.14,-214.818C231.183,-219.471 241.951,-217.543 241.951,-209.035 241.951,-200.528 231.183,-198.6 222.14,-203.253"/>
<text text-anchor="middle" x="216.152" y="-185.8" font-family="Times New Roman,serif" font-size="14.00">strict weak order</text>
</g>
<!-- c8 -->
<g id="node9" class="node"><title>c8</title>
<ellipse fill="lightgrey" stroke="black" cx="175.951" cy="-300.035" rx="9" ry="9"/>
</g>
<!-- c8&#45;&gt;c6 -->
<g id="edge21" class="edge"><title>c8&#45;&gt;c6</title>
<path fill="none" stroke="black" d="M174.265,-291.137C170.668,-274.291 162.278,-234.988 158.661,-218.044"/>
</g>
<!-- c8&#45;&gt;c7 -->
<g id="edge22" class="edge"><title>c8&#45;&gt;c7</title>
<path fill="none" stroke="black" d="M179.276,-291.447C186.644,-274.633 204.274,-234.401 211.634,-217.604"/>
</g>
<!-- c8&#45;&gt;c8 -->
<g id="edge20" class="edge"><title>c8&#45;&gt;c8</title>
<path fill="none" stroke="none" d="M183.14,-305.818C192.183,-310.471 202.951,-308.543 202.951,-300.035 202.951,-291.528 192.183,-289.6 183.14,-294.253"/>
<text text-anchor="middle" x="177.152" y="-315.871" font-family="Times New Roman,serif" font-size="14.00">neg. trans.</text>
</g>
<!-- c9 -->
<g id="node10" class="node"><title>c9</title>
<ellipse fill="lightgrey" stroke="black" cx="232.951" cy="-300.035" rx="9" ry="9"/>
</g>
<!-- c9&#45;&gt;c7 -->
<g id="edge25" class="edge"><title>c9&#45;&gt;c7</title>
<path fill="none" stroke="black" d="M231.354,-291.137C227.946,-274.291 219.998,-234.988 216.571,-218.044"/>
</g>
<!-- c9&#45;&gt;c9 -->
<g id="edge23" class="edge"><title>c9&#45;&gt;c9</title>
<path fill="none" stroke="none" d="M241.522,-303.254C250.244,-305.147 259.951,-304.074 259.951,-300.035 259.951,-295.996 250.244,-294.923 241.522,-296.817"/>
<text text-anchor="middle" x="238.839" y="-278.359" font-family="Times New Roman,serif" font-size="14.00">strict partial order</text>
</g>
<!-- c9&#45;&gt;c9 -->
<g id="edge24" class="edge"><title>c9&#45;&gt;c9</title>
<path fill="none" stroke="none" d="M240.909,-304.386C256.594,-310.767 277.951,-309.317 277.951,-300.035 277.951,-290.754 256.594,-289.304 240.909,-295.685"/>
<text text-anchor="middle" x="236" y="-314.86" font-family="Times New Roman,serif" font-size="14.00">asymmetric</text>
</g>
<!-- c10 -->
<g id="node11" class="node"><title>c10</title>
<ellipse fill="lightgrey" stroke="black" cx="231.951" cy="-445.035" rx="9" ry="9"/>
</g>
<!-- c10&#45;&gt;c9 -->
<g id="edge28" class="edge"><title>c10&#45;&gt;c9</title>
<path fill="none" stroke="black" d="M232.008,-435.937C232.184,-410.768 232.72,-334.093 232.895,-309.045"/>
</g>
<!-- c10&#45;&gt;c10 -->
<g id="edge26" class="edge"><title>c10&#45;&gt;c10</title>
<path fill="none" stroke="none" d="M240.244,-448.91C249.036,-451.337 258.951,-450.045 258.951,-445.035 258.951,-440.026 249.036,-438.734 240.244,-441.161"/>
<text text-anchor="middle" x="236.858" y="-422.848" font-family="Times New Roman,serif" font-size="14.00">irrefl.</text>
</g>
<!-- c10&#45;&gt;c10 -->
<g id="edge27" class="edge"><title>c10&#45;&gt;c10</title>
<path fill="none" stroke="none" d="M239.475,-450.155C255.196,-458.238 276.951,-456.532 276.951,-445.035 276.951,-433.539 255.196,-431.833 239.475,-439.916"/>
<text text-anchor="middle" x="233.461" y="-460.196" font-family="Times New Roman,serif" font-size="14.00">irreflexive</text>
</g>
<!-- c11 -->
<g id="node12" class="node"><title>c11</title>
<ellipse fill="lightgrey" stroke="black" cx="99.9511" cy="-391.035" rx="9" ry="9"/>
</g>
<!-- c11&#45;&gt;c1 -->
<g id="edge30" class="edge"><title>c11&#45;&gt;c1</title>
<path fill="none" stroke="black" d="M96.023,-382.752C87.0669,-366.146 65.2054,-325.611 56.0695,-308.672"/>
</g>
<!-- c11&#45;&gt;c5 -->
<g id="edge31" class="edge"><title>c11&#45;&gt;c5</title>
<path fill="none" stroke="black" d="M100.505,-381.822C101.648,-364.867 104.257,-326.167 105.399,-309.229"/>
</g>
<!-- c11&#45;&gt;c11 -->
<g id="edge29" class="edge"><title>c11&#45;&gt;c11</title>
<path fill="none" stroke="none" d="M107.14,-396.818C116.183,-401.471 126.951,-399.543 126.951,-391.035 126.951,-382.528 116.183,-380.6 107.14,-385.253"/>
<text text-anchor="middle" x="101.152" y="-367.8" font-family="Times New Roman,serif" font-size="14.00">preorder</text>
</g>
<!-- c12 -->
<g id="node13" class="node"><title>c12</title>
<ellipse fill="lightgrey" stroke="black" cx="99.9511" cy="-499.035" rx="9" ry="9"/>
</g>
<!-- c12&#45;&gt;c4 -->
<g id="edge33" class="edge"><title>c12&#45;&gt;c4</title>
<path fill="none" stroke="black" d="M95.0957,-491.08C81.6552,-471.828 44.0743,-417.996 30.7281,-398.878"/>
</g>
<!-- c12&#45;&gt;c11 -->
<g id="edge34" class="edge"><title>c12&#45;&gt;c11</title>
<path fill="none" stroke="black" d="M99.9511,-489.718C99.9511,-469.903 99.9511,-420.09 99.9511,-400.314"/>
</g>
<!-- c12&#45;&gt;c12 -->
<g id="edge32" class="edge"><title>c12&#45;&gt;c12</title>
<path fill="none" stroke="none" d="M107.14,-504.818C116.183,-509.471 126.951,-507.543 126.951,-499.035 126.951,-490.528 116.183,-488.6 107.14,-493.253"/>
<text text-anchor="middle" x="101.152" y="-514.871" font-family="Times New Roman,serif" font-size="14.00">reflexive</text>
</g>
<!-- c13 -->
<g id="node14" class="node"><title>c13</title>
<ellipse fill="lightgrey" stroke="black" cx="175.951" cy="-391.035" rx="9" ry="9"/>
</g>
<!-- c13&#45;&gt;c5 -->
<g id="edge36" class="edge"><title>c13&#45;&gt;c5</title>
<path fill="none" stroke="black" d="M170.69,-383.346C157.717,-366.852 124.31,-324.377 111.274,-307.803"/>
</g>
<!-- c13&#45;&gt;c8 -->
<g id="edge37" class="edge"><title>c13&#45;&gt;c8</title>
<path fill="none" stroke="black" d="M175.951,-381.822C175.951,-364.867 175.951,-326.167 175.951,-309.229"/>
</g>
<!-- c13&#45;&gt;c9 -->
<g id="edge38" class="edge"><title>c13&#45;&gt;c9</title>
<path fill="none" stroke="black" d="M180.424,-383.052C191.027,-366.496 217.601,-325.003 228.341,-308.234"/>
</g>
<!-- c13&#45;&gt;c13 -->
<g id="edge35" class="edge"><title>c13&#45;&gt;c13</title>
<path fill="none" stroke="none" d="M183.14,-396.818C192.183,-401.471 202.951,-399.543 202.951,-391.035 202.951,-382.528 192.183,-380.6 183.14,-385.253"/>
<text text-anchor="middle" x="177.152" y="-406.871" font-family="Times New Roman,serif" font-size="14.00">antisymmetric</text>
</g>
<!-- c14 -->
<g id="node15" class="node"><title>c14</title>
<ellipse fill="lightgrey" stroke="black" cx="164.951" cy="-499.035" rx="9" ry="9"/>
</g>
<!-- c14&#45;&gt;c11 -->
<g id="edge40" class="edge"><title>c14&#45;&gt;c11</title>
<path fill="none" stroke="black" d="M160.686,-491.08C148.937,-471.92 116.186,-418.51 104.317,-399.155"/>
</g>
<!-- c14&#45;&gt;c13 -->
<g id="edge41" class="edge"><title>c14&#45;&gt;c13</title>
<path fill="none" stroke="black" d="M165.778,-490.068C167.816,-470.424 173.066,-419.836 175.115,-400.095"/>
</g>
<!-- c14&#45;&gt;c14 -->
<g id="edge39" class="edge"><title>c14&#45;&gt;c14</title>
<path fill="none" stroke="none" d="M172.14,-504.818C181.183,-509.471 191.951,-507.543 191.951,-499.035 191.951,-490.528 181.183,-488.6 172.14,-493.253"/>
<text text-anchor="middle" x="166.152" y="-514.871" font-family="Times New Roman,serif" font-size="14.00">transitive</text>
</g>
<!-- c15 -->
<g id="node16" class="node"><title>c15</title>
<ellipse fill="lightgrey" stroke="black" cx="164.951" cy="-590.035" rx="9" ry="9"/>
</g>
<!-- c15&#45;&gt;c10 -->
<g id="edge43" class="edge"><title>c15&#45;&gt;c10</title>
<path fill="none" stroke="black" d="M168.553,-581.347C180.241,-556.402 217.014,-477.916 228.493,-453.416"/>
</g>
<!-- c15&#45;&gt;c12 -->
<g id="edge44" class="edge"><title>c15&#45;&gt;c12</title>
<path fill="none" stroke="black" d="M160.066,-582.346C148.02,-565.852 116.999,-523.377 104.893,-506.803"/>
</g>
<!-- c15&#45;&gt;c14 -->
<g id="edge45" class="edge"><title>c15&#45;&gt;c14</title>
<path fill="none" stroke="black" d="M164.951,-580.822C164.951,-563.867 164.951,-525.167 164.951,-508.229"/>
</g>
<!-- c15&#45;&gt;c15 -->
<g id="edge42" class="edge"><title>c15&#45;&gt;c15</title>
<path fill="none" stroke="none" d="M172.14,-595.818C181.183,-600.471 191.951,-598.543 191.951,-590.035 191.951,-581.528 181.183,-579.6 172.14,-584.253"/>
<text text-anchor="middle" x="166.152" y="-605.871" font-family="Times New Roman,serif" font-size="14.00">relation</text>
</g>
</g>
</svg>
